{
.appVersion = "3236";
.formatVersion = 3;
DisplayStrings = (
"ĿĿŀŀ/gcommaaccent.ss01/backslash.case/periodcentered.case/periodcentered.case/periodcentered.loclCAT.case/periodcentered.loclCAT.case/slash.case/braceleft.case/braceleft.case/braceright.case/braceright.case/bracketleft.case/bracketleft.case/bracketright.case/bracketright.case/parenleft.case/parenright.case/guilsinglleft.case/guilsinglleft.case/guilsinglleft.case/guilsinglleft.case/guilsinglright.case/guilsinglright.case/guilsinglright.case/guilsinglright.case ̮̮̮̈̀̀́́̆/hungarumlautcomb.case/dieresisbelowcomb.case/dieresisbelowcomb.case/ogonekcomb.case",
C
);
axes = (
{
name = Weight;
tag = wght;
}
);
classes = (
{
automatic = 1;

glyphs = (
{
glyphname = A;
kernLeft = A;
kernRight = A;
lastChange = "2024-08-16 15:27:50 +0000";
layers = (
{
anchors = (
{
name = bottom;
pos = (322,0);
},
{
name = ogonek;
pos = (581,10);
},
{
name = top;
pos = (471,700);
}
);
layerId = "8816CCA3-DDF9-4C51-BD56-64EE3675A105";
shapes = (
{
closed = 1;
nodes = (
(417,537,l),
(526,36,ls),
(531,11,o),
(548,-5,o),
(572,-5,cs),
(600,-5,o),
(633,18,o),
(640,54,cs),
(642,62,o),
(642,70,o),
(641,78,cs),
(519,664,ls),
(514,689,o),
(496,704,o),
(472,704,c),
(446,706,o),
(420,691,o),
(403,664,cs),
(27,66,l),
(24,59,o),
(21,53,o),
(20,47,cs),
(14,17,o),
(26,-5,o),
(62,-5,cs),
(85,-5,o),
(109,10,o),
(123,35,c),
(447,543,l)
);
},
{
closed = 1;
nodes = (
(524,157,l),
(530,272,l),
(260,272,l),
(180,157,l)
);
}
);
width = 639;
},
{
anchors = (
{
name = bottom;
pos = (325,0);
},
{
name = ogonek;
pos = (586,10);
},
{
name = top;
pos = (474,700);
}
);
layerId = "254266E2-2911-423D-9D37-8CC6105656EE";
shapes = (
{
closed = 1;
nodes = (
(452,657,l),
(576,13,ls),
(577,5,o),
(584,0,o),
(593,0,cs),
(605,0,o),
(615,7,o),
(618,19,cs),
(619,22,o),
(619,24,o),
(619,27,cs),
(490,689,l),
(489,697,o),
(483,702,o),
(473,702,cs),
(464,702,o),
(458,700,o),
(451,689,c),
(42,27,ls),
(40,24,o),
(38,20,o),
(39,17,cs),
(38,8,o),
(43,0,o),
(56,0,cs),
(64,0,o),
(72,5,o),
(77,13,cs),
(465,649,l)
);
},
{
closed = 1;
nodes = (
(536,217,l),
(535,257,l),
(211,257,l),
(188,217,l)
);
}
);
width = 649;
}
);
note = A;
unicode = 65;
},
{
glyphname = Aogonek;
lastChange = "2024-08-16 15:27:50 +0000";
layers = (
{
anchors = (
{
name = _ogonek;
pos = (581,10);
},
{
name = bottom;
pos = (322,0);
},
{
name = ogonek;
pos = (581,10);
},
{
name = top;
pos = (471,700);
}
);
layerId = "8816CCA3-DDF9-4C51-BD56-64EE3675A105";
shapes = (
{
closed = 1;
nodes = (
(542,-207,o),
(607,-165,o),
(614,-132,cs),
(620,-102,o),
(604,-84,o),
(580,-84,cs),
(570,-84,o),
(551,-86,o),
(535,-102,cs),
(528,-110,o),
(520,-114,o),
(512,-114,cs),
(498,-114,o),
(485,-105,o),
(490,-79,cs),
(497,-46,o),
(547,-19,o),
(611,-2,cs),
(633,4,o),
(643,21,o),
(646,35,cs),
(648,41,o),
(648,46,o),
(646,52,cs),
(519,664,ls),
(514,689,o),
(496,704,o),
(472,704,c),
(446,706,o),
(420,691,o),
(403,664,cs),
(30,69,l),
(25,61,o),
(22,53,o),
(21,45,cs),
(14,12,o),
(22,-5,o),
(62,-5,cs),
(85,-5,o),
(109,10,o),
(123,35,c),
(447,543,l),
(417,537,l),
(532,9,l),
(588,21,l),
(602,63,l),
(525,42,o),
(408,8,o),
(385,-100,cs),
(369,-174,o),
(416,-207,o),
(482,-207,cs)
);
},
{
closed = 1;
nodes = (
(524,157,l),
(530,272,l),
(260,272,l),
(199,157,l)
);
}
);
width = 643;
},
{
anchors = (
{
name = _ogonek;
pos = (667,10);
},
{
name = bottom;
pos = (325,0);
},
{
name = ogonek;
pos = (586,10);
},
{
name = top;
pos = (474,700);
}
);
layerId = "254266E2-2911-423D-9D37-8CC6105656EE";
shapes = (
{
closed = 1;
nodes = (
(571,-185,o),
(611,-163,o),
(617,-136,c),
(619,-129,o),
(613,-122,o),
(604,-122,c),
(594,-122,o),
(589,-128,o),
(582,-136,cs),
(575,-145,o),
(564,-148,o),
(548,-148,c),
(520,-148,o),
(497,-125,o),
(506,-85,c),
(514,-46,o),
(558,-7,o),
(595,0,cs),
(607,2,o),
(616,6,o),
(619,18,cs),
(619,21,o),
(619,24,o),
(619,27,cs),
(490,689,l),
(489,697,o),
(483,702,o),
(473,702,cs),
(464,702,o),
(458,700,o),
(451,689,c),
(42,27,ls),
(40,24,o),
(38,20,o),
(39,17,cs),
(38,8,o),
(43,0,o),
(56,0,cs),
(64,0,o),
(72,5,o),
(77,13,cs),
(465,649,l),
(452,657,l),
(576,13,l),
(586,20,l),
(577,23,l),
(532,9,o),
(479,-31,o),
(466,-93,c),
(454,-149,o),
(491,-185,o),
(535,-185,c)
);
},
{
closed = 1;
nodes = (
(536,217,l),
(535,257,l),
(211,257,l),
(188,217,l)
);
}
);
width = 649;
}
);
unicode = 260;
},
{
glyphname = Aring;
lastChange = "2024-08-16 15:27:50 +0000";
layers = (
{
anchors = (
{
name = _top;
pos = (471,700);
},
{
name = top;
pos = (503,850);
}
);
layerId = "8816CCA3-DDF9-4C51-BD56-64EE3675A105";
shapes = (
{
closed = 1;
nodes = (
(517,635,o),
(582,685,o),
(594,744,c),
(607,806,o),
(564,855,o),
(504,855,c),
(444,855,o),
(379,806,o),
(366,744,c),
(354,685,o),
(397,635,o),
(457,635,c)
);
},
{
closed = 1;
nodes = (
(447,705,o),
(431,721,o),
(436,744,c),
(442,770,o),
(464,785,o),
(489,785,c),
(511,785,o),
(530,772,o),
(524,744,c),
(519,721,o),
(497,705,o),
(472,705,c)
);
},
{
ref = A;
}
);
width = 643;
},
{
anchors = (
{
name = _top;
pos = (451,591);
},
{
name = top;
pos = (508,859);
}
);
layerId = "254266E2-2911-423D-9D37-8CC6105656EE";
shapes = (
{
closed = 1;
nodes = (
(520,671,o),
(575,713,o),
(586,765,cs),
(597,817,o),
(560,859,o),
(508,859,cs),
(456,859,o),
(401,817,o),
(390,765,cs),
(379,713,o),
(416,671,o),
(468,671,cs)
);
},
{
closed = 1;
nodes = (
(440,703,o),
(418,731,o),
(426,765,cs),
(433,799,o),
(467,827,o),
(501,827,cs),
(535,827,o),
(557,799,o),
(550,765,cs),
(542,731,o),
(508,703,o),
(474,703,cs)
);
},
{
ref = A;
}
);
width = 649;
}
);
unicode = 197;
},
{
glyphname = AE;
lastChange = "2024-08-16 15:27:50 +0000";
layers = (
{
anchors = (
{
name = bottom;
pos = (455,0);
},
{
name = top;
pos = (745,700);
}
);
layerId = "8816CCA3-DDF9-4C51-BD56-64EE3675A105";
shapes = (
{
closed = 1;
nodes = (
(168,143,l),
(462,143,l),
(440,156,l),
(420,61,ls),
(413,26,o),
(433,0,o),
(468,0,cs),
(783,0,ls),
(818,0,o),
(849,23,o),
(856,57,cs),
(862,87,o),
(842,115,o),
(807,115,cs),
(546,115,l),
(551,89,l),
(598,310,l),
(585,295,l),
(801,295,ls),
(836,295,o),
(866,317,o),
(874,351,cs),
(881,386,o),
(860,410,o),
(825,410,cs),
(610,410,l),
(615,391,l),
(658,594,l),
(646,585,l),
(907,585,ls),
(942,585,o),
(973,607,o),
(980,641,cs),
(988,676,o),
(967,700,o),
(932,700,cs),
(630,700,ls),
(609,700,o),
(587,694,o),
(568,674,cs),
(36,89,ls),
(24,76,o),
(16,62,o),
(14,48,cs),
(9,15,o),
(33,-5,o),
(59,-5,cs),
(75,-5,o),
(92,3,o),
(107,19,c),
(534,501,l),
(515,507,l),
(453,218,l),
(479,256,l),
(251,256,l)
);
}
);
width = 884;
},
{
anchors = (
{
name = bottom;
pos = (466,0);
},
{
name = top;
pos = (782,700);
}
);
layerId = "254266E2-2911-423D-9D37-8CC6105656EE";
shapes = (
{
closed = 1;
nodes = (
(167,177,l),
(529,177,l),
(515,191,l),
(478,20,ls),
(476,9,o),
(483,0,o),
(494,0,cs),
(861,0,ls),
(872,0,o),
(883,8,o),
(885,20,cs),
(888,31,o),
(881,40,o),
(870,40,cs),
(517,40,l),
(520,30,l),
(588,350,l),
(578,341,l),
(888,341,ls),
(899,341,o),
(910,349,o),
(913,361,cs),
(915,372,o),
(908,381,o),
(897,381,cs),
(589,381,l),
(593,371,l),
(656,670,l),
(647,660,l),
(1001,660,ls),
(1012,660,o),
(1023,668,o),
(1026,680,cs),
(1028,691,o),
(1021,700,o),
(1010,700,cs),
(641,700,ls),
(634,700,o),
(627,697,o),
(621,691,c),
(19,31,ls),
(16,28,o),
(14,24,o),
(13,20,cs),
(11,8,o),
(18,-1,o),
(28,-1,cs),
(34,-1,o),
(41,2,o),
(47,8,c),
(623,640,l),
(615,662,l),
(517,201,l),
(537,217,l),
(214,217,l)
);
}
);
width = 931;
}
);
metricRight = E;
note = AE;
unicode = 198;
},
{
glyphname = B;
kernRight = B;
lastChange = "2024-10-10 15:31:13 +0000";
layers = (
{
anchors = (
{
name = bottom;
pos = (328,0);
},
{
name = top;
pos = (477,700);
}
);
layerId = "8816CCA3-DDF9-4C51-BD56-64EE3675A105";
shapes = (
{
closed = 1;
nodes = (
(285,700,l),
(250,700,o),
(218,674,o),
(211,639,c),
(88,61,l),
(81,26,o),
(101,0,o),
(136,0,c),
(385,0,l),
(484,0,o),
(623,36,o),
(660,213,c),
(694,373,o),
(549,410,o),
(467,410,c),
(454,365,l),
(586,365,o),
(669,428,o),
(689,522,c),
(714,639,o),
(665,700,o),
(537,700,c)
);
},
{
closed = 1;
nodes = (
(541,582,o),
(566,557,o),
(554,500,c),
(544,452,o),
(502,426,o),
(464,426,c),
(284,426,l),
(294,417,l),
(332,598,l),
(316,582,l),
(494,582,l)
);
},
{
closed = 1;
nodes = (
(484,308,o),
(549,302,o),
(530,213,c),
(516,148,o),
(470,115,o),
(409,115,c),
(219,115,l),
(227,105,l),
(272,316,l),
(261,308,l),
(443,308,l)
);
}
);
width = 652;
},
{
anchors = (
{
name = bottom;
pos = (325,0);
},
{
name = top;
pos = (474,700);
}
);
layerId = "254266E2-2911-423D-9D37-8CC6105656EE";
shapes = (
{
closed = 1;
nodes = (
(269,700,l),
(258,700,o),
(247,691,o),
(245,680,c),
(104,20,l),
(102,9,o),
(109,0,o),
(120,0,c),
(396,0,l),
(509,0,o),
(613,62,o),
(640,189,c),
(665,308,o),
(597,370,o),
(493,370,c),
(497,358,l),
(592,365,o),
(660,447,o),
(678,530,c),
(700,634,o),
(645,700,o),
(538,700,c)
);
},
{
closed = 1;
nodes = (
(613,660,o),
(652,608,o),
(636,531,c),
(615,431,o),
(544,380,o),
(465,379,c),
(213,379,l),
(219,362,l),
(286,679,l),
(271,660,l),
(524,660,l)
);
},
{
closed = 1;
nodes = (
(557,338,o),
(620,293,o),
(598,189,c),
(576,85,o),
(494,40,o),
(400,40,c),
(146,40,l),
(149,32,l),
(215,344,l),
(210,338,l),
(463,338,l)
);
}
);
width = 648;
}
);
metricLeft = H;
metricRight = O;
note = B;
unicode = 66;
},
{
glyphname = C;
kernLeft = C;
lastChange = "2024-10-10 15:31:13 +0000";
layers = (
{
anchors = (
{
name = bottom;
pos = (385,0);
},
{
name = top;
pos = (514,700);
}
);
layerId = "8816CCA3-DDF9-4C51-BD56-64EE3675A105";
shapes = (
{
closed = 1;
nodes = (
(664,691,o),
(610,705,o),
(551,705,c),
(342,705,o),
(159,556,o),
(115,350,c),
(65,112,o),
(208,-10,o),
(399,-10,c),
(456,-10,o),
(516,3,o),
(573,29,c),
(610,45,o),
(627,85,o),
(608,119,c),
(594,143,o),
(566,146,o),
(535,133,c),
(499,116,o),
(460,110,o),
(424,110,c),
(293,110,o),
(211,187,o),
(245,350,c),
(275,489,o),
(382,585,o),
(525,585,c),
(563,585,o),
(598,577,o),
(626,562,c),
(651,548,o),
(681,550,o),
(704,574,c),
(736,605,o),
(739,648,o),
(708,666,c)
);
}
);
width = 628;
},
{
anchors = (
{
name = bottom;
pos = (410,0);
},
{
name = top;
pos = (547,700);
}
);
layerId = "254266E2-2911-423D-9D37-8CC6105656EE";
shapes = (
{
closed = 1;
nodes = (
(702,684,o),
(630,710,o),
(549,710,c),
(358,710,o),
(167,557,o),
(123,350,c),
(79,143,o),
(205,-10,o),
(396,-10,c),
(477,-10,o),
(574,23,o),
(630,58,c),
(641,65,o),
(645,77,o),
(640,86,c),
(635,95,o),
(624,97,o),
(613,90,c),
(549,52,o),
(479,28,o),
(404,28,c),
(234,28,o),
(125,161,o),
(165,350,c),
(206,539,o),
(371,672,o),
(541,672,c),
(615,672,o),
(677,647,o),
(724,609,c),
(732,603,o),
(743,604,o),
(752,613,c),
(762,624,o),
(762,634,o),
(753,642,c)
);
}
);
width = 661;
}
);
metricLeft = O;
note = C;
unicode = 67;
},
{
glyphname = D;
kernRight = D;
lastChange = "2024-10-10 15:31:13 +0000";
layers = (
{
anchors = (
{
name = bottom;
pos = (318,0);
},
{
name = center;
pos = (208,350);
},
{
name = top;
pos = (457,700);
}
);
layerId = "8816CCA3-DDF9-4C51-BD56-64EE3675A105";
shapes = (
{
closed = 1;
nodes = (
(285,700,ls),
(250,700,o),
(218,674,o),
(211,639,cs),
(88,61,ls),
(81,26,o),
(101,0,o),
(136,0,cs),
(375,0,ls),
(568,0,o),
(708,156,o),
(749,350,cs),
(790,543,o),
(717,700,o),
(524,700,cs)
);
},
{
closed = 1;
nodes = (
(218,115,l),
(222,104,l),
(326,594,l),
(314,585,l),
(489,585,ls),
(615,585,o),
(646,476,o),
(619,350,cs),
(592,223,o),
(515,115,o),
(389,115,cs)
);
}
);
width = 717;
},
{
anchors = (
{
name = bottom;
pos = (320,0);
},
{
name = center;
pos = (198,350);
},
{
name = top;
pos = (462,700);
}
);
layerId = "254266E2-2911-423D-9D37-8CC6105656EE";
shapes = (
{
closed = 1;
nodes = (
(269,700,ls),
(258,700,o),
(247,691,o),
(245,680,cs),
(104,20,ls),
(102,9,o),
(109,0,o),
(120,0,cs),
(380,0,ls),
(581,0,o),
(704,158,o),
(744,350,cs),
(783,532,o),
(730,700,o),
(529,700,cs)
);
},
{
closed = 1;
nodes = (
(145,40,l),
(149,31,l),
(284,668,l),
(276,660,l),
(510,660,ls),
(693,660,o),
(737,513,o),
(702,350,cs),
(666,177,o),
(562,40,o),
(379,40,cs)
);
}
);
width = 721;
}
);
metricLeft = H;
metricRight = O;
note = D;
unicode = 68;
},
{
glyphname = E;
kernRight = E;
lastChange = "2024-08-16 15:27:50 +0000";
layers = (
{
anchors = (
{
name = bottom;
pos = (286,0);
},
{
name = ogonek;
pos = (427,10);
},
{
name = top;
pos = (455,700);
},
{
name = topleft;
pos = (169,700);
}
);
layerId = "8816CCA3-DDF9-4C51-BD56-64EE3675A105";
shapes = (
{
closed = 1;
nodes = (
(250,700,o),
(218,674,o),
(211,639,c),
(88,61,l),
(81,26,o),
(101,0,o),
(136,0,c),
(471,0,l),
(506,0,o),
(537,23,o),
(544,57,c),
(550,87,o),
(530,115,o),
(495,115,c),
(216,115,l),
(223,106,l),
(265,308,l),
(259,300,l),
(490,300,l),
(525,300,o),
(555,322,o),
(563,356,c),
(570,391,o),
(549,415,o),
(514,415,c),
(280,415,l),
(287,407,l),
(328,602,l),
(315,585,l),
(595,585,l),
(630,585,o),
(661,607,o),
(668,641,c),
(676,676,o),
(655,700,o),
(620,700,c),
(285,700,l)
);
}
);
width = 572;
},
{
anchors = (
{
name = bottom;
pos = (320,0);
},
{
name = ogonek;
pos = (512,10);
},
{
name = top;
pos = (471,700);
},
{
name = topleft;
pos = (169,700);
}
);
layerId = "254266E2-2911-423D-9D37-8CC6105656EE";
shapes = (
{
closed = 1;
nodes = (
(258,700,o),
(247,691,o),
(245,680,cs),
(104,20,ls),
(102,9,o),
(109,0,o),
(120,0,cs),
(497,0,ls),
(508,0,o),
(519,8,o),
(521,20,cs),
(524,31,o),
(517,40,o),
(506,40,cs),
(147,40,l),
(149,35,l),
(217,352,l),
(204,341,l),
(524,341,ls),
(535,341,o),
(546,349,o),
(549,361,cs),
(551,372,o),
(544,381,o),
(533,381,cs),
(211,381,l),
(220,367,l),
(286,677,l),
(272,660,l),
(637,660,ls),
(648,660,o),
(659,668,o),
(662,680,cs),
(664,691,o),
(657,700,o),
(646,700,cs),
(269,700,ls)
);
}
);
width = 567;
}
);
metricLeft = H;
note = E;
unicode = 69;
},
{
glyphname = Eogonek;
lastChange = "2024-10-10 15:31:13 +0000";
layers = (
{
anchors = (
{
name = _ogonek;
pos = (427,10);
},
{
name = bottom;
pos = (286,0);
},
{
name = ogonek;
pos = (427,10);
},
{
name = top;
pos = (438,700);
},
{
name = topleft;
pos = (169,700);
}
);
layerId = "8816CCA3-DDF9-4C51-BD56-64EE3675A105";
shapes = (
{
closed = 1;
nodes = (
(408,-207,o),
(473,-165,o),
(480,-132,cs),
(486,-102,o),
(470,-84,o),
(446,-84,cs),
(436,-84,o),
(417,-86,o),
(401,-102,cs),
(394,-110,o),
(386,-114,o),
(378,-114,cs),
(362,-114,o),
(349,-102,o),
(354,-78,cs),
(361,-45,o),
(410,-14,o),
(473,0,cs),
(510,8,o),
(537,23,o),
(544,57,c),
(552,93,o),
(530,115,o),
(495,115,c),
(216,115,l),
(223,106,l),
(265,308,l),
(259,300,l),
(490,300,l),
(525,300,o),
(557,329,o),
(563,356,c),
(570,391,o),
(549,415,o),
(514,415,c),
(280,415,l),
(287,407,l),
(328,603,l),
(316,586,l),
(596,586,l),
(631,586,o),
(662,613,o),
(668,641,c),
(676,676,o),
(655,700,o),
(620,700,c),
(285,700,l),
(250,700,o),
(218,674,o),
(211,639,c),
(88,61,l),
(81,26,o),
(101,0,o),
(136,0,c),
(457,0,l),
(477,56,l),
(393,35,o),
(270,-10,o),
(251,-100,cs),
(235,-174,o),
(282,-207,o),
(348,-207,cs)
);
}
);
width = 572;
},
{
anchors = (
{
name = _ogonek;
pos = (552,10);
},
{
name = bottom;
pos = (320,0);
},
{
name = ogonek;
pos = (512,10);
},
{
name = top;
pos = (453,700);
},
{
name = topleft;
pos = (169,700);
}
);
layerId = "254266E2-2911-423D-9D37-8CC6105656EE";
shapes = (
{
closed = 1;
nodes = (
(461,-185,o),
(496,-163,o),
(502,-136,c),
(504,-129,o),
(500,-122,o),
(491,-122,c),
(481,-122,o),
(474,-128,o),
(467,-137,cs),
(461,-145,o),
(450,-148,o),
(433,-148,c),
(405,-148,o),
(382,-125,o),
(391,-85,c),
(401,-39,o),
(455,-3,o),
(492,-1,cs),
(508,0,o),
(519,8,o),
(521,20,cs),
(524,31,o),
(517,40,o),
(506,40,cs),
(147,40,l),
(149,35,l),
(217,352,l),
(204,341,l),
(524,341,ls),
(535,341,o),
(546,349,o),
(549,361,cs),
(551,372,o),
(544,381,o),
(533,381,cs),
(211,381,l),
(220,367,l),
(286,677,l),
(272,660,l),
(637,660,ls),
(648,660,o),
(659,668,o),
(662,680,cs),
(664,691,o),
(657,700,o),
(646,700,cs),
(269,700,ls),
(258,700,o),
(247,691,o),
(245,680,cs),
(104,20,ls),
(102,9,o),
(109,0,o),
(120,0,cs),
(465,0,l),
(461,17,l),
(416,3,o),
(364,-31,o),
(351,-93,c),
(339,-149,o),
(376,-185,o),
(420,-185,c)
);
}
);
width = 567;
}
);
metricLeft = E;
metricRight = E;
note = Eogonek;
unicode = 280;
},
{
glyphname = Schwa;
lastChange = "2024-10-10 15:31:13 +0000";
layers = (
{
layerId = "8816CCA3-DDF9-4C51-BD56-64EE3675A105";
shapes = (
{
closed = 1;
nodes = (
(582,-10,o),
(772,151,o),
(814,350,cs),
(857,549,o),
(732,710,o),
(540,710,cs),
(432,710,o),
(346,688,o),
(255,621,cs),
(221,596,o),
(215,556,o),
(237,533,cs),
(257,512,o),
(289,512,o),
(319,532,cs),
(386,577,o),
(450,590,o),
(514,590,cs),
(638,590,o),
(725,526,o),
(688,353,cs),
(654,194,o),
(538,110,o),
(415,110,cs),
(311,110,o),
(238,183,o),
(233,284,c),
(759,284,l),
(774,404,l),
(205,404,ls),
(167,404,o),
(125,379,o),
(114,330,c),
(109,305,l),
(80,108,o),
(221,-10,o),
(390,-10,cs)
);
}
);
width = 779;
},
{
background = {
shapes = (
{
closed = 1;
nodes = (
(50,333,l),
(54,144,o),
(212,-10,o),
(396,-10,cs),
(588,-10,o),
(743,151,o),
(743,350,cs),
(743,549,o),
(588,710,o),
(396,710,cs),
(263,710,o),
(168,662,o),
(92,570,cs),
(84,560,o),
(86,547,o),
(97,540,c),
(106,535,o),
(116,537,o),
(123,545,cs),
(192,629,o),
(273,670,o),
(396,670,cs),
(558,670,o),
(691,539,o),
(702,372,c),
(702,369,o),
(719,367,o),
(715,367,cs),
(70,367,ls),
(59,367,o),
(50,360,o),
(50,350,cs)
);
},
{
closed = 1;
nodes = (
(717,327,ls),
(720,327,o),
(702,325,o),
(702,322,c),
(688,158,o),
(556,30,o),
(396,30,cs),
(237,30,o),
(97,163,o),
(89,327,c)
);
}
);
};
layerId = "254266E2-2911-423D-9D37-8CC6105656EE";
shapes = (
{
closed = 1;
nodes = (
(555,-10,o),
(735,151,o),
(777,350,c),
(820,549,o),
(708,710,o),
(527,710,c),
(402,710,o),
(304,662,o),
(213,570,c),
(203,560,o),
(202,547,o),
(212,540,c),
(220,535,o),
(230,537,o),
(239,545,c),
(320,629,o),
(404,670,o),
(518,670,c),
(669,670,o),
(772,527,o),
(734,347,c),
(695,167,o),
(533,30,o),
(382,30,c),
(233,30,o),
(134,163,o),
(161,327,c),
(747,327,l),
(753,367,l),
(148,367,l),
(137,367,o),
(127,360,o),
(124,350,c),
(121,333,l),
(85,144,o),
(200,-10,o),
(374,-10,c)
);
}
);
width = 751;
}
);
metricLeft = O;
metricRight = O;
unicode = 399;
},
{
glyphname = F;
kernRight = F;
lastChange = "2024-08-16 15:27:50 +0000";
layers = (
{
anchors = (
{
name = bottom;
pos = (281,0);
},
{
name = center;
pos = (172,186);
},
{
name = top;
pos = (430,700);
}
);
layerId = "8816CCA3-DDF9-4C51-BD56-64EE3675A105";
shapes = (
{
closed = 1;
nodes = (
(171,0,o),
(206,26,o),
(213,61,c),
(264,303,l),
(253,294,l),
(478,294,l),
(513,294,o),
(545,321,o),
(551,350,c),
(559,385,o),
(538,409,o),
(503,409,c),
(280,409,l),
(284,396,l),
(327,597,l),
(315,585,l),
(585,585,l),
(620,585,o),
(652,612,o),
(658,641,c),
(666,676,o),
(645,700,o),
(610,700,c),
(285,700,l),
(250,700,o),
(218,674,o),
(211,639,c),
(88,61,l),
(81,26,o),
(100,0,o),
(138,0,c)
);
}
);
width = 562;
},
{
anchors = (
{
name = bottom;
pos = (284,0);
},
{
name = center;
pos = (172,214);
},
{
name = top;
pos = (433,700);
}
);
layerId = "254266E2-2911-423D-9D37-8CC6105656EE";
shapes = (
{
closed = 1;
nodes = (
(132,0,o),
(142,9,o),
(144,20,cs),
(215,352,l),
(207,344,l),
(525,344,ls),
(536,344,o),
(547,352,o),
(549,364,cs),
(552,375,o),
(545,384,o),
(534,384,cs),
(218,384,l),
(220,376,l),
(281,664,l),
(277,660,l),
(637,660,ls),
(648,660,o),
(659,668,o),
(662,680,cs),
(664,691,o),
(657,700,o),
(646,700,cs),
(269,700,ls),
(258,700,o),
(247,691,o),
(245,680,cs),
(104,20,ls),
(102,9,o),
(108,0,o),
(120,0,cs)
);
}
);
width = 567;
}
);
metricLeft = H;
note = F;
unicode = 70;
},
{
glyphname = G;
kernLeft = C;
kernRight = G;
lastChange = "2024-10-10 15:31:13 +0000";
layers = (
{
anchors = (
{
name = bottom;
pos = (401,0);
},
{
name = top;
pos = (536,700);
}
);
layerId = "8816CCA3-DDF9-4C51-BD56-64EE3675A105";
shapes = (
{
closed = 1;
nodes = (
(482,-10,o),
(561,13,o),
(630,51,c),
(648,61,o),
(667,78,o),
(672,105,c),
(717,317,l),
(725,352,o),
(705,378,o),
(670,378,c),
(506,378,l),
(471,378,o),
(440,353,o),
(433,318,c),
(425,283,o),
(446,258,o),
(481,258,c),
(592,258,l),
(578,273,l),
(542,102,l),
(557,132,l),
(523,118,o),
(467,110,o),
(427,110,c),
(297,110,o),
(216,219,o),
(243,350,c),
(271,482,o),
(399,590,o),
(529,590,c),
(570,590,o),
(606,581,o),
(637,567,c),
(646,562,o),
(657,559,o),
(668,559,c),
(701,559,o),
(731,589,o),
(738,621,c),
(742,640,o),
(736,659,o),
(718,670,c),
(675,697,o),
(617,710,o),
(555,710,c),
(353,710,o),
(156,549,o),
(113,350,c),
(71,151,o),
(200,-10,o),
(402,-10,c)
);
}
);
width = 695;
},
{
anchors = (
{
name = bottom;
pos = (387,0);
},
{
name = top;
pos = (525,700);
}
);
layerId = "254266E2-2911-423D-9D37-8CC6105656EE";
shapes = (
{
closed = 1;
nodes = (
(483,-10,o),
(563,16,o),
(631,56,c),
(639,61,o),
(643,69,o),
(644,74,c),
(697,325,l),
(699,336,o),
(693,345,o),
(681,345,c),
(481,345,l),
(470,345,o),
(460,337,o),
(457,325,c),
(455,314,o),
(462,305,o),
(473,305,c),
(667,305,l),
(656,318,l),
(602,68,l),
(610,86,l),
(553,53,o),
(480,30,o),
(414,30,c),
(228,30,o),
(126,164,o),
(165,350,c),
(205,536,o),
(364,670,o),
(550,670,c),
(615,670,o),
(670,651,o),
(714,623,c),
(718,621,o),
(722,619,o),
(727,619,c),
(734,619,o),
(747,625,o),
(750,639,c),
(751,646,o),
(750,652,o),
(744,656,c),
(698,692,o),
(632,710,o),
(559,710,c),
(351,710,o),
(168,559,o),
(123,350,c),
(79,141,o),
(198,-10,o),
(406,-10,c)
);
}
);
width = 693;
}
);
metricLeft = O;
note = G;
unicode = 71;
},
{
glyphname = H;
lastChange = "2024-08-16 15:27:50 +0000";
layers = (
{
anchors = (
{
name = bottom;
pos = (360,0);
},
{
name = center;
pos = (434,350);
},
{
name = top;
pos = (509,700);
},
{
name = topleft;
pos = (169,700);
}
);
background = {
shapes = (
{
closed = 1;
nodes = (
(539,419,ls),
(539,413,o),
(535,409,o),
(529,409,cs),
(210,409,ls),
(204,409,o),
(200,412,o),
(200,419,cs),
(200,639,ls),
(200,674,o),
(175,700,o),
(140,700,cs),
(105,700,o),
(80,674,o),
(80,639,cs),
(80,61,ls),
(80,26,o),
(105,0,o),
(140,0,cs),
(175,0,o),
(200,26,o),
(200,61,cs),
(200,279,ls),
(200,286,o),
(204,289,o),
(210,289,cs),
(529,289,ls),
(536,289,o),
(539,286,o),
(539,279,cs),
(539,61,ls),
(539,26,o),
(564,0,o),
(599,0,cs),
(634,0,o),
(659,26,o),
(659,61,cs),
(659,639,ls),
(659,674,o),
(634,700,o),
(599,700,cs),
(564,700,o),
(539,674,o),
(539,639,cs)
);
}
);
};
layerId = "8816CCA3-DDF9-4C51-BD56-64EE3675A105";
shapes = (
{
closed = 1;
nodes = (
(250,700,o),
(218,674,o),
(211,639,cs),
(88,61,ls),
(81,26,o),
(100,0,o),
(137,0,cs),
(170,0,o),
(206,26,o),
(213,61,cs),
(336,639,ls),
(343,674,o),
(320,700,o),
(288,700,cs)
);
},
{
closed = 1;
nodes = (
(698,700,o),
(662,674,o),
(655,639,cs),
(532,61,ls),
(525,26,o),
(548,0,o),
(580,0,cs),
(618,0,o),
(650,26,o),
(657,61,cs),
(780,639,ls),
(787,674,o),
(768,700,o),
(731,700,cs)
);
},
{
closed = 1;
nodes = (
(198,294,l),
(644,294,l),
(669,409,l),
(223,409,l)
);
}
);
width = 719;
},
{
anchors = (
{
name = bottom;
pos = (360,0);
},
{
name = center;
pos = (434,350);
},
{
name = top;
pos = (509,700);
},
{
name = topleft;
pos = (169,700);
}
);
background = {
shapes = (
{
closed = 1;
nodes = (
(587,700,o),
(579,691,o),
(579,680,cs),
(579,385,ls),
(579,382,o),
(577,380,o),
(574,380,cs),
(145,380,ls),
(142,380,o),
(140,382,o),
(140,385,cs),
(140,680,ls),
(140,691,o),
(132,700,o),
(120,700,cs),
(109,700,o),
(100,691,o),
(100,680,cs),
(100,20,ls),
(100,9,o),
(108,0,o),
(120,0,cs),
(131,0,o),
(140,9,o),
(140,20,cs),
(140,335,ls),
(140,338,o),
(142,340,o),
(145,340,cs),
(574,340,ls),
(577,340,o),
(579,338,o),
(579,335,cs),
(579,20,ls),
(579,9,o),
(587,0,o),
(599,0,cs),
(610,0,o),
(619,9,o),
(619,20,cs),
(619,680,ls),
(619,691,o),
(611,700,o),
(599,700,cs)
);
}
);
};
layerId = "254266E2-2911-423D-9D37-8CC6105656EE";
shapes = (
{
closed = 1;
nodes = (
(258,700,o),
(247,691,o),
(244,679,cs),
(104,21,ls),
(102,9,o),
(108,0,o),
(121,0,cs),
(132,0,o),
(143,9,o),
(146,21,c),
(286,679,ls),
(289,691,o),
(282,700,o),
(270,700,cs)
);
},
{
closed = 1;
nodes = (
(736,700,o),
(725,691,o),
(722,679,cs),
(582,21,ls),
(580,9,o),
(586,0,o),
(599,0,cs),
(610,0,o),
(621,9,o),
(624,21,c),
(764,679,ls),
(767,691,o),
(760,700,o),
(748,700,cs)
);
},
{
closed = 1;
nodes = (
(182,340,l),
(671,340,l),
(682,380,l),
(197,380,l)
);
}
);
width = 720;
}
);
note = H;
unicode = 72;
},
{
glyphname = Hbar;
lastChange = "2024-08-16 15:27:50 +0000";
layers = (
{
layerId = "8816CCA3-DDF9-4C51-BD56-64EE3675A105";
shapes = (
{
closed = 1;
nodes = (
(818,490,ls),
(848,490,o),
(874,511,o),
(880,539,cs),
(886,569,o),
(869,590,o),
(839,590,cs),
(216,590,ls),
(186,590,o),
(161,569,o),
(155,541,cs),
(149,511,o),
(165,490,o),
(195,490,cs)
);
},
{
pos = (43,0);
ref = H;
}
);
width = 805;
},
{
layerId = "254266E2-2911-423D-9D37-8CC6105656EE";
shapes = (
{
closed = 1;
nodes = (
(825,489,ls),
(836,489,o),
(847,497,o),
(849,509,cs),
(852,520,o),
(844,529,o),
(833,529,cs),
(232,529,ls),
(221,529,o),
(211,521,o),
(208,509,cs),
(206,498,o),
(213,489,o),
(224,489,cs)
);
},
{
pos = (60,0);
ref = H;
}
);
width = 841;
}
);
note = Hbar;
unicode = 294;
},
{
glyphname = I;
lastChange = "2024-08-16 15:27:50 +0000";
layers = (
{
anchors = (
{
name = bottom;
pos = (140,0);
},
{
name = ogonek;
pos = (254,10);
},
{
name = top;
pos = (289,700);
},
{
name = topleft;
pos = (169,700);
}
);
layerId = "8816CCA3-DDF9-4C51-BD56-64EE3675A105";
shapes = (
{
closed = 1;
nodes = (
(336,639,l),
(343,674,o),
(320,700,o),
(288,700,c),
(250,700,o),
(218,674,o),
(211,639,c),
(88,61,l),
(81,26,o),
(100,0,o),
(137,0,c),
(170,0,o),
(206,26,o),
(213,61,c)
);
}
);
width = 275;
},
{
anchors = (
{
name = bottom;
pos = (121,0);
},
{
name = ogonek;
pos = (220,10);
},
{
name = top;
pos = (270,700);
},
{
name = topleft;
pos = (169,700);
}
);
layerId = "254266E2-2911-423D-9D37-8CC6105656EE";
shapes = (
{
closed = 1;
nodes = (
(286,679,ls),
(289,691,o),
(282,700,o),
(270,700,cs),
(258,700,o),
(247,691,o),
(244,679,cs),
(104,21,ls),
(102,9,o),
(108,0,o),
(121,0,cs),
(132,0,o),
(143,9,o),
(146,21,c)
);
}
);
width = 242;
}
);
metricLeft = H;
metricRight = H;
note = I;
unicode = 73;
},
{
glyphname = IJ;
lastChange = "2024-10-10 15:31:13 +0000";
layers = (
{
anchors = (
{
name = bottom;
pos = (-65,239);
},
{
name = ogonek;
pos = (-2,10);
},
{
name = top;
pos = (33,700);
},
{
name = topleft;
pos = (-87,700);
}
);
layerId = "8816CCA3-DDF9-4C51-BD56-64EE3675A105";
shapes = (
{
closed = 1;
nodes = (
(331,639,l),
(338,674,o),
(315,700,o),
(283,700,c),
(245,700,o),
(213,674,o),
(206,639,c),
(137,315,l),
(130,280,o),
(149,254,o),
(186,254,c),
(219,254,o),
(255,280,o),
(262,315,c)
);
},
{
pos = (24,0);
ref = J;
}
);
width = 576;
},
{
anchors = (
{
name = bottom;
pos = (112,0);
},
{
name = ogonek;
pos = (211,10);
},
{
name = top;
pos = (607,700);
},
{
name = topleft;
pos = (261,700);
}
);
layerId = "254266E2-2911-423D-9D37-8CC6105656EE";
shapes = (
{
closed = 1;
nodes = (
(277,679,ls),
(280,691,o),
(273,700,o),
(261,700,cs),
(249,700,o),
(238,691,o),
(235,679,cs),
(144,251,ls),
(142,239,o),
(148,230,o),
(161,230,cs),
(172,230,o),
(183,239,o),
(186,251,c)
);
},
{
ref = J;
}
);
width = 578;
}
);
metricLeft = H;
metricRight = H;
note = IJ;
unicode = 306;
},
{
glyphname = Iogonek;
lastChange = "2024-08-16 15:27:50 +0000";
layers = (
{
anchors = (
{
name = _ogonek;
pos = (129,10);
},
{
name = bottom;
pos = (140,0);
},
{
name = ogonek;
pos = (254,10);
},
{
name = top;
pos = (289,700);
},
{
name = topleft;
pos = (169,700);
}
);
layerId = "8816CCA3-DDF9-4C51-BD56-64EE3675A105";
shapes = (
{
closed = 1;
nodes = (
(110,-207,o),
(175,-165,o),
(182,-132,cs),
(188,-102,o),
(172,-84,o),
(148,-84,cs),
(117,-84,o),
(102,-114,o),
(80,-114,cs),
(64,-114,o),
(51,-102,o),
(56,-78,cs),
(63,-45,o),
(115,-19,o),
(179,-2,cs),
(201,4,o),
(209,21,o),
(212,35,c),
(341,639,l),
(348,674,o),
(327,700,o),
(290,700,c),
(252,700,o),
(218,674,o),
(211,639,c),
(82,34,l),
(139,0,l),
(170,63,l),
(87,42,o),
(-24,8,o),
(-47,-100,cs),
(-63,-174,o),
(-16,-207,o),
(50,-207,cs)
);
}
);
width = 280;
},
{
anchors = (
{
name = _ogonek;
pos = (218,10);
},
{
name = bottom;
pos = (122,0);
},
{
name = ogonek;
pos = (218,10);
},
{
name = top;
pos = (268,700);
},
{
name = topleft;
pos = (167,700);
}
);
layerId = "254266E2-2911-423D-9D37-8CC6105656EE";
shapes = (
{
closed = 1;
nodes = (
(105,-185,o),
(140,-163,o),
(146,-136,c),
(148,-129,o),
(144,-122,o),
(135,-122,c),
(118,-122,o),
(115,-148,o),
(77,-148,c),
(49,-148,o),
(26,-125,o),
(35,-85,c),
(45,-39,o),
(90,-6,o),
(121,6,cs),
(138,12,o),
(143,16,o),
(146,30,cs),
(284,679,ls),
(287,691,o),
(280,700,o),
(268,700,cs),
(256,700,o),
(245,691,o),
(242,679,cs),
(102,21,l),
(108,19,l),
(104,23,l),
(59,9,o),
(8,-31,o),
(-5,-93,c),
(-17,-149,o),
(20,-185,o),
(64,-185,c)
);
}
);
width = 220;
}
);
note = Iogonek;
unicode = 302;
},
{
glyphname = J;
kernLeft = J;
kernRight = J;
lastChange = "2024-08-16 15:27:50 +0000";
layers = (
{
anchors = (
{
name = bottom;
pos = (276,0);
},
{
name = top;
pos = (564,700);
}
);
layerId = "8816CCA3-DDF9-4C51-BD56-64EE3675A105";
shapes = (
{
closed = 1;
nodes = (
(370,-10,o),
(498,97,o),
(524,219,c),
(613,639,l),
(620,674,o),
(601,700,o),
(564,700,c),
(531,700,o),
(495,674,o),
(488,639,c),
(399,219,l),
(386,161,o),
(321,110,o),
(261,110,c),
(228,110,o),
(205,119,o),
(184,143,c),
(172,159,o),
(155,173,o),
(135,173,cs),
(110,173,o),
(71,147,o),
(64,114,cs),
(62,103,o),
(63,91,o),
(69,79,c),
(98,22,o),
(160,-10,o),
(236,-10,c)
);
}
);
width = 552;
},
{
anchors = (
{
name = bottom;
pos = (289,0);
},
{
name = top;
pos = (607,700);
}
);
layerId = "254266E2-2911-423D-9D37-8CC6105656EE";
shapes = (
{
closed = 1;
nodes = (
(391,-10,o),
(494,74,o),
(520,199,cs),
(623,680,ls),
(625,691,o),
(619,700,o),
(607,700,cs),
(594,700,o),
(583,691,o),
(581,680,cs),
(478,199,ls),
(456,96,o),
(376,30,o),
(273,30,cs),
(203,30,o),
(155,77,o),
(145,144,c),
(142,152,o),
(138,157,o),
(128,157,cs),
(119,157,o),
(107,151,o),
(105,139,cs),
(104,136,o),
(104,132,o),
(104,129,c),
(120,48,o),
(178,-10,o),
(265,-10,cs)
);
}
);
width = 578;
}
);
metricRight = H;
note = J;
unicode = 74;
},
{
glyphname = K;
kernRight = K;
lastChange = "2024-08-16 15:27:50 +0000";
layers = (
{
anchors = (
{
name = bottom;
pos = (328,0);
},
{
name = top;
pos = (477,700);
}
);
layerId = "8816CCA3-DDF9-4C51-BD56-64EE3675A105";
shapes = (
{
closed = 1;
nodes = (
(592,0,o),
(631,26,o),
(638,63,cs),
(641,76,o),
(639,93,o),
(633,104,cs),
(461,420,l),
(351,327,l),
(517,23,ls),
(525,8,o),
(540,0,o),
(557,0,cs)
);
},
{
closed = 1;
nodes = (
(702,705,o),
(682,696,o),
(665,682,cs),
(256,349,l),
(231,206,l),
(735,607,ls),
(750,619,o),
(758,632,o),
(761,646,cs),
(767,672,o),
(751,705,o),
(719,705,cs)
);
},
{
closed = 1;
nodes = (
(175,0,o),
(206,26,o),
(213,61,c),
(336,639,l),
(343,674,o),
(325,700,o),
(288,700,c),
(250,700,o),
(218,674,o),
(211,639,c),
(88,61,l),
(81,26,o),
(100,0,o),
(137,0,c)
);
}
);
width = 655;
},
{
anchors = (
{
name = bottom;
pos = (300,0);
},
{
name = top;
pos = (490,700);
}
);
layerId = "254266E2-2911-423D-9D37-8CC6105656EE";
shapes = (
{
closed = 1;
nodes = (
(613,-5,o),
(629,0,o),
(632,16,cs),
(633,21,o),
(633,26,o),
(630,30,cs),
(409,408,l),
(370,376,l),
(592,2,ls),
(595,-3,o),
(600,-5,o),
(605,-5,cs)
);
},
{
closed = 1;
nodes = (
(731,696,o),
(726,694,o),
(721,690,cs),
(185,271,l),
(184,228,l),
(743,662,ls),
(748,666,o),
(751,671,o),
(752,676,cs),
(754,687,o),
(747,696,o),
(736,696,cs)
);
},
{
closed = 1;
nodes = (
(132,0,o),
(143,9,o),
(146,21,c),
(286,679,ls),
(289,691,o),
(282,700,o),
(270,700,cs),
(258,700,o),
(247,691,o),
(244,679,cs),
(104,21,ls),
(102,9,o),
(108,0,o),
(121,0,cs)
);
}
);
width = 682;
}
);
metricLeft = H;
note = K;
unicode = 75;
},
{
glyphname = L;
kernRight = L;
lastChange = "2024-08-16 15:27:50 +0000";
layers = (
{
anchors = (
{
name = bottom;
pos = (281,0);
},
{
name = center;
pos = (355,350);
},
{
name = top;
pos = (280,700);
},
{
name = topright;
pos = (691,700);
}
);
layerId = "8816CCA3-DDF9-4C51-BD56-64EE3675A105";
shapes = (
{
closed = 1;
nodes = (
(203,117,l),
(221,100,l),
(336,639,l),
(343,674,o),
(320,700,o),
(288,700,c),
(250,700,o),
(218,674,o),
(211,639,c),
(88,61,l),
(81,26,o),
(101,0,o),
(136,0,c),
(461,0,l),
(496,0,o),
(527,24,o),
(534,58,c),
(542,93,o),
(521,117,o),
(486,117,c)
);
}
);
width = 562;
},
{
anchors = (
{
name = bottom;
pos = (286,0);
},
{
name = center;
pos = (335,350);
},
{
name = top;
pos = (260,700);
},
{
name = topright;
pos = (651,700);
}
);
layerId = "254266E2-2911-423D-9D37-8CC6105656EE";
shapes = (
{
closed = 1;
nodes = (
(133,40,l),
(147,22,l),
(287,680,l),
(289,691,o),
(282,700,o),
(270,700,c),
(258,700,o),
(247,691,o),
(245,680,c),
(104,20,l),
(102,9,o),
(108,0,o),
(120,0,c),
(487,0,l),
(498,0,o),
(509,8,o),
(511,20,c),
(514,31,o),
(507,40,o),
(496,40,c)
);
}
);
width = 522;
}
);
metricLeft = H;
note = L;
unicode = 76;
},
{
glyphname = Lcaron;
lastChange = "2024-10-10 15:31:13 +0000";
layers = (
{
layerId = "8816CCA3-DDF9-4C51-BD56-64EE3675A105";
shapes = (
{
closed = 1;
nodes = (
(231,120,ls),
(225,120,o),
(221,124,o),
(223,130,cs),
(331,639,ls),
(338,674,o),
(319,700,o),
(285,700,cs),
(250,700,o),
(218,674,o),
(211,639,cs),
(88,61,ls),
(81,26,o),
(101,0,o),
(136,0,cs),
(461,0,ls),
(496,0,o),
(527,25,o),
(535,59,cs),
(542,94,o),
(522,120,o),
(487,120,cs)
);
},
{
pos = (303,-1);
ref = caronalt;
}
);
width = 672;
},
{
layerId = "254266E2-2911-423D-9D37-8CC6105656EE";
shapes = (
{
closed = 1;
nodes = (
(154,40,ls),
(151,40,o),
(149,42,o),
(150,45,cs),
(285,680,ls),
(287,691,o),
(281,700,o),
(269,700,cs),
(258,700,o),
(247,691,o),
(245,680,cs),
(104,20,ls),
(102,9,o),
(108,0,o),
(120,0,cs),
(487,0,ls),
(498,0,o),
(509,8,o),
(511,20,cs),
(514,31,o),
(507,40,o),
(496,40,cs)
);
},
{
pos = (382,40);
ref = caronalt;
}
);
width = 659;
}
);
metricLeft = H;
metricRight = L;
note = Lcaron;
unicode = 317;
},
{
glyphname = Lslash;
lastChange = "2024-08-16 15:27:50 +0000";
layers = (
{
layerId = "8816CCA3-DDF9-4C51-BD56-64EE3675A105";
shapes = (
{
closed = 1;
nodes = (
(150,270,o),
(158,272,o),
(165,275,cs),
(487,405,ls),
(509,414,o),
(525,431,o),
(529,450,cs),
(533,471,o),
(523,502,o),
(490,502,cs),
(483,502,o),
(474,500,o),
(467,497,cs),
(145,367,ls),
(122,358,o),
(107,341,o),
(104,323,cs),
(99,302,o),
(108,270,o),
(143,270,cs)
);
},
{
closed = 1;
nodes = (
(402,639,ls),
(409,674,o),
(390,700,o),
(356,700,cs),
(321,700,o),
(289,674,o),
(282,639,cs),
(159,61,ls),
(152,26,o),
(172,0,o),
(207,0,cs),
(532,0,ls),
(567,0,o),
(598,25,o),
(606,59,cs),
(613,94,o),
(593,120,o),
(558,120,cs),
(286,120,l),
(289,109,l)
);
}
);
width = 633;
},
{
layerId = "254266E2-2911-423D-9D37-8CC6105656EE";
shapes = (
{
closed = 1;
nodes = (
(145,348,o),
(149,348,o),
(152,350,cs),
(371,438,ls),
(381,442,o),
(386,447,o),
(388,457,cs),
(390,464,o),
(388,477,o),
(374,477,cs),
(371,477,o),
(367,476,o),
(363,474,cs),
(144,386,ls),
(135,382,o),
(130,377,o),
(128,367,cs),
(126,356,o),
(130,348,o),
(142,348,cs)
);
},
{
closed = 1;
nodes = (
(324,680,ls),
(326,691,o),
(320,700,o),
(308,700,cs),
(297,700,o),
(286,691,o),
(284,680,cs),
(143,20,ls),
(141,9,o),
(147,0,o),
(159,0,cs),
(526,0,ls),
(537,0,o),
(548,8,o),
(550,20,cs),
(553,31,o),
(546,40,o),
(535,40,cs),
(181,40,l),
(186,32,l)
);
}
);
width = 561;
}
);
metricRight = L;
note = Lslash;
unicode = 321;
},
{
glyphname = M;
lastChange = "2024-10-10 15:31:04 +0000";
layers = (
{
anchors = (
{
name = bottom;
pos = (411,0);
},
{
name = top;
pos = (560,700);
}
);
layerId = "8816CCA3-DDF9-4C51-BD56-64EE3675A105";
shapes = (
{
closed = 1;
nodes = (
(253,701,o),
(219,673,o),
(212,640,c),
(89,61,l),
(82,26,o),
(99,0,o),
(133,0,c),
(168,0,o),
(197,26,o),
(204,61,c),
(312,567,l),
(274,514,l),
(401,212,l),
(410,197,o),
(426,185,o),
(445,186,c),
(463,185,o),
(485,197,o),
(500,212,c),
(770,523,l),
(733,532,l),
(633,61,l),
(626,26,o),
(645,0,o),
(683,0,c),
(720,0,o),
(751,26,o),
(758,61,c),
(881,640,l),
(889,676,o),
(864,701,o),
(832,701,c),
(813,701,o),
(792,690,o),
(777,674,cs),
(449,302,l),
(499,300,l),
(335,674,ls),
(328,690,o),
(307,701,o),
(288,701,c)
);
}
);
width = 821;
},
{
anchors = (
{
name = bottom;
pos = (415,0);
},
{
name = top;
pos = (564,700);
}
);
layerId = "254266E2-2911-423D-9D37-8CC6105656EE";
shapes = (
{
closed = 1;
nodes = (
(256,700,o),
(246,689,o),
(245,680,c),
(104,20,l),
(102,9,o),
(108,0,o),
(120,0,c),
(131,0,o),
(142,9,o),
(144,20,c),
(277,643,l),
(261,643,l),
(447,228,ls),
(449,223,o),
(455,220,o),
(462,220,cs),
(468,220,o),
(473,223,o),
(477,228,cs),
(833,635,l),
(822,635,l),
(691,20,l),
(689,9,o),
(696,0,o),
(708,0,c),
(719,0,o),
(731,9,o),
(733,20,c),
(874,680,l),
(876,690,o),
(871,699,o),
(860,700,c),
(853,701,o),
(845,698,o),
(839,691,c),
(461,264,l),
(481,264,l),
(285,691,l),
(281,698,o),
(274,700,o),
(268,700,c)
);
}
);
width = 829;
}
);
metricLeft = H;
metricRight = H;
note = M;
unicode = 77;
},
{
glyphname = N;
lastChange = "2024-10-10 15:31:04 +0000";
layers = (
{
anchors = (
{
name = bottom;
pos = (370,0);
},
{
name = top;
pos = (519,700);
}
);
layerId = "8816CCA3-DDF9-4C51-BD56-64EE3675A105";
shapes = (
{
closed = 1;
nodes = (
(724,700,o),
(697,676,o),
(690,644,c),
(591,180,l),
(611,192,l),
(333,678,l),
(326,692,o),
(306,700,o),
(287,700,c),
(252,700,o),
(220,674,o),
(213,639,c),
(89,56,l),
(82,24,o),
(99,0,o),
(131,0,c),
(164,0,o),
(192,24,o),
(199,56,c),
(300,532,l),
(271,516,l),
(558,17,l),
(564,6,o),
(584,0,o),
(601,0,c),
(636,0,o),
(668,26,o),
(675,61,c),
(799,644,l),
(806,676,o),
(789,700,o),
(757,700,c)
);
}
);
width = 739;
},
{
anchors = (
{
name = bottom;
pos = (363,0);
},
{
name = top;
pos = (512,700);
}
);
layerId = "254266E2-2911-423D-9D37-8CC6105656EE";
shapes = (
{
closed = 1;
nodes = (
(745,700,o),
(734,692,o),
(732,681,c),
(596,43,l),
(608,63,l),
(280,693,l),
(277,698,o),
(272,700,o),
(267,700,c),
(259,700,o),
(248,695,o),
(245,680,c),
(104,17,l),
(102,8,o),
(107,0,o),
(119,0,c),
(129,0,o),
(140,8,o),
(142,17,c),
(276,649,l),
(260,642,l),
(590,8,l),
(593,3,o),
(598,0,o),
(604,0,c),
(615,0,o),
(626,7,o),
(630,22,c),
(770,681,l),
(772,692,o),
(767,700,o),
(755,700,c)
);
}
);
width = 725;
}
);
metricLeft = H;
metricRight = H;
note = N;
unicode = 78;
},
{
glyphname = Nhookleft;
lastChange = "2024-08-16 15:27:50 +0000";
layers = (
{
anchors = (
{
name = bottom;
pos = (300,0);
},
{
name = top;
pos = (449,700);
}
);
layerId = "8816CCA3-DDF9-4C51-BD56-64EE3675A105";
shapes = (
{
closed = 1;
nodes = (
(2,-197,o),
(148,-195,o),
(187,-10,c),
(302,532,l),
(269,516,l),
(556,17,l),
(562,6,o),
(582,0,o),
(599,0,c),
(634,0,o),
(666,26,o),
(673,61,c),
(797,644,l),
(804,676,o),
(785,700,o),
(753,700,c),
(720,700,o),
(690,676,o),
(683,644,c),
(584,180,l),
(609,192,l),
(331,678,l),
(324,692,o),
(304,700,o),
(285,700,c),
(250,700,o),
(218,674,o),
(211,639,c),
(80,25,l),
(71,-20,o),
(60,-60,o),
(10,-74,cs),
(-27,-84,o),
(-46,-99,o),
(-55,-140,cs),
(-61,-171,o),
(-44,-196,o),
(-12,-197,cs)
);
}
);
width = 735;
},
{
anchors = (
{
name = bottom;
pos = (363,0);
},
{
name = top;
pos = (512,700);
}
);
layerId = "254266E2-2911-423D-9D37-8CC6105656EE";
shapes = (
{
closed = 1;
nodes = (
(27,-188,o),
(107,-145,o),
(126,-58,c),
(276,649,l),
(260,642,l),
(590,8,l),
(593,3,o),
(598,0,o),
(604,0,c),
(615,0,o),
(626,7,o),
(630,22,c),
(770,681,l),
(772,692,o),
(767,700,o),
(755,700,c),
(745,700,o),
(734,692,o),
(732,681,c),
(596,43,l),
(608,63,l),
(280,693,l),
(277,698,o),
(272,700,o),
(267,700,c),
(259,700,o),
(248,695,o),
(245,680,c),
(88,-58,l),
(74,-124,o),
(12,-152,o),
(-34,-159,c),
(-44,-160,o),
(-53,-167,o),
(-56,-180,cs),
(-59,-191,o),
(-52,-200,o),
(-38,-198,cs)
);
}
);
width = 725;
}
);
unicode = 413;
},
{
glyphname = Eng;
lastChange = "2024-10-10 15:31:13 +0000";
layers = (
{
layerId = "8816CCA3-DDF9-4C51-BD56-64EE3675A105";
shapes = (
{
closed = 1;
nodes = (
(547,-201,o),
(647,-156,o),
(677,-14,cs),
(691,50,l),
(816,639,ls),
(823,674,o),
(804,700,o),
(770,700,cs),
(735,700,o),
(703,674,o),
(696,639,cs),
(600,187,l),
(619,195,l),
(329,674,l),
(319,692,o),
(305,700,o),
(285,700,cs),
(250,700,o),
(218,674,o),
(211,639,cs),
(88,61,ls),
(81,26,o),
(100,0,o),
(134,0,cs),
(169,0,o),
(201,26,o),
(208,61,cs),
(301,498,l),
(285,499,l),
(572,28,l),
(571,54,l),
(556,-19,ls),
(545,-69,o),
(520,-89,o),
(478,-90,cs),
(444,-91,o),
(414,-116,o),
(408,-148,cs),
(401,-180,o),
(423,-200,o),
(460,-200,cs)
);
}
);
width = 755;
},
{
layerId = "254266E2-2911-423D-9D37-8CC6105656EE";
shapes = (
{
closed = 1;
nodes = (
(568,-200,o),
(619,-123,o),
(636,-44,c),
(654,42,l),
(789,676,ls),
(791,687,o),
(785,696,o),
(773,696,cs),
(762,696,o),
(751,687,o),
(749,676,cs),
(618,63,l),
(626,71,l),
(284,691,l),
(283,693,o),
(277,700,o),
(270,700,cs),
(259,700,o),
(247,693,o),
(245,680,cs),
(104,20,ls),
(102,9,o),
(108,0,o),
(120,0,cs),
(131,0,o),
(142,9,o),
(144,20,cs),
(273,626,l),
(271,623,l),
(613,4,l),
(614,37,l),
(596,-44,ls),
(580,-111,o),
(550,-160,o),
(435,-160,cs),
(423,-160,o),
(412,-168,o),
(410,-180,cs),
(407,-192,o),
(414,-200,o),
(427,-200,cs)
);
}
);
width = 744;
}
);
metricLeft = N;
metricRight = N;
note = Eng;
unicode = 330;
},
{
glyphname = O;
kernLeft = C;
kernRight = D;
lastChange = "2024-08-16 15:27:50 +0000";
layers = (
{
anchors = (
{
name = bottom;
pos = (380,0);
},
{
name = center;
pos = (454,350);
},
{
name = ogonek;
pos = (685,10);
},
{
name = top;
pos = (529,700);
},
{
name = topleft;
pos = (169,700);
},
{
name = topright;
pos = (530,710);
}
);
layerId = "8816CCA3-DDF9-4C51-BD56-64EE3675A105";
shapes = (
{
closed = 1;
nodes = (
(836,549,o),
(728,710,o),
(530,710,c),
(332,710,o),
(157,549,o),
(114,350,c),
(72,151,o),
(179,-10,o),
(377,-10,c),
(575,-10,o),
(751,151,o),
(793,350,c)
);
},
{
closed = 1;
nodes = (
(635,216,o),
(525,110,o),
(402,110,c),
(278,110,o),
(216,215,o),
(244,350,c),
(273,485,o),
(380,590,o),
(504,590,c),
(627,590,o),
(692,484,o),
(663,350,c)
);
}
);
width = 759;
},
{
anchors = (
{
name = bottom;
pos = (384,0);
},
{
name = center;
pos = (458,350);
},
{
name = ogonek;
pos = (693,10);
},
{
name = top;
pos = (533,700);
},
{
name = topleft;
pos = (169,700);
},
{
name = topright;
pos = (539,697);
}
);
layerId = "254266E2-2911-423D-9D37-8CC6105656EE";
shapes = (
{
closed = 1;
nodes = (
(838,563,o),
(730,710,o),
(535,710,c),
(340,710,o),
(170,563,o),
(124,350,c),
(79,137,o),
(187,-10,o),
(382,-10,c),
(577,-10,o),
(747,137,o),
(792,350,c)
);
},
{
closed = 1;
nodes = (
(710,159,o),
(561,30,o),
(390,30,c),
(219,30,o),
(126,159,o),
(166,350,c),
(207,541,o),
(355,670,o),
(526,670,c),
(697,670,o),
(791,541,o),
(750,350,c)
);
}
);
width = 768;
}
);
note = O;
unicode = 79;
},
{
glyphname = Oogonek;
lastChange = "2024-08-16 15:27:50 +0000";
layers = (
{
layerId = "8816CCA3-DDF9-4C51-BD56-64EE3675A105";
shapes = (
{
closed = 1;
nodes = (
(424,-207,o),
(489,-165,o),
(496,-132,cs),
(502,-102,o),
(486,-84,o),
(462,-84,cs),
(452,-84,o),
(433,-86,o),
(417,-102,cs),
(410,-110,o),
(402,-114,o),
(394,-114,cs),
(378,-114,o),
(365,-102,o),
(370,-78,cs),
(377,-45,o),
(408,-13,o),
(495,10,c),
(487,75,l),
(403,54,o),
(290,8,o),
(267,-100,cs),
(251,-174,o),
(298,-207,o),
(364,-207,cs)
);
},
{
ref = O;
}
);
width = 759;
},
{
layerId = "254266E2-2911-423D-9D37-8CC6105656EE";
shapes = (
{
closed = 1;
nodes = (
(431,-185,o),
(466,-163,o),
(472,-136,c),
(474,-129,o),
(470,-122,o),
(461,-122,c),
(450,-122,o),
(441,-131,o),
(431,-141,cs),
(425,-148,o),
(416,-148,o),
(403,-148,c),
(375,-148,o),
(352,-125,o),
(361,-85,c),
(371,-39,o),
(431,3,o),
(471,1,c),
(431,17,l),
(386,3,o),
(334,-31,o),
(321,-93,c),
(309,-149,o),
(346,-185,o),
(390,-185,c)
);
},
{
ref = O;
}
);
width = 768;
}
);
unicode = 490;
},
{
glyphname = Oslash;
lastChange = "2024-08-16 15:27:50 +0000";
layers = (
{
anchors = (
{
name = bottom;
pos = (370,0);
},
{
name = top;
pos = (519,700);
}
);
layerId = "8816CCA3-DDF9-4C51-BD56-64EE3675A105";
shapes = (
{
closed = 1;
nodes = (
(103,-31,o),
(119,-24,o),
(132,-11,cs),
(826,667,ls),
(836,677,o),
(842,689,o),
(845,700,cs),
(851,728,o),
(830,749,o),
(804,749,cs),
(790,749,o),
(775,743,o),
(761,730,cs),
(67,52,ls),
(57,42,o),
(50,30,o),
(48,19,cs),
(42,-9,o),
(63,-31,o),
(88,-31,cs)
);
},
{
ref = O;
}
);
width = 739;
},
{
anchors = (
{
name = bottom;
pos = (361,0);
},
{
name = top;
pos = (510,700);
}
);
layerId = "254266E2-2911-423D-9D37-8CC6105656EE";
shapes = (
{
closed = 1;
nodes = (
(75,-20,o),
(82,-12,o),
(90,-4,cs),
(813,687,ls),
(819,693,o),
(821,698,o),
(822,702,cs),
(824,712,o),
(817,718,o),
(809,718,cs),
(799,718,o),
(794,717,o),
(784,707,cs),
(56,10,l),
(52,6,o),
(49,1,o),
(48,-3,cs),
(46,-12,o),
(52,-20,o),
(62,-20,cs)
);
},
{
ref = O;
}
);
width = 721;
}
);
note = Oslash;
unicode = 216;
},
{
glyphname = OE;
lastChange = "2024-10-10 15:31:13 +0000";
layers = (
{
anchors = (
{
name = bottom;
pos = (486,0);
},
{
name = top;
pos = (635,700);
}
);
layerId = "8816CCA3-DDF9-4C51-BD56-64EE3675A105";
shapes = (
{
closed = 1;
nodes = (
(622,120,l),
(626,111,l),
(667,304,l),
(650,284,l),
(883,284,ls),
(918,284,o),
(950,309,o),
(957,343,cs),
(964,378,o),
(944,404,o),
(909,404,cs),
(676,404,l),
(685,389,l),
(730,601,l),
(714,580,l),
(991,580,ls),
(1026,580,o),
(1058,605,o),
(1065,639,cs),
(1072,674,o),
(1052,700,o),
(1017,700,cs),
(491,700,ls),
(298,700,o),
(157,543,o),
(116,350,cs),
(75,156,o),
(149,0,o),
(342,0,cs),
(868,0,ls),
(903,0,o),
(934,25,o),
(942,59,cs),
(949,94,o),
(929,120,o),
(894,120,cs)
);
},
{
closed = 1;
nodes = (
(368,120,ls),
(242,120,o),
(209,223,o),
(236,350,cs),
(263,476,o),
(339,580,o),
(465,580,cs),
(618,580,l),
(609,598,l),
(504,104,l),
(523,120,l)
);
}
);
width = 968;
},
{
anchors = (
{
name = bottom;
pos = (496,0);
},
{
name = top;
pos = (645,700);
}
);
layerId = "254266E2-2911-423D-9D37-8CC6105656EE";
shapes = (
{
closed = 1;
nodes = (
(586,40,l),
(590,33,l),
(658,352,l),
(651,346,l),
(959,346,ls),
(970,346,o),
(980,354,o),
(983,366,cs),
(985,377,o),
(978,386,o),
(967,386,cs),
(659,386,l),
(663,375,l),
(724,664,l),
(718,660,l),
(1070,660,ls),
(1081,660,o),
(1092,668,o),
(1095,680,cs),
(1097,691,o),
(1090,700,o),
(1079,700,cs),
(491,700,ls),
(290,700,o),
(165,532,o),
(126,350,cs),
(86,158,o),
(141,0,o),
(342,0,cs),
(930,0,ls),
(941,0,o),
(952,8,o),
(954,20,cs),
(957,31,o),
(950,40,o),
(939,40,cs)
);
},
{
closed = 1;
nodes = (
(361,40,ls),
(178,40,o),
(130,177,o),
(166,350,cs),
(201,513,o),
(309,660,o),
(492,660,cs),
(686,660,l),
(684,666,l),
(548,30,l),
(558,40,l)
);
}
);
width = 1000;
}
);
metricLeft = O;
metricRight = E;
note = OE;
unicode = 338;
},
{
glyphname = P;
kernRight = P;
lastChange = "2024-10-10 15:31:04 +0000";
layers = (
{
anchors = (
{
name = bottom;
pos = (303,0);
},
{
name = center;
pos = (173,157);
},
{
name = top;
pos = (452,700);
}
);
layerId = "8816CCA3-DDF9-4C51-BD56-64EE3675A105";
shapes = (
{
closed = 1;
nodes = (
(286,700,ls),
(251,700,o),
(219,674,o),
(212,639,cs),
(89,61,ls),
(82,26,o),
(99,0,o),
(133,0,cs),
(168,0,o),
(197,26,o),
(204,61,cs),
(248,268,l),
(234,250,l),
(418,250,ls),
(522,250,o),
(639,351,o),
(665,475,cs),
(692,600,o),
(618,700,o),
(514,700,cs)
);
},
{
closed = 1;
nodes = (
(257,364,l),
(265,348,l),
(319,603,l),
(303,585,l),
(489,585,ls),
(527,585,o),
(557,533,o),
(545,475,cs),
(533,418,o),
(480,364,o),
(442,364,cs)
);
}
);
width = 604;
},
{
anchors = (
{
name = bottom;
pos = (297,0);
},
{
name = center;
pos = (161,172);
},
{
name = top;
pos = (446,700);
}
);
layerId = "254266E2-2911-423D-9D37-8CC6105656EE";
shapes = (
{
closed = 1;
nodes = (
(269,700,l),
(258,700,o),
(247,691,o),
(245,680,c),
(104,20,l),
(102,9,o),
(108,0,o),
(121,0,c),
(132,0,o),
(144,9,o),
(146,20,c),
(210,318,l),
(204,311,l),
(426,311,l),
(540,311,o),
(633,396,o),
(657,509,c),
(681,622,o),
(623,700,o),
(509,700,c)
);
},
{
closed = 1;
nodes = (
(213,351,l),
(216,348,l),
(283,665,l),
(279,660,l),
(500,660,l),
(591,660,o),
(635,600,o),
(615,509,c),
(596,418,o),
(526,351,o),
(435,351,c)
);
}
);
width = 594;
}
);
metricLeft = H;
note = P;
unicode = 80;
},
{
glyphname = Thorn;
lastChange = "2024-10-10 15:31:13 +0000";
layers = (
{
anchors = (
{
name = bottom;
pos = (272,0);
},
{
name = top;
pos = (421,700);
}
);
layerId = "8816CCA3-DDF9-4C51-BD56-64EE3675A105";
shapes = (
{
closed = 1;
nodes = (
(339,679,ls),
(347,714,o),
(328,740,o),
(293,740,cs),
(258,740,o),
(227,714,o),
(219,679,cs),
(88,61,ls),
(81,26,o),
(99,0,o),
(134,0,cs),
(169,0,o),
(201,26,o),
(208,61,cs)
);
},
{
closed = 1;
nodes = (
(158,160,l),
(398,160,ls),
(500,160,o),
(618,261,o),
(645,385,cs),
(671,510,o),
(598,610,o),
(494,610,cs),
(266,610,l),
(287,490,l),
(468,490,ls),
(506,490,o),
(537,443,o),
(525,385,cs),
(513,328,o),
(462,280,o),
(424,280,cs),
(244,280,l)
);
}
);
width = 583;
},
{
anchors = (
{
name = bottom;
pos = (262,0);
},
{
name = top;
pos = (411,700);
}
);
layerId = "254266E2-2911-423D-9D37-8CC6105656EE";
shapes = (
{
closed = 1;
nodes = (
(293,720,ls),
(295,731,o),
(289,740,o),
(277,740,cs),
(266,740,o),
(255,731,o),
(253,720,cs),
(104,20,ls),
(102,9,o),
(108,0,o),
(120,0,cs),
(131,0,o),
(142,9,o),
(144,20,cs)
);
},
{
closed = 1;
nodes = (
(169,198,l),
(391,198,l),
(505,198,o),
(598,283,o),
(622,396,c),
(646,509,o),
(588,587,o),
(474,587,c),
(234,587,l),
(244,547,l),
(465,547,l),
(556,547,o),
(600,487,o),
(580,396,c),
(561,305,o),
(491,238,o),
(400,238,c),
(178,238,l)
);
}
);
width = 559;
}
);
metricLeft = H;
metricRight = P;
note = Thorn;
unicode = 222;
},
{
glyphname = Q;
kernLeft = C;
kernRight = D;
lastChange = "2024-08-16 15:27:50 +0000";
layers = (
{
anchors = (
{
name = bottom;
pos = (378,0);
},
{
name = top;
pos = (527,700);
}
);
layerId = "8816CCA3-DDF9-4C51-BD56-64EE3675A105";
shapes = (
{
closed = 1;
nodes = (
(695,-28,o),
(675,-45,o),
(650,-62,cs),
(628,-77,o),
(602,-91,o),
(566,-91,c),
(479,-91,o),
(453,-23,o),
(360,-23,c),
(296,-56,l),
(505,16,l),
(420,38,l),
(197,-39,l),
(173,-47,o),
(156,-64,o),
(151,-91,c),
(144,-121,o),
(164,-151,o),
(197,-151,c),
(245,-151,o),
(257,-125,o),
(295,-125,c),
(375,-125,o),
(370,-200,o),
(535,-200,c),
(610,-200,o),
(749,-148,o),
(762,-86,c),
(768,-56,o),
(745,-28,o),
(717,-28,c)
);
},
{
closed = 1;
nodes = (
(836,549,o),
(728,710,o),
(530,710,c),
(332,710,o),
(157,549,o),
(114,350,c),
(72,151,o),
(179,-10,o),
(377,-10,c),
(575,-10,o),
(751,151,o),
(793,350,c)
);
},
{
closed = 1;
nodes = (
(635,216,o),
(525,110,o),
(402,110,c),
(278,110,o),
(216,215,o),
(244,350,c),
(273,485,o),
(380,590,o),
(504,590,c),
(627,590,o),
(692,484,o),
(663,350,c)
);
}
);
width = 755;
},
{
anchors = (
{
name = bottom;
pos = (391,0);
},
{
name = top;
pos = (540,700);
}
);
layerId = "254266E2-2911-423D-9D37-8CC6105656EE";
shapes = (
{
closed = 1;
nodes = (
(751,-65,o),
(737,-83,o),
(716,-94,cs),
(692,-106,o),
(651,-127,o),
(594,-127,c),
(466,-127,o),
(428,-40,o),
(311,-40,c),
(311,-48,l),
(468,0,l),
(375,-4,l),
(202,-60,l),
(195,-63,o),
(189,-70,o),
(188,-77,c),
(185,-89,o),
(192,-98,o),
(203,-98,c),
(220,-98,o),
(248,-76,o),
(285,-76,c),
(409,-76,o),
(429,-165,o),
(586,-165,c),
(661,-165,o),
(771,-122,o),
(780,-82,c),
(782,-72,o),
(777,-65,o),
(766,-65,cs)
);
},
{
closed = 1;
nodes = (
(838,563,o),
(730,710,o),
(535,710,c),
(340,710,o),
(170,563,o),
(124,350,c),
(79,137,o),
(187,-10,o),
(382,-10,c),
(577,-10,o),
(747,137,o),
(792,350,c)
);
},
{
closed = 1;
nodes = (
(710,159,o),
(561,30,o),
(390,30,c),
(219,30,o),
(126,159,o),
(166,350,c),
(207,541,o),
(355,670,o),
(526,670,c),
(697,670,o),
(791,541,o),
(750,350,c)
);
}
);
width = 782;
}
);
metricLeft = O;
note = Q;
unicode = 81;
},
{
glyphname = R;
kernRight = R;
lastChange = "2024-08-16 15:27:50 +0000";
layers = (
{
anchors = (
{
name = bottom;
pos = (344,0);
},
{
name = top;
pos = (493,700);
}
);
layerId = "8816CCA3-DDF9-4C51-BD56-64EE3675A105";
shapes = (
{
closed = 1;
nodes = (
(180,0,o),
(206,26,o),
(213,61,c),
(259,278,l),
(239,255,l),
(441,255,l),
(501,255,o),
(525,223,o),
(516,177,c),
(494,73,o),
(521,30,o),
(552,10,c),
(571,-3,o),
(616,-9,o),
(644,17,c),
(671,42,o),
(670,81,o),
(645,98,c),
(622,112,o),
(632,143,o),
(636,194,c),
(643,247,o),
(625,293,o),
(576,324,c),
(570,301,l),
(643,333,o),
(710,409,o),
(726,485,c),
(753,610,o),
(677,700,o),
(573,700,c),
(285,700,l),
(250,700,o),
(218,674,o),
(211,639,c),
(88,61,l),
(81,26,o),
(110,0,o),
(147,0,c)
);
},
{
closed = 1;
nodes = (
(271,334,l),
(331,617,l),
(312,585,l),
(543,585,l),
(579,585,o),
(608,540,o),
(595,482,c),
(581,413,o),
(531,358,o),
(495,358,c),
(262,358,l)
);
}
);
width = 687;
},
{
anchors = (
{
name = bottom;
pos = (327,0);
},
{
name = top;
pos = (476,700);
}
);
layerId = "254266E2-2911-423D-9D37-8CC6105656EE";
shapes = (
{
closed = 1;
nodes = (
(133,0,o),
(144,9,o),
(146,20,c),
(211,325,l),
(200,313,l),
(443,313,l),
(500,313,o),
(584,294,o),
(558,170,c),
(532,49,o),
(557,19,o),
(582,3,c),
(591,-3,o),
(605,3,o),
(611,15,c),
(616,25,o),
(613,34,o),
(606,39,c),
(589,52,o),
(580,73,o),
(600,170,c),
(624,284,o),
(560,347,o),
(480,347,c),
(524,339,l),
(605,360,o),
(673,427,o),
(692,519,c),
(714,623,o),
(651,700,o),
(533,700,c),
(269,700,l),
(258,700,o),
(247,691,o),
(245,680,c),
(104,20,l),
(102,9,o),
(108,0,o),
(121,0,c)
);
},
{
closed = 1;
nodes = (
(215,342,l),
(284,667,l),
(277,660,l),
(519,660,l),
(618,660,o),
(667,599,o),
(650,518,c),
(629,419,o),
(545,360,o),
(464,353,c),
(207,353,l)
);
}
);
width = 664;
}
);
metricLeft = H;
note = R;
unicode = 82;
},
{
glyphname = S;
kernLeft = S;
kernRight = S;
lastChange = "2024-08-16 15:27:50 +0000";
layers = (
{
anchors = (
{
name = bottom;
pos = (299,0);
},
{
name = top;
pos = (448,700);
}
);
layerId = "8816CCA3-DDF9-4C51-BD56-64EE3675A105";
shapes = (
{
closed = 1;
nodes = (
(433,-10,o),
(572,69,o),
(599,199,c),
(628,335,o),
(558,380,o),
(403,409,cs),
(314,426,o),
(264,449,o),
(277,510,c),
(288,559,o),
(340,595,o),
(427,595,c),
(478,595,o),
(544,566,o),
(572,539,c),
(578,533,o),
(588,530,o),
(597,530,c),
(628,530,o),
(660,558,o),
(666,588,c),
(670,608,o),
(663,627,o),
(648,641,c),
(610,681,o),
(539,710,o),
(452,710,c),
(313,710,o),
(186,635,o),
(158,505,c),
(134,390,o),
(194,322,o),
(334,301,cs),
(444,284,o),
(491,252,o),
(478,192,c),
(467,142,o),
(395,105,o),
(322,105,c),
(249,105,o),
(210,126,o),
(168,168,c),
(159,176,o),
(148,180,o),
(136,180,c),
(103,180,o),
(72,152,o),
(66,122,c),
(62,103,o),
(68,84,o),
(82,69,c),
(137,10,o),
(205,-10,o),
(298,-10,c)
);
}
);
width = 597;
},
{
anchors = (
{
name = bottom;
pos = (275,0);
},
{
name = top;
pos = (424,700);
}
);
layerId = "254266E2-2911-423D-9D37-8CC6105656EE";
shapes = (
{
closed = 1;
nodes = (
(414,-9,o),
(514,72,o),
(534,163,c),
(564,304,o),
(463,340,o),
(369,376,c),
(289,407,o),
(205,444,o),
(225,536,cs),
(243,621,o),
(332,670,o),
(430,670,c),
(502,670,o),
(557,639,o),
(583,592,c),
(586,587,o),
(591,586,o),
(595,586,c),
(607,586,o),
(621,597,o),
(623,607,c),
(624,611,o),
(622,618,o),
(617,628,c),
(587,682,o),
(515,710,o),
(439,710,c),
(303,710,o),
(203,633,o),
(182,535,cs),
(155,407,o),
(249,372,o),
(340,335,c),
(427,300,o),
(511,267,o),
(491,165,c),
(474,83,o),
(387,30,o),
(285,30,c),
(207,30,o),
(140,62,o),
(100,124,c),
(96,131,o),
(91,133,o),
(85,133,c),
(74,133,o),
(61,120,o),
(58,110,c),
(57,102,o),
(59,98,o),
(61,95,c),
(116,26,o),
(177,-11,o),
(281,-10,c)
);
}
);
width = 550;
}
);
note = S;
unicode = 83;
},
{
glyphname = Germandbls;
lastChange = "2024-10-10 15:31:13 +0000";
layers = (
{
layerId = "8816CCA3-DDF9-4C51-BD56-64EE3675A105";
shapes = (
{
closed = 1;
nodes = (
(593,-9,o),
(723,81,o),
(747,192,cs),
(777,333,o),
(689,366,o),
(619,393,cs),
(570,412,o),
(531,437,o),
(540,482,cs),
(553,540,o),
(604,548,o),
(670,564,cs),
(722,577,o),
(768,574,o),
(777,617,cs),
(784,651,o),
(768,675,o),
(730,692,cs),
(690,710,o),
(628,726,o),
(538,726,cs),
(348,726,o),
(201,584,o),
(163,406,cs),
(88,61,ls),
(81,26,o),
(102,0,o),
(139,0,cs),
(177,0,o),
(211,26,o),
(218,61,cs),
(300,439,ls),
(328,566,o),
(433,626,o),
(530,624,c),
(627,626,o),
(649,608,o),
(697,579,c),
(638,639,l),
(547,630,o),
(429,582,o),
(400,446,cs),
(379,348,o),
(435,306,o),
(496,278,cs),
(559,249,o),
(626,234,o),
(613,173,cs),
(604,134,o),
(566,110,o),
(499,110,cs),
(453,110,o),
(409,143,o),
(385,176,cs),
(377,188,o),
(359,193,o),
(348,193,cs),
(313,193,o),
(286,158,o),
(279,128,cs),
(273,101,o),
(283,78,o),
(284,75,c),
(316,19,o),
(406,-11,o),
(478,-10,cs)
);
}
);
width = 709;
},
{
layerId = "254266E2-2911-423D-9D37-8CC6105656EE";
shapes = (
{
closed = 1;
nodes = (
(568,-9,o),
(656,72,o),
(676,163,cs),
(701,281,o),
(635,323,o),
(576,362,cs),
(528,394,o),
(483,424,o),
(498,496,cs),
(512,559,o),
(586,612,o),
(715,626,c),
(727,628,o),
(737,633,o),
(739,645,cs),
(741,654,o),
(738,659,o),
(727,670,c),
(690,703,o),
(620,726,o),
(550,726,cs),
(322,726,o),
(226,583,o),
(198,453,cs),
(105,24,ls),
(102,11,o),
(108,4,o),
(121,4,cs),
(134,4,o),
(142,11,o),
(145,24,cs),
(238,453,ls),
(264,573,o),
(344,688,o),
(542,688,cs),
(605,688,o),
(670,668,o),
(700,633,c),
(707,654,l),
(567,645,o),
(474,582,o),
(455,495,cs),
(435,398,o),
(493,361,o),
(548,322,cs),
(599,287,o),
(647,251,o),
(633,165,c),
(616,83,o),
(534,30,o),
(457,30,cs),
(411,30,o),
(371,57,o),
(348,104,cs),
(345,111,o),
(338,113,o),
(333,113,cs),
(322,113,o),
(308,103,o),
(306,92,cs),
(304,85,o),
(308,78,o),
(309,75,c),
(341,19,o),
(381,-11,o),
(453,-10,cs)
);
}
);
width = 667;
}
);
metricLeft = H;
metricRight = S;
unicode = 7838;
},
{
glyphname = T;
kernLeft = T;
kernRight = T;
lastChange = "2024-08-16 15:27:50 +0000";
layers = (
{
anchors = (
{
name = bottom;
pos = (313,0);
},
{
name = center;
pos = (387,350);
},
{
name = top;
pos = (462,700);
}
);
layerId = "8816CCA3-DDF9-4C51-BD56-64EE3675A105";
shapes = (
{
closed = 1;
nodes = (
(350,0,o),
(384,26,o),
(391,61,cs),
(514,641,l),
(384,641,l),
(261,61,ls),
(254,26,o),
(275,0,o),
(312,0,cs)
);
},
{
closed = 1;
nodes = (
(659,585,ls),
(694,585,o),
(725,607,o),
(732,642,cs),
(740,677,o),
(719,700,o),
(684,700,cs),
(240,700,ls),
(205,700,o),
(174,677,o),
(167,643,cs),
(159,608,o),
(180,585,o),
(215,585,cs)
);
}
);
width = 626;
},
{
anchors = (
{
name = bottom;
pos = (298,0);
},
{
name = center;
pos = (372,350);
},
{
name = top;
pos = (447,700);
}
);
layerId = "254266E2-2911-423D-9D37-8CC6105656EE";
shapes = (
{
closed = 1;
nodes = (
(309,0,o),
(320,9,o),
(322,20,cs),
(462,676,l),
(422,676,l),
(282,20,ls),
(280,9,o),
(286,0,o),
(298,0,cs)
);
},
{
closed = 1;
nodes = (
(682,662,ls),
(693,662,o),
(703,669,o),
(706,681,cs),
(708,692,o),
(701,700,o),
(690,700,cs),
(204,700,ls),
(193,700,o),
(182,692,o),
(180,681,cs),
(177,670,o),
(185,662,o),
(196,662,cs)
);
}
);
width = 596;
}
);
note = T;
unicode = 84;
},
{
glyphname = U;
kernLeft = U;
kernRight = U;
lastChange = "2024-10-10 15:31:13 +0000";
layers = (
{
anchors = (
{
name = bottom;
pos = (314,0);
},
{
name = ogonek;
pos = (597,10);
},
{
name = top;
pos = (463,700);
},
{
name = topright;
pos = (599,713);
}
);
layerId = "8816CCA3-DDF9-4C51-BD56-64EE3675A105";
shapes = (
{
closed = 1;
nodes = (
(647,701,o),
(620,675,o),
(613,640,c),
(536,278,l),
(515,178,o),
(424,115,o),
(338,115,c),
(257,115,o),
(198,178,o),
(219,278,c),
(296,640,l),
(303,675,o),
(280,701,o),
(249,701,c),
(211,701,o),
(179,675,o),
(172,640,c),
(95,278,l),
(60,111,o),
(149,-5,o),
(313,-5,c),
(476,-5,o),
(615,111,o),
(650,278,c),
(727,640,l),
(734,675,o),
(717,701,o),
(682,701,c)
);
}
);
width = 667;
},
{
anchors = (
{
name = bottom;
pos = (315,0);
},
{
name = ogonek;
pos = (602,10);
},
{
name = top;
pos = (464,700);
},
{
name = topright;
pos = (626,697);
}
);
layerId = "254266E2-2911-423D-9D37-8CC6105656EE";
shapes = (
{
closed = 1;
nodes = (
(689,700,o),
(679,691,o),
(677,680,c),
(585,248,l),
(559,128,o),
(440,30,o),
(321,30,c),
(202,30,o),
(126,128,o),
(152,248,c),
(244,680,l),
(246,691,o),
(239,700,o),
(227,700,c),
(214,700,o),
(204,691,o),
(202,680,c),
(110,248,l),
(80,106,o),
(171,-10,o),
(313,-10,c),
(454,-10,o),
(595,106,o),
(625,248,c),
(717,680,l),
(719,691,o),
(713,700,o),
(701,700,c)
);
}
);
width = 672;
}
);
metricLeft = H;
metricRight = H;
note = U;
unicode = 85;
},
{
glyphname = Uogonek;
kernLeft = U;
kernRight = U;
lastChange = "2024-08-16 15:27:50 +0000";
layers = (
{
anchors = (
{
name = _ogonek;
pos = (636,10);
},
{
name = bottom;
pos = (353,0);
},
{
name = ogonek;
pos = (636,10);
},
{
name = top;
pos = (502,700);
},
{
name = topright;
pos = (834,700);
}
);
layerId = "8816CCA3-DDF9-4C51-BD56-64EE3675A105";
shapes = (
{
closed = 1;
nodes = (
(457,-207,o),
(522,-165,o),
(529,-132,cs),
(535,-102,o),
(519,-84,o),
(495,-84,cs),
(485,-84,o),
(466,-86,o),
(450,-102,cs),
(443,-110,o),
(435,-114,o),
(427,-114,cs),
(411,-114,o),
(398,-102,o),
(403,-78,cs),
(410,-45,o),
(453,0,o),
(529,44,cs),
(622,97,o),
(672,199,o),
(689,278,c),
(766,640,l),
(773,675,o),
(756,701,o),
(721,701,c),
(692,701,o),
(659,675,o),
(652,640,c),
(575,278,l),
(554,178,o),
(463,115,o),
(377,115,c),
(296,115,o),
(237,178,o),
(258,278,c),
(335,640,l),
(342,675,o),
(325,701,o),
(288,701,c),
(250,701,o),
(218,675,o),
(211,640,c),
(134,278,l),
(99,111,o),
(188,-5,o),
(352,-5,c),
(365,-5,o),
(379,-4,o),
(392,-4,c),
(524,93,l),
(440,72,o),
(323,8,o),
(300,-100,cs),
(284,-174,o),
(331,-207,o),
(397,-207,cs)
);
}
);
width = 705;
},
{
anchors = (
{
name = _ogonek;
pos = (522,10);
},
{
name = bottom;
pos = (358,0);
},
{
name = ogonek;
pos = (645,10);
},
{
name = top;
pos = (507,700);
},
{
name = topright;
pos = (844,700);
}
);
layerId = "254266E2-2911-423D-9D37-8CC6105656EE";
shapes = (
{
closed = 1;
nodes = (
(431,-185,o),
(466,-163,o),
(472,-136,c),
(474,-129,o),
(469,-122,o),
(460,-122,c),
(450,-122,o),
(444,-128,o),
(436,-138,cs),
(429,-146,o),
(419,-148,o),
(403,-148,c),
(375,-148,o),
(352,-125,o),
(361,-85,c),
(375,-18,o),
(447,6,o),
(483,21,cs),
(576,59,o),
(647,150,o),
(668,248,c),
(760,680,l),
(762,691,o),
(756,700,o),
(744,700,c),
(732,700,o),
(722,691,o),
(720,680,c),
(628,248,l),
(602,128,o),
(487,30,o),
(364,30,c),
(245,30,o),
(169,128,o),
(195,248,c),
(287,680,l),
(289,691,o),
(282,700,o),
(270,700,c),
(257,700,o),
(247,691,o),
(245,680,c),
(153,248,l),
(123,106,o),
(214,-10,o),
(356,-10,c),
(369,-10,o),
(382,-9,o),
(395,-7,c),
(435,19,l),
(390,5,o),
(334,-31,o),
(321,-93,c),
(309,-149,o),
(346,-185,o),
(390,-185,c)
);
}
);
width = 715;
}
);
unicode = 370;
},
{
glyphname = V;
kernLeft = V;
kernRight = V;
lastChange = "2024-08-16 15:27:50 +0000";
layers = (
{
anchors = (
{
name = bottom;
pos = (339,0);
},
{
name = top;
pos = (488,700);
}
);
layerId = "8816CCA3-DDF9-4C51-BD56-64EE3675A105";
shapes = (
{
closed = 1;
nodes = (
(712,702,o),
(688,688,o),
(672,664,c),
(361,148,l),
(397,149,l),
(287,664,l),
(281,689,o),
(263,703,o),
(240,703,cs),
(215,703,o),
(175,682,o),
(167,643,cs),
(165,635,o),
(164,626,o),
(166,618,c),
(290,38,l),
(296,14,o),
(314,1,o),
(336,0,c),
(359,0,o),
(386,12,o),
(403,39,c),
(773,617,l),
(779,626,o),
(783,635,o),
(785,644,cs),
(792,677,o),
(768,702,o),
(735,702,cs)
);
}
);
width = 678;
},
{
anchors = (
{
name = bottom;
pos = (330,0);
},
{
name = top;
pos = (479,700);
}
);
layerId = "254266E2-2911-423D-9D37-8CC6105656EE";
shapes = (
{
closed = 1;
nodes = (
(746,700,o),
(738,695,o),
(732,687,c),
(338,59,l),
(349,58,l),
(222,684,ls),
(220,696,o),
(214,700,o),
(204,700,c),
(194,700,o),
(183,692,o),
(181,681,c),
(180,676,o),
(181,671,o),
(181,669,c),
(314,13,l),
(315,5,o),
(322,0,o),
(330,0,c),
(338,0,o),
(346,5,o),
(352,13,c),
(766,672,l),
(767,675,o),
(769,679,o),
(770,682,c),
(772,692,o),
(767,700,o),
(754,700,c)
);
}
);
width = 660;
}
);
note = V;
unicode = 86;
},
{
glyphname = W;
kernLeft = W;
kernRight = W;
lastChange = "2024-08-16 15:27:50 +0000";
layers = (
{
anchors = (
{
name = bottom;
pos = (472,0);
},
{
name = top;
pos = (621,700);
}
);
layerId = "8816CCA3-DDF9-4C51-BD56-64EE3675A105";
shapes = (
{
closed = 1;
nodes = (
(985,703,o),
(957,689,o),
(944,664,cs),
(686,188,l),
(704,198,l),
(643,524,ls),
(638,548,o),
(621,563,o),
(595,562,c),
(570,563,o),
(545,548,o),
(530,524,cs),
(316,183,l),
(338,182,l),
(281,664,ls),
(278,689,o),
(256,703,o),
(231,703,cs),
(200,703,o),
(160,678,o),
(152,638,cs),
(150,632,o),
(150,625,o),
(150,618,cs),
(224,38,ls),
(227,14,o),
(248,1,o),
(270,0,c),
(293,0,o),
(320,13,o),
(337,39,cs),
(553,369,l),
(546,375,l),
(622,39,ls),
(629,13,o),
(650,0,o),
(673,0,c),
(695,1,o),
(722,14,o),
(735,38,cs),
(1055,618,ls),
(1059,625,o),
(1061,632,o),
(1063,638,cs),
(1071,678,o),
(1041,703,o),
(1011,703,cs)
);
}
);
width = 943;
},
{
anchors = (
{
name = bottom;
pos = (487,0);
},
{
name = top;
pos = (636,700);
}
);
layerId = "254266E2-2911-423D-9D37-8CC6105656EE";
shapes = (
{
closed = 1;
nodes = (
(1056,702,o),
(1049,697,o),
(1044,689,c),
(696,63,l),
(706,64,l),
(619,532,l),
(618,540,o),
(611,545,o),
(603,545,c),
(594,545,o),
(586,540,o),
(581,532,c),
(298,67,l),
(305,68,l),
(222,689,l),
(221,697,o),
(214,702,o),
(206,702,cs),
(196,702,o),
(183,695,o),
(180,682,cs),
(180,680,o),
(180,676,o),
(180,673,c),
(269,13,l),
(269,5,o),
(276,0,o),
(283,0,cs),
(292,0,o),
(301,3,o),
(307,12,c),
(594,484,l),
(586,484,l),
(673,12,l),
(674,3,o),
(681,0,o),
(690,0,cs),
(697,0,o),
(706,5,o),
(711,13,c),
(1080,673,l),
(1082,676,o),
(1084,681,o),
(1084,683,cs),
(1087,696,o),
(1079,702,o),
(1067,702,cs)
);
}
);
width = 974;
}
);
note = W;
unicode = 87;
},
{
glyphname = X;
kernLeft = X;
kernRight = X;
lastChange = "2024-08-16 15:27:50 +0000";
layers = (
{
anchors = (
{
name = bottom;
pos = (328,0);
},
{
name = top;
pos = (477,700);
}
);
layerId = "8816CCA3-DDF9-4C51-BD56-64EE3675A105";
shapes = (
{
closed = 1;
nodes = (
(685,701,o),
(665,690,o),
(648,672,cs),
(421,437,l),
(469,344,l),
(726,609,ls),
(738,621,o),
(745,633,o),
(747,645,cs),
(753,672,o),
(733,701,o),
(703,701,cs)
);
},
{
closed = 1;
nodes = (
(227,703,o),
(191,676,o),
(183,642,cs),
(181,630,o),
(182,617,o),
(189,606,cs),
(504,21,ls),
(514,4,o),
(529,-5,o),
(548,-5,cs),
(575,-5,o),
(613,18,o),
(621,55,cs),
(623,68,o),
(622,81,o),
(617,92,cs),
(301,677,ls),
(292,694,o),
(275,703,o),
(257,703,cs)
);
},
{
closed = 1;
nodes = (
(117,-5,o),
(137,5,o),
(154,23,cs),
(386,267,l),
(340,364,l),
(79,89,ls),
(66,76,o),
(58,62,o),
(55,48,cs),
(49,21,o),
(68,-5,o),
(98,-5,cs)
);
}
);
width = 655;
},
{
anchors = (
{
name = bottom;
pos = (295,0);
},
{
name = top;
pos = (444,700);
}
);
layerId = "254266E2-2911-423D-9D37-8CC6105656EE";
shapes = (
{
closed = 1;
nodes = (
(683,704,o),
(677,701,o),
(672,696,cs),
(374,379,l),
(388,345,l),
(697,674,ls),
(701,678,o),
(704,684,o),
(705,688,cs),
(707,698,o),
(700,704,o),
(689,704,cs)
);
},
{
closed = 1;
nodes = (
(188,703,o),
(178,695,o),
(175,683,cs),
(174,679,o),
(174,675,o),
(177,671,cs),
(523,5,ls),
(526,-1,o),
(531,-3,o),
(537,-3,cs),
(548,-3,o),
(560,5,o),
(563,17,cs),
(563,21,o),
(562,25,o),
(560,29,cs),
(215,695,ls),
(212,701,o),
(205,703,o),
(199,703,cs)
);
},
{
closed = 1;
nodes = (
(55,-3,o),
(61,-1,o),
(66,5,cs),
(363,319,l),
(350,353,l),
(42,27,ls),
(38,22,o),
(35,18,o),
(34,14,cs),
(32,7,o),
(36,-3,o),
(49,-3,cs)
);
}
);
width = 589;
}
);
note = X;
unicode = 88;
},
{
glyphname = Y;
kernLeft = Y;
kernRight = Y;
lastChange = "2024-08-16 15:27:50 +0000";
layers = (
{
anchors = (
{
name = bottom;
pos = (303,-1);
},
{
name = top;
pos = (447,700);
},
{
name = topleft;
pos = (169,700);
}
);
layerId = "8816CCA3-DDF9-4C51-BD56-64EE3675A105";
shapes = (
{
closed = 1;
nodes = (
(652,703,o),
(632,693,o),
(614,673,cs),
(382,414,l),
(409,410,l),
(273,675,ls),
(264,694,o),
(248,703,o),
(230,703,cs),
(201,703,o),
(161,678,o),
(153,642,cs),
(150,628,o),
(152,612,o),
(161,595,cs),
(316,308,l),
(315,340,l),
(256,61,l),
(249,26,o),
(270,0,o),
(303,0,c),
(334,0,o),
(367,26,o),
(374,61,c),
(435,348,l),
(402,279,l),
(698,604,ls),
(709,616,o),
(715,629,o),
(717,641,cs),
(725,677,o),
(701,703,o),
(670,703,cs)
);
}
);
width = 596;
},
{
anchors = (
{
name = bottom;
pos = (274,0);
},
{
name = top;
pos = (423,700);
},
{
name = topleft;
pos = (169,700);
}
);
layerId = "254266E2-2911-423D-9D37-8CC6105656EE";
shapes = (
{
closed = 1;
nodes = (
(650,704,o),
(643,701,o),
(638,695,c),
(354,394,l),
(363,392,l),
(206,695,l),
(203,701,o),
(197,704,o),
(191,704,cs),
(181,704,o),
(168,695,o),
(166,685,cs),
(165,680,o),
(165,676,o),
(167,672,c),
(333,351,l),
(332,372,l),
(257,20,l),
(255,9,o),
(261,0,o),
(274,0,c),
(286,0,o),
(297,9,o),
(299,20,c),
(376,379,l),
(360,350,l),
(666,672,l),
(669,676,o),
(672,680,o),
(673,685,cs),
(674,692,o),
(670,704,o),
(657,704,cs)
);
}
);
width = 547;
}
);
note = Y;
unicode = 89;
},
{
glyphname = Z;
kernLeft = Z;
kernRight = Z;
lastChange = "2024-08-16 15:27:50 +0000";
layers = (
{
anchors = (
{
name = bottom;
pos = (324,0);
},
{
name = top;
pos = (473,700);
}
);
layerId = "8816CCA3-DDF9-4C51-BD56-64EE3675A105";
shapes = (
{
closed = 1;
nodes = (
(288,700,ls),
(253,700,o),
(222,677,o),
(215,643,cs),
(207,608,o),
(228,585,o),
(263,585,cs),
(566,585,l),
(559,591,l),
(70,97,ls),
(58,85,o),
(50,72,o),
(48,59,cs),
(41,29,o),
(64,0,o),
(99,0,cs),
(538,0,ls),
(573,0,o),
(604,24,o),
(611,58,cs),
(619,93,o),
(597,115,o),
(562,115,cs),
(228,115,l),
(240,111,l),
(727,603,ls),
(739,615,o),
(746,628,o),
(749,641,cs),
(757,677,o),
(726,700,o),
(697,700,cs)
);
}
);
width = 648;
},
{
anchors = (
{
name = bottom;
pos = (322,0);
},
{
name = top;
pos = (471,700);
}
);
layerId = "254266E2-2911-423D-9D37-8CC6105656EE";
shapes = (
{
closed = 1;
nodes = (
(249,700,l),
(238,700,o),
(227,692,o),
(225,681,c),
(223,671,o),
(230,662,o),
(241,662,c),
(686,662,l),
(681,666,l),
(71,33,l),
(67,29,o),
(65,25,o),
(64,21,cs),
(62,11,o),
(67,0,o),
(80,0,c),
(572,0,l),
(583,0,o),
(594,8,o),
(596,19,c),
(598,28,o),
(591,38,o),
(580,38,c),
(120,38,l),
(117,28,l),
(731,668,l),
(735,672,o),
(737,676,o),
(738,680,cs),
(739,689,o),
(736,700,o),
(719,700,c)
);
}
);
width = 643;
}
);
note = Z;
unicode = 90;
},
{
glyphname = a;
kernLeft = a;
kernRight = a;
lastChange = "2024-10-10 15:31:13 +0000";
layers = (
{
anchors = (
{
name = bottom;
pos = (313,0);
},
{
name = ogonek;
pos = (558,0);
},
{
name = top;
pos = (412,515);
}
);
layerId = "8816CCA3-DDF9-4C51-BD56-64EE3675A105";
shapes = (
{
closed = 1;
nodes = (
(580,545,o),
(549,519,o),
(542,484,c),
(526,411,l),
(565,424,l),
(573,462,o),
(508,545,o),
(394,545,c),
(259,545,o),
(128,431,o),
(93,267,c),
(58,104,o),
(141,-10,o),
(280,-10,c),
(380,-10,o),
(475,67,o),
(482,101,c),
(462,110,l),
(452,61,l),
(445,26,o),
(464,0,o),
(499,0,c),
(534,0,o),
(565,26,o),
(572,61,c),
(662,484,l),
(670,520,o),
(650,545,o),
(615,545,c)
);
},
{
closed = 1;
nodes = (
(231,100,o),
(188,172,o),
(208,267,c),
(228,362,o),
(302,435,o),
(389,435,c),
(477,435,o),
(521,362,o),
(501,267,c),
(481,172,o),
(406,100,o),
(318,100,c)
);
}
);
width = 650;
},
{
anchors = (
{
name = bottom;
pos = (278,0);
},
{
name = ogonek;
pos = (537,10);
},
{
name = top;
pos = (394,499);
}
);
background = {
shapes = (
{
closed = 1;
nodes = (
(455,515,o),
(447,506,o),
(447,495,cs),
(447,414,ls),
(447,409,o),
(444,408,o),
(441,412,c),
(395,480,o),
(320,525,o),
(235,525,cs),
(96,525,o),
(-17,406,o),
(-17,258,cs),
(-17,110,o),
(96,-10,o),
(235,-10,cs),
(320,-10,o),
(395,35,o),
(441,104,c),
(444,108,o),
(447,107,o),
(447,102,cs),
(447,20,ls),
(447,9,o),
(455,0,o),
(467,0,cs),
(478,0,o),
(487,9,o),
(487,20,cs),
(487,495,ls),
(487,506,o),
(479,515,o),
(467,515,cs)
);
},
{
closed = 1;
nodes = (
(119,30,o),
(23,132,o),
(23,258,cs),
(23,384,o),
(119,485,o),
(235,485,cs),
(351,485,o),
(447,384,o),
(447,258,cs),
(447,132,o),
(351,30,o),
(235,30,cs)
);
}
);
};
layerId = "254266E2-2911-423D-9D37-8CC6105656EE";
shapes = (
{
closed = 1;
nodes = (
(586,499,o),
(576,489,o),
(574,479,c),
(543,334,l),
(554,309,l),
(579,427,o),
(504,515,o),
(389,515,c),
(257,515,o),
(134,406,o),
(102,255,c),
(70,104,o),
(144,-10,o),
(278,-10,c),
(395,-10,o),
(507,89,o),
(525,175,c),
(506,162,l),
(476,20,l),
(474,9,o),
(480,0,o),
(492,0,c),
(503,0,o),
(514,9,o),
(516,20,c),
(614,479,l),
(616,490,o),
(610,499,o),
(598,499,c)
);
},
{
closed = 1;
nodes = (
(175,28,o),
(115,125,o),
(142,255,c),
(170,385,o),
(272,477,o),
(383,477,c),
(495,477,o),
(557,379,o),
(530,255,c),
(503,125,o),
(400,28,o),
(288,28,c)
);
}
);
width = 622;
}
);
metricLeft = o;
metricRight = n;
note = a;
unicode = 97;
},
{
glyphname = aogonek;
kernLeft = a;
kernRight = a;
lastChange = "2024-10-10 15:31:04 +0000";
layers = (
{
anchors = (
{
name = _ogonek;
pos = (558,0);
},
{
name = bottom;
pos = (313,0);
},
{
name = ogonek;
pos = (558,0);
},
{
name = top;
pos = (422,515);
}
);
layerId = "8816CCA3-DDF9-4C51-BD56-64EE3675A105";
shapes = (
{
closed = 1;
nodes = (
(231,100,o),
(188,172,o),
(208,267,c),
(228,362,o),
(302,435,o),
(389,435,c),
(477,435,o),
(521,362,o),
(501,267,c),
(481,172,o),
(406,100,o),
(318,100,c)
);
},
{
closed = 1;
nodes = (
(461,-217,o),
(526,-175,o),
(533,-142,cs),
(539,-112,o),
(523,-94,o),
(499,-94,cs),
(489,-94,o),
(470,-96,o),
(454,-112,cs),
(446,-120,o),
(439,-124,o),
(431,-124,cs),
(415,-124,o),
(402,-112,o),
(407,-88,cs),
(414,-55,o),
(466,-29,o),
(529,-12,cs),
(552,-6,o),
(561,11,o),
(564,25,c),
(662,484,l),
(670,520,o),
(650,545,o),
(615,545,c),
(580,545,o),
(549,519,o),
(542,484,c),
(526,411,l),
(565,424,l),
(573,462,o),
(508,545,o),
(394,545,c),
(259,545,o),
(128,431,o),
(93,267,c),
(58,104,o),
(141,-10,o),
(280,-10,c),
(380,-10,o),
(475,67,o),
(482,101,c),
(462,110,l),
(439,-2,l),
(521,53,l),
(438,32,o),
(327,-2,o),
(304,-110,cs),
(288,-184,o),
(335,-217,o),
(401,-217,cs)
);
}
);
width = 624;
},
{
anchors = (
{
name = _ogonek;
pos = (569,10);
},
{
name = bottom;
pos = (298,0);
},
{
name = ogonek;
pos = (537,10);
},
{
name = top;
pos = (404,499);
}
);
layerId = "254266E2-2911-423D-9D37-8CC6105656EE";
shapes = (
{
closed = 1;
nodes = (
(175,28,o),
(115,125,o),
(142,255,c),
(170,385,o),
(272,477,o),
(383,477,c),
(495,477,o),
(557,379,o),
(530,255,c),
(503,125,o),
(400,28,o),
(288,28,c)
);
},
{
closed = 1;
nodes = (
(478,-185,o),
(513,-163,o),
(519,-136,c),
(521,-129,o),
(517,-122,o),
(508,-122,c),
(498,-122,o),
(492,-129,o),
(484,-136,cs),
(475,-146,o),
(465,-148,o),
(450,-148,c),
(422,-148,o),
(399,-125,o),
(408,-85,c),
(415,-51,o),
(448,-19,o),
(482,-8,cs),
(507,0,o),
(514,10,o),
(516,20,c),
(614,479,l),
(616,490,o),
(610,499,o),
(598,499,c),
(586,499,o),
(576,489,o),
(574,479,c),
(543,334,l),
(554,309,l),
(579,427,o),
(504,515,o),
(389,515,c),
(257,515,o),
(134,406,o),
(102,255,c),
(70,104,o),
(144,-10,o),
(278,-10,c),
(395,-10,o),
(507,89,o),
(525,175,c),
(506,162,l),
(474,9,l),
(478,17,l),
(433,3,o),
(381,-31,o),
(368,-93,c),
(356,-149,o),
(393,-185,o),
(437,-185,c)
);
}
);
width = 593;
}
);
metricLeft = a;
note = aogonek;
unicode = 261;
},
{
glyphname = ae;
lastChange = "2024-10-10 15:31:13 +0000";
layers = (
{
anchors = (
{
name = bottom;
pos = (434,0);
},
{
name = ogonek;
pos = (878,10);
},
{
name = top;
pos = (543,515);
}
);
layerId = "8816CCA3-DDF9-4C51-BD56-64EE3675A105";
shapes = (
{
closed = 1;
nodes = (
(290,545,o),
(212,487,o),
(160,436,cs),
(146,422,o),
(140,408,o),
(137,395,cs),
(131,366,o),
(152,347,o),
(178,347,cs),
(195,347,o),
(212,355,o),
(227,368,c),
(267,406,o),
(303,435,o),
(374,435,c),
(415,435,o),
(480,426,o),
(464,351,c),
(444,260,l),
(561,267,l),
(586,388,l),
(612,509,o),
(500,545,o),
(401,545,c)
);
},
{
closed = 1;
nodes = (
(346,-10,o),
(437,57,o),
(475,100,c),
(439,181,l),
(414,146,o),
(360,98,o),
(271,98,c),
(234,98,o),
(200,115,o),
(209,156,c),
(216,188,o),
(235,226,o),
(307,226,c),
(886,226,l),
(918,226,o),
(950,248,o),
(959,280,c),
(989,424,o),
(897,545,o),
(762,545,c),
(630,545,o),
(482,439,o),
(444,260,c),
(412,106,o),
(493,-10,o),
(664,-10,c),
(730,-10,o),
(804,16,o),
(846,45,c),
(868,60,o),
(880,77,o),
(884,94,cs),
(890,120,o),
(873,144,o),
(844,144,cs),
(833,144,o),
(821,141,o),
(808,135,c),
(783,123,o),
(754,100,o),
(681,100,c),
(601,100,o),
(538,159,o),
(561,268,c),
(589,398,o),
(658,435,o),
(738,435,c),
(800,435,o),
(849,390,o),
(842,333,c),
(836,308,l),
(858,326,l),
(340,326,l),
(185,326,o),
(111,258,o),
(89,154,c),
(64,39,o),
(154,-10,o),
(244,-10,c)
);
}
);
width = 934;
},
{
anchors = (
{
name = bottom;
pos = (428,0);
},
{
name = ogonek;
pos = (862,10);
},
{
name = top;
pos = (588,515);
}
);
background = {
shapes = (
{
closed = 1;
nodes = (
(445,480,ls),
(445,491,o),
(437,500,o),
(425,500,cs),
(413,500,o),
(405,491,o),
(405,480,cs),
(405,400,ls),
(405,395,o),
(402,394,o),
(399,398,c),
(356,460,o),
(287,500,o),
(209,500,cs),
(79,500,o),
(-26,388,o),
(-26,250,cs),
(-26,112,o),
(79,0,o),
(209,0,cs),
(287,0,o),
(356,40,o),
(399,102,c),
(402,106,o),
(405,105,o),
(405,100,cs),
(405,20,ls),
(405,9,o),
(413,0,o),
(425,0,cs),
(436,0,o),
(445,9,o),
(445,20,cs),
(445,102,ls),
(445,107,o),
(448,108,o),
(451,104,cs),
(496,41,o),
(569,0,o),
(656,0,cs),
(735,0,o),
(812,38,o),
(858,98,c),
(865,108,o),
(862,121,o),
(852,127,c),
(851,128,l),
(841,134,o),
(830,131,o),
(823,122,c),
(788,72,o),
(724,40,o),
(656,40,cs),
(545,40,o),
(461,118,o),
(447,221,c),
(446,224,o),
(448,226,o),
(451,226,cs),
(867,226,ls),
(878,226,o),
(887,235,o),
(887,247,c),
(882,404,o),
(777,500,o),
(646,500,cs),
(566,500,o),
(495,459,o),
(451,397,cs),
(448,393,o),
(445,394,o),
(445,399,cs)
);
},
{
closed = 1;
nodes = (
(103,40,o),
(14,134,o),
(14,250,cs),
(14,366,o),
(103,460,o),
(209,460,cs),
(316,460,o),
(405,366,o),
(405,250,cs),
(405,134,o),
(316,40,o),
(209,40,cs)
);
},
{
closed = 1;
nodes = (
(450,266,ls),
(447,266,o),
(445,268,o),
(445,271,c),
(456,378,o),
(543,460,o),
(646,460,cs),
(747,460,o),
(834,380,o),
(846,271,c),
(846,268,o),
(844,266,o),
(841,266,cs)
);
}
);
};
layerId = "254266E2-2911-423D-9D37-8CC6105656EE";
shapes = (
{
closed = 1;
nodes = (
(318,515,o),
(227,459,o),
(174,405,c),
(170,401,o),
(168,397,o),
(168,393,c),
(166,384,o),
(171,375,o),
(181,375,c),
(188,375,o),
(193,378,o),
(200,384,c),
(239,429,o),
(322,477,o),
(389,477,c),
(447,477,o),
(509,458,o),
(491,370,c),
(465,251,l),
(502,252,l),
(530,388,l),
(551,485,o),
(481,515,o),
(397,515,c)
);
},
{
closed = 1;
nodes = (
(340,-10,o),
(426,70,o),
(475,125,c),
(459,157,l),
(424,106,o),
(318,28,o),
(230,28,c),
(179,28,o),
(123,63,o),
(140,140,c),
(156,218,o),
(251,266,o),
(401,266,c),
(898,266,l),
(909,266,o),
(920,276,o),
(922,287,c),
(950,443,o),
(857,515,o),
(744,515,c),
(628,515,o),
(498,417,o),
(462,250,c),
(429,92,o),
(513,-10,o),
(663,-10,c),
(742,-10,o),
(819,36,o),
(871,90,c),
(875,94,o),
(877,98,o),
(878,102,c),
(880,111,o),
(874,120,o),
(865,120,c),
(858,120,o),
(852,117,o),
(846,111,c),
(806,66,o),
(738,28,o),
(671,28,c),
(529,28,o),
(476,131,o),
(502,253,c),
(534,403,o),
(655,475,o),
(736,475,c),
(821,475,o),
(898,419,o),
(887,313,c),
(883,295,l),
(895,304,l),
(407,304,l),
(229,304,o),
(121,239,o),
(99,136,c),
(78,39,o),
(148,-10,o),
(218,-10,c)
);
}
);
width = 909;
}
);
metricLeft = a;
metricRight = e;
note = ae;
unicode = 230;
},
{
glyphname = b;
kernLeft = b;
kernRight = b;
lastChange = "2024-10-10 15:31:04 +0000";
layers = (
{
anchors = (
{
name = bottom;
pos = (315,0);
},
{
name = top;
pos = (424,515);
}
);
layerId = "8816CCA3-DDF9-4C51-BD56-64EE3675A105";
shapes = (
{
closed = 1;
nodes = (
(367,545,o),
(270,468,o),
(263,434,c),
(278,425,l),
(332,679,l),
(340,714,o),
(320,740,o),
(285,740,c),
(250,740,o),
(220,714,o),
(212,679,c),
(79,51,l),
(71,15,o),
(91,-10,o),
(126,-10,c),
(161,-10,o),
(191,16,o),
(199,51,c),
(214,124,l),
(181,111,l),
(173,73,o),
(239,-10,o),
(347,-10,c),
(482,-10,o),
(613,104,o),
(648,268,c),
(683,431,o),
(600,545,o),
(461,545,c)
);
},
{
closed = 1;
nodes = (
(509,435,o),
(553,363,o),
(533,268,c),
(513,173,o),
(438,100,o),
(351,100,c),
(263,100,o),
(220,173,o),
(240,268,c),
(260,363,o),
(334,435,o),
(422,435,c)
);
}
);
width = 627;
},
{
anchors = (
{
name = bottom;
pos = (298,0);
},
{
name = top;
pos = (404,499);
}
);
layerId = "254266E2-2911-423D-9D37-8CC6105656EE";
shapes = (
{
closed = 1;
nodes = (
(335,515,o),
(245,462,o),
(187,364,c),
(199,357,l),
(276,719,l),
(278,730,o),
(272,739,o),
(260,739,c),
(248,739,o),
(238,730,o),
(236,719,c),
(87,20,l),
(85,9,o),
(92,0,o),
(103,0,c),
(115,0,o),
(125,9,o),
(127,20,c),
(154,147,l),
(138,133,l),
(162,45,o),
(224,-10,o),
(313,-10,c),
(445,-10,o),
(569,105,o),
(601,255,c),
(633,406,o),
(557,515,o),
(424,515,c)
);
},
{
closed = 1;
nodes = (
(525,477,o),
(589,384,o),
(561,255,c),
(534,126,o),
(430,28,o),
(319,28,c),
(205,28,o),
(146,125,o),
(173,255,c),
(201,385,o),
(300,477,o),
(414,477,c)
);
}
);
width = 595;
}
);
metricLeft = n;
metricRight = o;
note = b;
unicode = 98;
},
{
glyphname = c;
kernLeft = c;
kernRight = c;
lastChange = "2024-10-10 15:31:04 +0000";
layers = (
{
anchors = (
{
name = bottom;
pos = (259,0);
},
{
name = top;
pos = (408,515);
}
);
layerId = "8816CCA3-DDF9-4C51-BD56-64EE3675A105";
shapes = (
{
closed = 1;
nodes = (
(261,545,o),
(128,431,o),
(93,267,c),
(59,110,o),
(134,-10,o),
(292,-10,c),
(397,-10,o),
(501,31,o),
(511,81,cs),
(518,113,o),
(504,138,o),
(469,138,c),
(439,138,o),
(427,122,o),
(406,112,cs),
(388,104,o),
(363,100,o),
(330,100,c),
(240,100,o),
(192,171,o),
(213,267,c),
(233,364,o),
(306,435,o),
(408,435,cs),
(421,435,o),
(454,430,o),
(467,422,cs),
(486,409,o),
(492,393,o),
(525,393,c),
(555,393,o),
(577,421,o),
(583,448,c),
(596,507,o),
(528,545,o),
(415,545,c)
);
}
);
width = 516;
},
{
anchors = (
{
name = bottom;
pos = (257,0);
},
{
name = top;
pos = (403,499);
}
);
layerId = "254266E2-2911-423D-9D37-8CC6105656EE";
shapes = (
{
closed = 1;
nodes = (
(257,515,o),
(131,392,o),
(102,253,c),
(70,102,o),
(147,-10,o),
(294,-10,c),
(402,-10,o),
(483,46,o),
(488,71,c),
(490,82,o),
(485,89,o),
(475,89,c),
(460,89,o),
(451,71,o),
(420,55,c),
(394,42,o),
(365,28,o),
(305,28,c),
(180,28,o),
(114,124,o),
(142,253,c),
(168,378,o),
(284,477,o),
(400,477,c),
(449,477,o),
(482,469,o),
(499,460,c),
(526,445,o),
(521,424,o),
(544,424,c),
(555,424,o),
(565,434,o),
(567,444,c),
(575,480,o),
(498,515,o),
(409,515,c)
);
}
);
width = 513;
}
);
metricLeft = o;
note = c;
unicode = 99;
},
{
glyphname = d;
kernLeft = c;
kernRight = d;
lastChange = "2024-10-10 15:31:14 +0000";
layers = (
{
anchors = (
{
name = bottom;
pos = (313,0);
},
{
name = center;
pos = (607,614);
},
{
name = top;
pos = (422,515);
},
{
name = topright;
pos = (713,515);
}
);
background = {
shapes = (
{
closed = 1;
nodes = (
(449,740,o),
(424,714,o),
(424,679,c),
(424,456,l),
(424,451,o),
(421,450,o),
(419,454,c),
(402,495,o),
(343,545,o),
(267,545,c),
(112,545,o),
(1,431,o),
(1,267,c),
(1,104,o),
(112,-10,o),
(267,-10,c),
(343,-10,o),
(402,30,o),
(419,62,c),
(421,66,o),
(424,65,o),
(424,61,c),
(424,26,o),
(449,0,o),
(484,0,c),
(519,0,o),
(544,26,o),
(544,61,c),
(544,679,l),
(544,714,o),
(519,740,o),
(484,740,c)
);
},
{
closed = 1;
nodes = (
(181,100,o),
(116,172,o),
(116,267,c),
(116,362,o),
(181,435,o),
(277,435,c),
(374,435,o),
(439,362,o),
(439,267,c),
(439,172,o),
(374,100,o),
(277,100,c)
);
}
);
};
layerId = "8816CCA3-DDF9-4C51-BD56-64EE3675A105";
shapes = (
{
closed = 1;
nodes = (
(621,740,o),
(591,714,o),
(583,679,c),
(526,411,l),
(565,424,l),
(573,462,o),
(508,545,o),
(394,545,c),
(259,545,o),
(128,431,o),
(93,267,c),
(58,104,o),
(141,-10,o),
(280,-10,c),
(380,-10,o),
(475,67,o),
(482,101,c),
(462,110,l),
(452,61,l),
(445,26,o),
(464,0,o),
(499,0,c),
(534,0,o),
(565,26,o),
(572,61,c),
(703,679,l),
(711,715,o),
(691,740,o),
(656,740,c)
);
},
{
closed = 1;
nodes = (
(231,100,o),
(188,172,o),
(208,267,c),
(228,362,o),
(302,435,o),
(389,435,c),
(477,435,o),
(521,362,o),
(501,267,c),
(481,172,o),
(406,100,o),
(318,100,c)
);
}
);
width = 691;
},
{
anchors = (
{
name = bottom;
pos = (298,0);
},
{
name = center;
pos = (599,614);
},
{
name = top;
pos = (404,499);
},
{
name = topright;
pos = (681,499);
}
);
layerId = "254266E2-2911-423D-9D37-8CC6105656EE";
shapes = (
{
closed = 1;
nodes = (
(637,740,o),
(627,731,o),
(625,720,c),
(543,334,l),
(554,309,l),
(579,427,o),
(499,515,o),
(389,515,c),
(257,515,o),
(134,403,o),
(102,253,c),
(70,103,o),
(146,-10,o),
(278,-10,c),
(396,-10,o),
(508,92,o),
(527,184,c),
(506,162,l),
(476,20,l),
(474,9,o),
(480,0,o),
(492,0,c),
(503,0,o),
(514,9,o),
(516,20,c),
(665,720,l),
(667,731,o),
(661,740,o),
(649,740,c)
);
},
{
closed = 1;
nodes = (
(177,28,o),
(114,124,o),
(142,253,c),
(169,382,o),
(273,477,o),
(383,477,c),
(495,477,o),
(557,382,o),
(530,253,c),
(502,123,o),
(401,28,o),
(288,28,c)
);
}
);
width = 673;
}
);
metricLeft = o;
metricRight = n;
note = d;
unicode = 100;
},
{
glyphname = eth;
lastChange = "2024-10-10 15:31:14 +0000";
layers = (
{
layerId = "8816CCA3-DDF9-4C51-BD56-64EE3675A105";
shapes = (
{
closed = 1;
nodes = (
(428,-10,o),
(562,96,o),
(602,280,c),
(647,494,o),
(591,678,o),
(408,736,c),
(397,739,o),
(387,740,o),
(378,740,c),
(342,740,o),
(319,708,o),
(314,682,c),
(308,653,o),
(325,629,o),
(354,621,c),
(467,585,o),
(514,537,o),
(481,383,c),
(537,342,l),
(544,452,o),
(497,534,o),
(387,534,c),
(272,534,o),
(124,415,o),
(92,262,c),
(59,109,o),
(146,-10,o),
(287,-10,c)
);
},
{
closed = 1;
nodes = (
(237,110,o),
(193,175,o),
(212,262,c),
(230,349,o),
(302,414,o),
(377,414,c),
(453,414,o),
(496,349,o),
(478,262,c),
(459,175,o),
(388,110,o),
(312,110,c)
);
},
{
closed = 1;
nodes = (
(472,563,l),
(521,582,l),
(595,593,l),
(624,597,o),
(644,613,o),
(645,642,c),
(645,669,o),
(621,675,o),
(592,671,c),
(476,653,l),
(408,630,l),
(286,606,l),
(256,600,o),
(236,585,o),
(235,557,c),
(234,529,o),
(258,522,o),
(289,528,c)
);
}
);
width = 616;
},
{
layerId = "254266E2-2911-423D-9D37-8CC6105656EE";
shapes = (
{
closed = 1;
nodes = (
(407,-1,o),
(536,118,o),
(572,285,c),
(598,409,o),
(583,688,o),
(347,739,c),
(345,740,o),
(342,740,o),
(340,740,cs),
(328,740,o),
(321,732,o),
(318,718,c),
(316,709,o),
(320,703,o),
(330,700,c),
(493,669,o),
(540,514,o),
(536,368,c),
(552,362,l),
(540,436,o),
(492,513,o),
(387,513,c),
(258,513,o),
(131,402,o),
(101,261,c),
(71,119,o),
(149,-1,o),
(278,-1,cs)
);
},
{
closed = 1;
nodes = (
(181,37,o),
(116,141,o),
(141,261,c),
(167,380,o),
(272,475,o),
(379,475,c),
(486,475,o),
(549,371,o),
(525,261,c),
(500,141,o),
(391,37,o),
(286,37,c)
);
},
{
closed = 1;
nodes = (
(480,601,l),
(514,613,l),
(603,645,l),
(615,649,o),
(622,660,o),
(621,671,c),
(619,682,o),
(609,687,o),
(597,682,c),
(493,644,l),
(455,631,l),
(340,590,l),
(329,586,o),
(321,575,o),
(323,564,c),
(325,553,o),
(335,549,o),
(347,553,c)
);
}
);
width = 608;
}
);
metricLeft = o;
metricRight = o;
note = eth;
unicode = 240;
},
{
glyphname = e;
kernLeft = c;
kernRight = e;
lastChange = "2024-10-10 15:31:14 +0000";
layers = (
{
anchors = (
{
name = bottom;
pos = (292,0);
},
{
name = ogonek;
pos = (526,10);
},
{
name = top;
pos = (399,515);
}
);
layerId = "8816CCA3-DDF9-4C51-BD56-64EE3675A105";
shapes = (
{
closed = 1;
nodes = (
(378,-10,o),
(452,16,o),
(494,45,c),
(516,60,o),
(528,77,o),
(532,94,cs),
(538,120,o),
(521,144,o),
(492,144,cs),
(481,144,o),
(469,141,o),
(456,135,c),
(431,123,o),
(402,100,o),
(329,100,c),
(249,100,o),
(186,159,o),
(209,268,c),
(237,398,o),
(306,435,o),
(386,435,c),
(448,435,o),
(497,390,o),
(490,333,c),
(484,306,l),
(510,326,l),
(143,326,l),
(152,226,l),
(534,226,l),
(566,226,o),
(598,248,o),
(607,280,c),
(637,424,o),
(545,545,o),
(410,545,c),
(278,545,o),
(130,439,o),
(92,260,c),
(60,106,o),
(141,-10,o),
(312,-10,c)
);
}
);
width = 584;
},
{
anchors = (
{
name = bottom;
pos = (275,0);
},
{
name = ogonek;
pos = (496,10);
},
{
name = top;
pos = (388,499);
}
);
layerId = "254266E2-2911-423D-9D37-8CC6105656EE";
shapes = (
{
closed = 1;
nodes = (
(382,-10,o),
(459,36,o),
(511,90,c),
(515,94,o),
(517,98,o),
(518,102,c),
(520,111,o),
(514,120,o),
(505,120,c),
(498,120,o),
(492,117,o),
(486,111,c),
(446,66,o),
(378,28,o),
(311,28,c),
(169,28,o),
(116,131,o),
(142,253,c),
(174,403,o),
(295,475,o),
(376,475,c),
(461,475,o),
(538,419,o),
(527,313,c),
(523,295,l),
(535,304,l),
(132,304,l),
(130,266,l),
(538,266,l),
(549,266,o),
(560,276,o),
(562,287,c),
(590,443,o),
(497,515,o),
(384,515,c),
(268,515,o),
(138,417,o),
(102,250,c),
(69,92,o),
(153,-10,o),
(303,-10,c)
);
}
);
width = 554;
}
);
metricLeft = o;
metricRight = o;
note = e;
unicode = 101;
},
{
glyphname = eogonek;
kernLeft = c;
kernRight = e;
lastChange = "2024-10-10 15:31:14 +0000";
layers = (
{
anchors = (
{
name = _ogonek;
pos = (526,10);
},
{
name = bottom;
pos = (292,0);
},
{
name = ogonek;
pos = (526,10);
},
{
name = top;
pos = (409,515);
}
);
layerId = "8816CCA3-DDF9-4C51-BD56-64EE3675A105";
shapes = (
{
closed = 1;
nodes = (
(429,-207,o),
(494,-165,o),
(501,-132,cs),
(507,-102,o),
(491,-84,o),
(467,-84,cs),
(457,-84,o),
(438,-86,o),
(422,-102,cs),
(415,-110,o),
(407,-114,o),
(399,-114,cs),
(383,-114,o),
(370,-102,o),
(375,-78,cs),
(386,-30,o),
(437,10,o),
(495,44,cs),
(523,60,o),
(531,76,o),
(534,90,c),
(539,112,o),
(526,145,o),
(492,145,cs),
(481,145,o),
(468,141,o),
(456,135,c),
(431,123,o),
(402,100,o),
(329,100,c),
(249,100,o),
(186,159,o),
(209,268,c),
(237,398,o),
(306,435,o),
(386,435,c),
(448,435,o),
(497,390,o),
(490,333,c),
(484,305,l),
(513,326,l),
(143,326,l),
(152,226,l),
(534,226,l),
(566,226,o),
(598,248,o),
(607,280,c),
(637,424,o),
(545,545,o),
(410,545,c),
(278,545,o),
(130,439,o),
(92,260,c),
(60,106,o),
(141,-10,o),
(312,-10,c),
(339,-10,o),
(368,-5,o),
(395,2,c),
(489,63,l),
(406,42,o),
(295,8,o),
(272,-100,cs),
(256,-174,o),
(303,-207,o),
(369,-207,cs)
);
}
);
width = 584;
},
{
anchors = (
{
name = _ogonek;
pos = (496,10);
},
{
name = bottom;
pos = (275,0);
},
{
name = ogonek;
pos = (496,10);
},
{
name = top;
pos = (380,499);
}
);
layerId = "254266E2-2911-423D-9D37-8CC6105656EE";
shapes = (
{
closed = 1;
nodes = (
(414,-185,o),
(461,-157,o),
(465,-136,c),
(467,-127,o),
(463,-122,o),
(453,-122,c),
(444,-122,o),
(437,-128,o),
(429,-137,cs),
(422,-144,o),
(412,-148,o),
(395,-148,c),
(360,-148,o),
(341,-122,o),
(349,-87,c),
(363,-17,o),
(438,16,o),
(511,90,c),
(515,94,o),
(517,98,o),
(518,102,c),
(520,111,o),
(514,120,o),
(505,120,c),
(498,120,o),
(492,117,o),
(486,111,c),
(446,66,o),
(378,28,o),
(311,28,c),
(169,28,o),
(116,131,o),
(142,253,c),
(172,394,o),
(280,475,o),
(376,475,c),
(461,475,o),
(538,419,o),
(527,313,c),
(522,292,l),
(536,304,l),
(139,304,l),
(128,266,l),
(538,266,l),
(549,266,o),
(560,276,o),
(562,287,c),
(590,443,o),
(497,515,o),
(384,515,c),
(268,515,o),
(138,417,o),
(102,250,c),
(69,92,o),
(153,-10,o),
(303,-10,c),
(338,-10,o),
(374,-1,o),
(405,14,c),
(402,20,l),
(355,-7,o),
(319,-46,o),
(309,-93,c),
(297,-149,o),
(338,-185,o),
(382,-185,c)
);
}
);
width = 554;
}
);
metricLeft = e;
metricRight = e;
note = eogonek;
unicode = 281;
},
{
glyphname = f;
kernLeft = f;
kernRight = f;
lastChange = "2024-08-16 15:27:50 +0000";
layers = (
{
anchors = (
{
name = bottom;
pos = (209,0);
},
{
name = top;
pos = (318,515);
}
);
layerId = "8816CCA3-DDF9-4C51-BD56-64EE3675A105";
shapes = (
{
closed = 1;
nodes = (
(363,740,o),
(282,666,o),
(261,571,cs),
(153,61,ls),
(146,26,o),
(165,0,o),
(200,0,cs),
(235,0,o),
(266,26,o),
(273,61,cs),
(382,572,ls),
(386,594,o),
(406,634,o),
(457,634,cs),
(480,634,o),
(505,625,o),
(517,625,cs),
(542,625,o),
(569,646,o),
(576,679,cs),
(586,723,o),
(541,740,o),
(497,740,cs)
);
},
{
closed = 1;
nodes = (
(198,525,ls),
(166,525,o),
(137,502,o),
(130,470,cs),
(123,438,o),
(142,415,o),
(174,415,cs),
(439,415,ls),
(471,415,o),
(500,438,o),
(507,470,cs),
(514,502,o),
(495,525,o),
(463,525,cs)
);
}
);
width = 417;
},
{
anchors = (
{
name = bottom;
pos = (166,0);
},
{
name = top;
pos = (272,499);
}
);
layerId = "254266E2-2911-423D-9D37-8CC6105656EE";
shapes = (
{
closed = 1;
nodes = (
(333,735,o),
(275,697,o),
(258,615,cs),
(131,20,ls),
(129,9,o),
(135,0,o),
(147,0,cs),
(158,0,o),
(169,9,o),
(171,20,cs),
(298,615,ls),
(310,673,o),
(344,699,o),
(384,699,cs),
(406,699,o),
(422,687,o),
(436,687,cs),
(446,687,o),
(457,697,o),
(459,707,cs),
(464,730,o),
(418,735,o),
(395,735,cs)
);
},
{
closed = 1;
nodes = (
(152,493,ls),
(142,493,o),
(131,486,o),
(129,474,cs),
(127,464,o),
(134,455,o),
(144,455,cs),
(382,455,ls),
(392,455,o),
(402,463,o),
(405,474,cs),
(407,485,o),
(400,493,o),
(390,493,cs)
);
}
);
width = 332;
}
);
note = f;
unicode = 102;
},
{
glyphname = g;
kernLeft = g;
kernRight = g;
lastChange = "2024-10-10 15:31:14 +0000";
layers = (
{
anchors = (
{
name = bottom;
pos = (332,0);
},
{
name = top;
pos = (441,515);
}
);
layerId = "8816CCA3-DDF9-4C51-BD56-64EE3675A105";
shapes = (
{
closed = 1;
nodes = (
(275,545,o),
(142,431,o),
(107,267,c),
(72,104,o),
(157,-10,o),
(299,-10,c),
(396,-10,o),
(489,67,o),
(496,101,c),
(486,110,l),
(468,23,l),
(453,-48,o),
(397,-90,o),
(297,-90,c),
(255,-90,o),
(190,-61,o),
(173,-54,c),
(146,-44,o),
(113,-57,o),
(93,-96,c),
(77,-126,o),
(86,-153,o),
(123,-170,c),
(149,-183,o),
(232,-200,o),
(273,-200,c),
(413,-200,o),
(554,-135,o),
(591,39,c),
(686,484,l),
(694,520,o),
(674,545,o),
(639,545,c),
(604,545,o),
(573,519,o),
(566,484,c),
(550,411,l),
(579,424,l),
(587,462,o),
(524,545,o),
(413,545,c)
);
},
{
closed = 1;
nodes = (
(499,435,o),
(545,362,o),
(525,267,c),
(505,172,o),
(428,100,o),
(337,100,c),
(247,100,o),
(202,172,o),
(222,267,c),
(242,362,o),
(318,435,o),
(408,435,c)
);
}
);
width = 674;
},
{
anchors = (
{
name = bottom;
pos = (320,0);
},
{
name = top;
pos = (426,499);
}
);
layerId = "254266E2-2911-423D-9D37-8CC6105656EE";
shapes = (
{
closed = 1;
nodes = (
(273,515,o),
(146,403,o),
(114,253,c),
(82,103,o),
(162,-10,o),
(300,-10,c),
(381,-10,o),
(490,33,o),
(545,147,c),
(535,148,l),
(514,49,l),
(488,-77,o),
(392,-162,o),
(266,-162,c),
(212,-162,o),
(174,-149,o),
(159,-142,c),
(132,-130,o),
(129,-111,o),
(116,-111,c),
(105,-111,o),
(98,-119,o),
(96,-129,c),
(88,-165,o),
(175,-200,o),
(255,-200,c),
(400,-200,o),
(522,-105,o),
(554,49,c),
(646,479,l),
(648,490,o),
(642,499,o),
(630,499,c),
(618,499,o),
(608,490,o),
(606,479,c),
(585,379,l),
(590,342,l),
(606,418,o),
(531,515,o),
(411,515,c)
);
},
{
closed = 1;
nodes = (
(521,477,o),
(590,387,o),
(562,253,c),
(533,119,o),
(426,28,o),
(310,28,c),
(193,28,o),
(126,124,o),
(154,253,c),
(181,382,o),
(288,477,o),
(405,477,c)
);
}
);
width = 654;
}
);
metricLeft = o;
metricRight = n;
note = g;
unicode = 103;
},
{
glyphname = h;
kernLeft = b;
kernRight = h;
lastChange = "2024-10-10 15:31:14 +0000";
layers = (
{
anchors = (
{
name = bottom;
pos = (293,0);
},
{
name = center;
pos = (245,594);
},
{
name = top;
pos = (282,740);
}
);
layerId = "8816CCA3-DDF9-4C51-BD56-64EE3675A105";
shapes = (
{
closed = 1;
nodes = (
(374,545,o),
(296,480,o),
(262,434,c),
(277,431,l),
(329,679,l),
(337,714,o),
(317,740,o),
(282,740,c),
(247,740,o),
(217,714,o),
(209,679,c),
(78,61,l),
(71,26,o),
(90,0,o),
(125,0,c),
(160,0,o),
(191,26,o),
(198,61,c),
(252,317,l),
(266,382,o),
(319,435,o),
(396,435,c),
(473,435,o),
(482,382,o),
(468,317,c),
(414,61,l),
(407,26,o),
(426,0,o),
(461,0,c),
(496,0,o),
(527,26,o),
(534,61,c),
(588,317,l),
(615,442,o),
(605,545,o),
(462,545,c)
);
}
);
width = 586;
},
{
anchors = (
{
name = bottom;
pos = (281,0);
},
{
name = center;
pos = (248,589);
},
{
name = top;
pos = (252,700);
}
);
background = {
shapes = (
{
closed = 1;
nodes = (
(214,525,o),
(144,478,o),
(126,442,c),
(124,437,o),
(120,440,o),
(120,444,cs),
(120,720,ls),
(120,731,o),
(112,740,o),
(100,740,cs),
(89,740,o),
(80,731,o),
(80,720,cs),
(80,20,ls),
(80,9,o),
(88,0,o),
(100,0,cs),
(111,0,o),
(120,9,o),
(120,20,cs),
(120,332,ls),
(120,416,o),
(209,485,o),
(293,485,cs),
(388,485,o),
(426,416,o),
(426,332,cs),
(426,20,ls),
(426,9,o),
(434,0,o),
(446,0,cs),
(457,0,o),
(466,9,o),
(466,20,cs),
(466,332,ls),
(466,438,o),
(410,525,o),
(293,525,cs)
);
}
);
};
layerId = "254266E2-2911-423D-9D37-8CC6105656EE";
shapes = (
{
closed = 1;
nodes = (
(311,505,o),
(187,420,o),
(167,323,c),
(202,371,l),
(276,720,l),
(278,731,o),
(272,740,o),
(260,740,c),
(249,740,o),
(238,731,o),
(236,720,c),
(87,20,l),
(85,9,o),
(91,0,o),
(103,0,c),
(114,0,o),
(125,9,o),
(127,20,c),
(189,312,l),
(207,397,o),
(314,467,o),
(400,467,c),
(499,467,o),
(523,397,o),
(505,312,c),
(443,20,l),
(441,9,o),
(447,0,o),
(459,0,c),
(470,0,o),
(481,9,o),
(483,20,c),
(545,312,l),
(568,418,o),
(528,505,o),
(408,505,c)
);
}
);
width = 559;
}
);
metricLeft = n;
metricRight = n;
note = h;
unicode = 104;
},
{
glyphname = i;
kernRight = i;
lastChange = "2024-10-10 15:31:14 +0000";
layers = (
{
anchors = (
{
name = bottom;
pos = (209,0);
}
);
background = {
shapes = (
{
closed = 1;
nodes = (
(152,680,ls),
(152,647,o),
(169,630,o),
(202,630,cs),
(228,630,ls),
(261,630,o),
(278,648,o),
(278,680,cs),
(278,699,ls),
(278,732,o),
(261,749,o),
(228,749,cs),
(202,749,ls),
(170,749,o),
(152,731,o),
(152,699,cs)
);
}
);
};
layerId = "8816CCA3-DDF9-4C51-BD56-64EE3675A105";
shapes = (
{
ref = idotless;
},
{
pos = (5,0);
ref = dotaccentcomb;
}
);
width = 236;
},
{
anchors = (
{
name = bottom;
pos = (176,0);
}
);
layerId = "254266E2-2911-423D-9D37-8CC6105656EE";
shapes = (
{
ref = idotless;
},
{
pos = (18,-1);
ref = dotaccentcomb;
}
);
width = 206;
}
);
metricLeft = n;
metricRight = n;
note = i;
unicode = 105;
},
{
glyphname = idotless;
lastChange = "2024-08-16 15:27:50 +0000";
layers = (
{
anchors = (
{
name = bottom;
pos = (118,0);
},
{
name = ogonek;
pos = (214,10);
},
{
name = top;
pos = (227,515);
}
);
layerId = "8816CCA3-DDF9-4C51-BD56-64EE3675A105";
shapes = (
{
closed = 1;
nodes = (
(279,474,ls),
(286,509,o),
(267,535,o),
(232,535,cs),
(197,535,o),
(166,509,o),
(159,474,cs),
(71,61,ls),
(64,26,o),
(83,0,o),
(118,0,cs),
(153,0,o),
(184,26,o),
(191,61,cs)
);
}
);
width = 236;
},
{
anchors = (
{
name = bottom;
pos = (103,0);
},
{
name = ogonek;
pos = (167,10);
},
{
name = top;
pos = (209,499);
}
);
layerId = "254266E2-2911-423D-9D37-8CC6105656EE";
shapes = (
{
closed = 1;
nodes = (
(228,495,ls),
(231,506,o),
(224,515,o),
(212,515,cs),
(201,515,o),
(191,506,o),
(188,495,cs),
(87,20,ls),
(85,9,o),
(91,0,o),
(103,0,cs),
(114,0,o),
(125,9,o),
(127,20,cs)
);
}
);
width = 206;
}
);
note = dotlessi;
unicode = 305;
},
{
glyphname = iogonek;
lastChange = "2024-08-16 15:27:50 +0000";
layers = (
{
anchors = (
{
name = _ogonek;
pos = (214,10);
},
{
name = bottom;
pos = (118,0);
},
{
name = ogonek;
pos = (214,10);
},
{
name = top;
pos = (227,515);
}
);
layerId = "8816CCA3-DDF9-4C51-BD56-64EE3675A105";
shapes = (
{
closed = 1;
nodes = (
(117,-207,o),
(182,-165,o),
(189,-132,cs),
(195,-102,o),
(179,-84,o),
(155,-84,cs),
(145,-84,o),
(126,-86,o),
(110,-102,cs),
(103,-110,o),
(95,-114,o),
(87,-114,cs),
(71,-114,o),
(58,-102,o),
(63,-78,cs),
(80,0,o),
(172,-29,o),
(192,64,c),
(279,474,ls),
(286,509,o),
(267,535,o),
(232,535,cs),
(197,535,o),
(166,509,o),
(159,474,cs),
(59,6,l),
(174,48,l),
(89,27,o),
(-17,8,o),
(-40,-100,cs),
(-56,-174,o),
(-9,-207,o),
(57,-207,cs)
);
},
{
pos = (5,0);
ref = dotaccentcomb;
}
);
width = 236;
},
{
anchors = (
{
name = _ogonek;
pos = (167,10);
},
{
name = bottom;
pos = (106,0);
},
{
name = ogonek;
pos = (167,10);
},
{
name = top;
pos = (209,499);
}
);
layerId = "254266E2-2911-423D-9D37-8CC6105656EE";
shapes = (
{
closed = 1;
nodes = (
(76,-185,o),
(111,-163,o),
(117,-136,c),
(119,-129,o),
(115,-122,o),
(106,-122,c),
(95,-122,o),
(87,-131,o),
(77,-141,cs),
(71,-148,o),
(61,-148,o),
(48,-148,c),
(20,-148,o),
(-3,-125,o),
(6,-85,c),
(20,-19,o),
(120,-13,o),
(129,28,c),
(228,495,ls),
(231,506,o),
(224,515,o),
(212,515,cs),
(201,515,o),
(191,506,o),
(188,495,cs),
(85,9,l),
(90,21,l),
(35,5,o),
(-21,-31,o),
(-34,-93,c),
(-46,-149,o),
(-9,-185,o),
(35,-185,c)
);
},
{
pos = (18,-1);
ref = dotaccentcomb;
}
);
width = 206;
}
);
note = iogonek;
unicode = 303;
},
{
glyphname = jdotless;
lastChange = "2024-08-16 15:27:50 +0000";
layers = (
{
anchors = (
{
name = bottom;
pos = (167,0);
},
{
name = top;
pos = (248,515);
}
);
layerId = "8816CCA3-DDF9-4C51-BD56-64EE3675A105";
shapes = (
{
closed = 1;
nodes = (
(174,-124,o),
(198,-10,cs),
(301,474,ls),
(308,509,o),
(289,535,o),
(254,535,cs),
(219,535,o),
(188,509,o),
(181,474,cs),
(85,25,ls),
(76,-20,o),
(65,-59,o),
(15,-74,cs),
(-17,-83,o),
(-41,-100,o),
(-47,-129,cs),
(-50,-140,ls),
(-56,-171,o),
(-39,-196,o),
(-6,-196,cs),
(86,-196,o)
);
}
);
width = 275;
},
{
anchors = (
{
name = bottom;
pos = (112,0);
},
{
name = top;
pos = (222,500);
}
);
background = {
shapes = (
{
closed = 1;
nodes = (
(65,-190,o),
(136,-145,o),
(136,-58,cs),
(136,480,ls),
(136,491,o),
(128,500,o),
(116,500,cs),
(104,500,o),
(96,491,o),
(96,480,cs),
(96,-58,ls),
(96,-124,o),
(42,-152,o),
(-2,-159,c),
(-12,-160,o),
(-20,-168,o),
(-20,-178,cs),
(-20,-180,ls),
(-20,-191,o),
(-11,-200,o),
(2,-198,cs)
);
}
);
};
layerId = "254266E2-2911-423D-9D37-8CC6105656EE";
shapes = (
{
closed = 1;
nodes = (
(105,-148,o),
(124,-58,cs),
(238,480,ls),
(240,491,o),
(234,500,o),
(222,500,cs),
(210,500,o),
(200,491,o),
(198,480,cs),
(84,-58,ls),
(70,-124,o),
(10,-152,o),
(-36,-159,c),
(-46,-160,o),
(-56,-168,o),
(-58,-178,cs),
(-58,-180,ls),
(-60,-190,o),
(-55,-198,o),
(-43,-198,cs),
(12,-198,o)
);
}
);
width = 229;
}
);
note = dotlessj;
unicode = 567;
},
{
glyphname = k;
kernLeft = b;
kernRight = k;
lastChange = "2024-08-16 15:27:50 +0000";
layers = (
{
anchors = (
{
name = bottom;
pos = (285,0);
},
{
name = top;
pos = (394,515);
}
);
layerId = "8816CCA3-DDF9-4C51-BD56-64EE3675A105";
shapes = (
{
closed = 1;
nodes = (
(170,0,o),
(201,26,o),
(208,61,c),
(339,679,l),
(347,714,o),
(327,740,o),
(292,740,cs),
(257,740,o),
(227,714,o),
(219,679,cs),
(88,61,ls),
(81,26,o),
(100,0,o),
(135,0,cs)
);
},
{
closed = 1;
nodes = (
(552,535,o),
(534,529,o),
(519,516,cs),
(243,295,l),
(218,157,l),
(578,434,ls),
(597,448,o),
(609,464,o),
(612,479,cs),
(617,503,o),
(598,535,o),
(567,535,cs)
);
},
{
closed = 1;
nodes = (
(495,1,o),
(534,25,o),
(542,60,cs),
(545,75,o),
(542,91,o),
(532,105,cs),
(394,301,l),
(285,217,l),
(428,21,ls),
(438,8,o),
(452,1,o),
(468,1,cs)
);
}
);
width = 569;
},
{
anchors = (
{
name = bottom;
pos = (262,0);
},
{
name = top;
pos = (368,499);
}
);
layerId = "254266E2-2911-423D-9D37-8CC6105656EE";
shapes = (
{
closed = 1;
nodes = (
(120,0,o),
(130,9,o),
(132,20,c),
(281,720,l),
(283,731,o),
(277,740,o),
(265,740,cs),
(253,740,o),
(243,731,o),
(241,720,cs),
(92,20,ls),
(90,9,o),
(96,0,o),
(108,0,cs)
);
},
{
closed = 1;
nodes = (
(557,505,o),
(553,503,o),
(548,499,c),
(167,228,l),
(159,180,l),
(568,469,ls),
(574,473,o),
(577,479,o),
(578,484,cs),
(580,496,o),
(572,505,o),
(562,505,cs)
);
},
{
closed = 1;
nodes = (
(466,0,o),
(482,6,o),
(485,20,cs),
(487,26,o),
(486,31,o),
(482,35,cs),
(296,291,l),
(260,265,l),
(447,7,ls),
(451,3,o),
(456,0,o),
(461,0,cs)
);
}
);
width = 524;
}
);
metricLeft = l;
note = k;
unicode = 107;
},
{
glyphname = kgreenlandic;
lastChange = "2024-08-16 15:27:50 +0000";
layers = (
{
anchors = (
{
name = bottom;
pos = (300,0);
},
{
name = top;
pos = (409,515);
}
);
layerId = "8816CCA3-DDF9-4C51-BD56-64EE3675A105";
shapes = (
{
closed = 1;
nodes = (
(170,0,o),
(201,26,o),
(208,61,cs),
(296,474,ls),
(303,509,o),
(284,535,o),
(249,535,cs),
(214,535,o),
(183,509,o),
(176,474,cs),
(88,61,ls),
(81,26,o),
(100,0,o),
(135,0,cs)
);
},
{
closed = 1;
nodes = (
(552,535,o),
(534,529,o),
(519,516,cs),
(243,295,l),
(218,157,l),
(578,434,ls),
(597,448,o),
(609,464,o),
(612,479,cs),
(617,503,o),
(598,535,o),
(567,535,cs)
);
},
{
closed = 1;
nodes = (
(495,1,o),
(534,25,o),
(542,60,cs),
(545,75,o),
(542,91,o),
(532,105,cs),
(394,301,l),
(285,217,l),
(428,21,ls),
(438,8,o),
(452,1,o),
(468,1,cs)
);
}
);
width = 569;
},
{
anchors = (
{
name = bottom;
pos = (300,0);
},
{
name = top;
pos = (406,499);
}
);
layerId = "254266E2-2911-423D-9D37-8CC6105656EE";
shapes = (
{
closed = 1;
nodes = (
(120,0,o),
(130,9,o),
(132,20,cs),
(230,479,ls),
(232,490,o),
(226,499,o),
(214,499,cs),
(202,499,o),
(192,490,o),
(190,479,cs),
(92,20,ls),
(90,9,o),
(96,0,o),
(108,0,cs)
);
},
{
closed = 1;
nodes = (
(557,505,o),
(553,503,o),
(548,499,c),
(167,228,l),
(159,180,l),
(568,469,ls),
(574,473,o),
(577,479,o),
(578,484,cs),
(580,496,o),
(572,505,o),
(562,505,cs)
);
},
{
closed = 1;
nodes = (
(464,0,o),
(482,5,o),
(485,20,cs),
(487,26,o),
(486,31,o),
(482,35,cs),
(296,291,l),
(260,265,l),
(447,7,ls),
(451,3,o),
(456,0,o),
(461,0,cs)
);
}
);
width = 524;
}
);
unicode = 312;
},
{
glyphname = l;
kernLeft = b;
kernRight = l;
lastChange = "2024-08-16 15:27:50 +0000";
layers = (
{
anchors = (
{
name = bottom;
pos = (135,0);
},
{
name = center;
pos = (190,258);
},
{
name = top;
pos = (293,740);
},
{
name = topright;
pos = (359,515);
}
);
layerId = "8816CCA3-DDF9-4C51-BD56-64EE3675A105";
shapes = (
{
closed = 1;
nodes = (
(339,679,ls),
(347,714,o),
(327,740,o),
(293,740,cs),
(258,740,o),
(227,714,o),
(219,679,cs),
(88,61,ls),
(81,26,o),
(100,0,o),
(134,0,cs),
(169,0,o),
(201,26,o),
(208,61,cs)
);
}
);
width = 270;
},
{
anchors = (
{
name = bottom;
pos = (108,0);
},
{
name = center;
pos = (186,366);
},
{
name = top;
pos = (265,740);
},
{
name = topright;
pos = (353,740);
}
);
layerId = "254266E2-2911-423D-9D37-8CC6105656EE";
shapes = (
{
closed = 1;
nodes = (
(281,720,ls),
(283,731,o),
(277,740,o),
(265,740,cs),
(254,740,o),
(243,731,o),
(241,720,cs),
(92,20,ls),
(90,9,o),
(96,0,o),
(108,0,cs),
(119,0,o),
(130,9,o),
(132,20,cs)
);
}
);
width = 216;
}
);
note = l;
unicode = 108;
},
{
glyphname = lcaron;
lastChange = "2024-08-16 15:27:50 +0000";
layers = (
{
layerId = "8816CCA3-DDF9-4C51-BD56-64EE3675A105";
shapes = (
{
closed = 1;
nodes = (
(339,679,ls),
(347,714,o),
(327,740,o),
(293,740,cs),
(258,740,o),
(227,714,o),
(219,679,cs),
(88,61,ls),
(81,26,o),
(100,0,o),
(134,0,cs),
(169,0,o),
(201,26,o),
(208,61,cs)
);
},
{
pos = (223,0);
ref = caronalt;
}
);
width = 430;
},
{
layerId = "254266E2-2911-423D-9D37-8CC6105656EE";
shapes = (
{
closed = 1;
nodes = (
(281,720,ls),
(283,731,o),
(277,740,o),
(265,740,cs),
(254,740,o),
(243,731,o),
(241,720,cs),
(92,20,ls),
(90,9,o),
(96,0,o),
(108,0,cs),
(119,0,o),
(130,9,o),
(132,20,cs)
);
},
{
pos = (149,0);
ref = caronalt;
}
);
width = 270;
}
);
metricLeft = l;
note = lcaron;
unicode = 318;
},
{
glyphname = lslash;
lastChange = "2024-08-16 15:27:50 +0000";
layers = (
{
layerId = "8816CCA3-DDF9-4C51-BD56-64EE3675A105";
shapes = (
{
closed = 1;
nodes = (
(93,270,o),
(102,271,o),
(110,275,cs),
(346,374,ls),
(367,383,o),
(383,400,o),
(387,419,cs),
(391,438,o),
(382,470,o),
(349,470,cs),
(341,470,o),
(333,468,o),
(325,465,cs),
(89,366,ls),
(68,357,o),
(52,340,o),
(48,321,cs),
(44,302,o),
(53,270,o),
(86,270,cs)
);
},
{
ref = l;
}
);
width = 270;
},
{
layerId = "254266E2-2911-423D-9D37-8CC6105656EE";
shapes = (
{
closed = 1;
nodes = (
(88,350,o),
(93,351,o),
(98,353,c),
(301,437,l),
(310,440,o),
(318,446,o),
(320,458,c),
(322,467,o),
(317,474,o),
(309,474,c),
(303,474,o),
(297,472,o),
(293,470,c),
(90,386,l),
(81,383,o),
(75,376,o),
(73,369,c),
(71,357,o),
(77,350,o),
(85,350,c)
);
},
{
ref = l;
}
);
width = 218;
}
);
note = lslash;
unicode = 322;
},
{
glyphname = m;
kernLeft = m;
kernRight = h;
lastChange = "2024-10-10 15:31:14 +0000";
layers = (
{
anchors = (
{
name = bottom;
pos = (461,0);
},
{
name = top;
pos = (570,515);
}
);
layerId = "8816CCA3-DDF9-4C51-BD56-64EE3675A105";
shapes = (
{
closed = 1;
nodes = (
(374,545,o),
(296,480,o),
(262,434,c),
(277,431,l),
(286,474,l),
(293,509,o),
(274,535,o),
(239,535,c),
(204,535,o),
(173,509,o),
(166,474,c),
(78,61,l),
(71,26,o),
(90,0,o),
(125,0,c),
(160,0,o),
(191,26,o),
(198,61,c),
(252,317,l),
(266,382,o),
(319,435,o),
(396,435,c),
(473,435,o),
(482,382,o),
(468,317,c),
(414,61,l),
(407,26,o),
(426,0,o),
(461,0,c),
(496,0,o),
(527,26,o),
(534,61,c),
(588,317,l),
(602,382,o),
(655,435,o),
(732,435,c),
(809,435,o),
(818,382,o),
(804,317,c),
(750,61,l),
(743,26,o),
(762,0,o),
(797,0,c),
(832,0,o),
(863,26,o),
(870,61,c),
(924,317,l),
(951,442,o),
(941,545,o),
(798,545,c),
(710,545,o),
(631,478,o),
(597,432,c),
(585,416,l),
(601,407,l),
(602,488,o),
(568,545,o),
(462,545,c)
);
}
);
width = 922;
},
{
anchors = (
{
name = bottom;
pos = (455,0);
},
{
name = top;
pos = (561,499);
}
);
layerId = "254266E2-2911-423D-9D37-8CC6105656EE";
shapes = (
{
closed = 1;
nodes = (
(299,505,o),
(180,411,o),
(161,319,c),
(202,370,l),
(225,479,l),
(227,490,o),
(221,499,o),
(209,499,c),
(198,499,o),
(187,490,o),
(185,479,c),
(87,20,l),
(85,9,o),
(91,0,o),
(103,0,c),
(114,0,o),
(125,9,o),
(127,20,c),
(189,312,l),
(207,397,o),
(311,467,o),
(395,467,c),
(490,467,o),
(513,397,o),
(495,312,c),
(433,20,l),
(431,9,o),
(437,0,o),
(449,0,c),
(461,0,o),
(471,9,o),
(473,20,c),
(534,307,l),
(553,395,o),
(659,467,o),
(746,467,c),
(844,467,o),
(870,395,o),
(851,307,c),
(790,20,l),
(788,9,o),
(794,0,o),
(806,0,c),
(818,0,o),
(828,9,o),
(830,20,c),
(892,311,l),
(915,420,o),
(878,505,o),
(758,505,c),
(682,505,o),
(577,454,o),
(537,389,c),
(528,370,l),
(543,379,ls),
(538,465,o),
(478,505,o),
(403,505,c)
);
}
);
width = 906;
}
);
metricLeft = n;
metricRight = n;
note = m;
unicode = 109;
},
{
glyphname = n;
kernLeft = m;
kernRight = h;
lastChange = "2024-08-16 15:27:50 +0000";
layers = (
{
anchors = (
{
name = bottom;
pos = (298,0);
},
{
name = top;
pos = (407,515);
}
);
layerId = "8816CCA3-DDF9-4C51-BD56-64EE3675A105";
shapes = (
{
closed = 1;
nodes = (
(376,545,o),
(297,480,o),
(262,434,c),
(277,431,l),
(286,474,l),
(293,509,o),
(274,535,o),
(239,535,c),
(204,535,o),
(173,509,o),
(166,474,c),
(78,61,l),
(71,26,o),
(90,0,o),
(125,0,c),
(160,0,o),
(191,26,o),
(198,61,c),
(252,317,l),
(266,382,o),
(321,435,o),
(401,435,c),
(482,435,o),
(492,382,o),
(478,317,c),
(424,61,l),
(417,26,o),
(436,0,o),
(471,0,c),
(506,0,o),
(537,26,o),
(544,61,c),
(598,317,l),
(625,442,o),
(614,545,o),
(467,545,c)
);
}
);
width = 596;
},
{
anchors = (
{
name = bottom;
pos = (286,0);
},
{
name = top;
pos = (392,499);
}
);
layerId = "254266E2-2911-423D-9D37-8CC6105656EE";
shapes = (
{
closed = 1;
nodes = (
(320,515,o),
(189,430,o),
(169,333,c),
(204,381,l),
(225,479,l),
(227,490,o),
(221,499,o),
(209,499,c),
(198,499,o),
(187,490,o),
(185,479,c),
(87,20,l),
(85,9,o),
(91,0,o),
(103,0,c),
(114,0,o),
(125,9,o),
(127,20,c),
(191,322,l),
(210,407,o),
(319,477,o),
(407,477,c),
(508,477,o),
(536,407,o),
(517,322,c),
(453,20,l),
(451,9,o),
(457,0,o),
(469,0,c),
(479,0,o),
(491,9,o),
(493,20,c),
(558,326,l),
(581,432,o),
(544,515,o),
(419,515,c)
);
}
);
width = 572;
}
);
note = n;
unicode = 110;
},
{
glyphname = nhookleft;
lastChange = "2024-08-16 15:27:50 +0000";
layers = (
{
layerId = "8816CCA3-DDF9-4C51-BD56-64EE3675A105";
shapes = (
{
closed = 1;
nodes = (
(6,-196,o),
(144,-194,o),
(183,-10,c),
(252,317,l),
(266,382,o),
(321,435,o),
(401,435,c),
(482,435,o),
(492,382,o),
(478,317,c),
(424,61,l),
(417,26,o),
(436,0,o),
(471,0,c),
(506,0,o),
(537,26,o),
(544,61,c),
(598,317,l),
(625,442,o),
(614,545,o),
(467,545,c),
(376,545,o),
(297,480,o),
(262,434,c),
(277,431,l),
(286,474,l),
(293,509,o),
(274,535,o),
(239,535,c),
(204,535,o),
(173,509,o),
(166,474,c),
(70,25,l),
(61,-20,o),
(51,-58,o),
(0,-74,cs),
(-37,-86,o),
(-56,-99,o),
(-65,-140,cs),
(-71,-169,o),
(-56,-196,o),
(-26,-196,cs)
);
}
);
width = 600;
},
{
layerId = "254266E2-2911-423D-9D37-8CC6105656EE";
shapes = (
{
closed = 1;
nodes = (
(-35,-198,o),
(85,-180,o),
(111,-58,c),
(191,322,l),
(210,407,o),
(319,477,o),
(407,477,c),
(508,477,o),
(536,407,o),
(517,322,c),
(453,20,l),
(451,9,o),
(457,0,o),
(469,0,c),
(479,0,o),
(491,9,o),
(493,20,c),
(558,326,l),
(581,432,o),
(544,515,o),
(419,515,c),
(320,515,o),
(189,430,o),
(169,333,c),
(204,381,l),
(225,479,l),
(227,490,o),
(221,499,o),
(209,499,c),
(198,499,o),
(187,490,o),
(185,479,c),
(71,-58,l),
(57,-124,o),
(-3,-152,o),
(-49,-159,c),
(-59,-160,o),
(-68,-167,o),
(-71,-180,cs),
(-73,-190,o),
(-67,-198,o),
(-56,-198,cs)
);
}
);
width = 572;
}
);
unicode = 626;
},
{
glyphname = eng;
lastChange = "2024-08-16 15:27:50 +0000";
layers = (
{
anchors = (
{
name = bottom;
pos = (286,0);
},
{
name = top;
pos = (407,515);
}
);
layerId = "8816CCA3-DDF9-4C51-BD56-64EE3675A105";
shapes = (
{
closed = 1;
nodes = (
(398,-201,o),
(498,-156,o),
(528,-14,cs),
(598,317,l),
(625,442,o),
(614,545,o),
(467,545,c),
(376,545,o),
(297,480,o),
(262,434,c),
(277,431,l),
(286,474,l),
(293,509,o),
(274,535,o),
(239,535,c),
(204,535,o),
(173,509,o),
(166,474,c),
(78,61,l),
(71,26,o),
(90,0,o),
(125,0,c),
(160,0,o),
(191,26,o),
(198,61,c),
(252,317,l),
(266,382,o),
(321,435,o),
(401,435,c),
(482,435,o),
(492,382,o),
(478,317,c),
(407,-19,ls),
(396,-69,o),
(371,-89,o),
(329,-90,cs),
(295,-91,o),
(265,-116,o),
(259,-148,cs),
(252,-180,o),
(274,-200,o),
(311,-200,cs)
);
}
);
width = 596;
},
{
anchors = (
{
name = bottom;
pos = (286,0);
},
{
name = top;
pos = (392,499);
}
);
layerId = "254266E2-2911-423D-9D37-8CC6105656EE";
shapes = (
{
closed = 1;
nodes = (
(409,-200,o),
(464,-123,o),
(480,-44,c),
(558,326,l),
(581,432,o),
(544,515,o),
(419,515,c),
(320,515,o),
(189,430,o),
(169,333,c),
(204,381,l),
(225,479,l),
(227,490,o),
(221,499,o),
(209,499,c),
(198,499,o),
(187,490,o),
(185,479,c),
(87,20,l),
(85,9,o),
(91,0,o),
(103,0,c),
(114,0,o),
(125,9,o),
(127,20,c),
(191,322,l),
(210,407,o),
(319,477,o),
(407,477,c),
(508,477,o),
(536,407,o),
(517,322,c),
(440,-44,l),
(425,-111,o),
(391,-160,o),
(276,-160,cs),
(264,-160,o),
(253,-168,o),
(251,-180,cs),
(248,-192,o),
(255,-200,o),
(268,-200,cs)
);
}
);
width = 572;
}
);
metricLeft = n;
metricRight = n;
note = eng;
unicode = 331;
},
{
glyphname = o;
kernLeft = c;
kernRight = b;
lastChange = "2024-08-16 15:27:50 +0000";
layers = (
{
anchors = (
{
name = bottom;
pos = (307,0);
},
{
name = center;
pos = (362,258);
},
{
name = ogonek;
pos = (555,10);
},
{
name = top;
pos = (416,515);
},
{
name = topright;
pos = (437,545);
}
);
layerId = "8816CCA3-DDF9-4C51-BD56-64EE3675A105";
shapes = (
{
closed = 1;
nodes = (
(671,431,o),
(574,545,o),
(423,545,c),
(271,545,o),
(127,431,o),
(92,267,c),
(57,103,o),
(153,-10,o),
(305,-10,c),
(456,-10,o),
(601,103,o),
(636,267,c)
);
},
{
closed = 1;
nodes = (
(494,167,o),
(412,100,o),
(328,100,c),
(244,100,o),
(190,167,o),
(212,267,c),
(233,368,o),
(315,435,o),
(399,435,c),
(483,435,o),
(537,368,o),
(516,267,c)
);
}
);
width = 614;
},
{
anchors = (
{
name = bottom;
pos = (295,0);
},
{
name = center;
pos = (348,250);
},
{
name = ogonek;
pos = (532,10);
},
{
name = top;
pos = (403,509);
},
{
name = topright;
pos = (417,496);
}
);
layerId = "254266E2-2911-423D-9D37-8CC6105656EE";
shapes = (
{
closed = 1;
nodes = (
(626,402,o),
(545,515,o),
(404,515,c),
(263,515,o),
(133,402,o),
(102,252,c),
(70,103,o),
(152,-10,o),
(293,-10,c),
(434,-10,o),
(563,103,o),
(595,252,c)
);
},
{
closed = 1;
nodes = (
(527,124,o),
(420,28,o),
(301,28,c),
(183,28,o),
(114,124,o),
(142,252,c),
(169,381,o),
(278,477,o),
(396,477,c),
(515,477,o),
(582,381,o),
(555,252,c)
);
}
);
width = 589;
}
);
note = o;
unicode = 111;
},
{
glyphname = oogonek;
kernLeft = o;
kernRight = b;
lastChange = "2024-08-16 15:27:50 +0000";
layers = (
{
layerId = "8816CCA3-DDF9-4C51-BD56-64EE3675A105";
shapes = (
{
closed = 1;
nodes = (
(494,167,o),
(412,100,o),
(328,100,c),
(244,100,o),
(190,167,o),
(212,267,c),
(233,368,o),
(315,435,o),
(399,435,c),
(483,435,o),
(537,368,o),
(516,267,c)
);
},
{
closed = 1;
nodes = (
(390,-207,o),
(455,-165,o),
(462,-132,c),
(468,-102,o),
(452,-84,o),
(428,-84,c),
(418,-84,o),
(399,-86,o),
(383,-102,c),
(376,-110,o),
(368,-114,o),
(360,-114,c),
(342,-114,o),
(327,-99,o),
(334,-68,c),
(342,-27,o),
(390,-3,o),
(456,28,c),
(545,70,o),
(613,160,o),
(636,267,c),
(671,431,o),
(574,545,o),
(423,545,c),
(271,545,o),
(127,431,o),
(92,267,c),
(57,103,o),
(153,-10,o),
(305,-10,c),
(356,27,o),
(408,65,o),
(459,102,c),
(373,79,o),
(256,32,o),
(230,-90,c),
(213,-171,o),
(262,-207,o),
(330,-207,c)
);
}
);
width = 614;
},
{
layerId = "254266E2-2911-423D-9D37-8CC6105656EE";
shapes = (
{
closed = 1;
nodes = (
(527,124,o),
(420,28,o),
(301,28,c),
(183,28,o),
(114,124,o),
(142,252,c),
(169,381,o),
(278,477,o),
(396,477,c),
(515,477,o),
(582,381,o),
(555,252,c)
);
},
{
closed = 1;
nodes = (
(341,-185,o),
(376,-163,o),
(382,-136,c),
(384,-129,o),
(380,-122,o),
(371,-122,c),
(361,-122,o),
(353,-130,o),
(343,-139,cs),
(336,-145,o),
(328,-148,o),
(313,-148,c),
(285,-148,o),
(262,-125,o),
(271,-85,c),
(278,-51,o),
(314,-13,o),
(348,-4,c),
(466,27,o),
(567,123,o),
(595,252,c),
(626,402,o),
(545,515,o),
(404,515,c),
(263,515,o),
(133,402,o),
(102,252,c),
(70,103,o),
(152,-10,o),
(293,-10,c),
(312,-10,o),
(333,0,o),
(341,17,c),
(296,3,o),
(244,-31,o),
(231,-93,c),
(219,-149,o),
(256,-185,o),
(300,-185,c)
);
}
);
width = 589;
}
);
unicode = 491;
},
{
glyphname = oslash;
kernLeft = o;
kernRight = b;
lastChange = "2024-08-16 15:27:50 +0000";
layers = (
{
anchors = (
{
name = top;
pos = (416,515);
}
);
layerId = "8816CCA3-DDF9-4C51-BD56-64EE3675A105";
shapes = (
{
closed = 1;
nodes = (
(110,-33,o),
(125,-27,o),
(138,-15,cs),
(648,464,ls),
(658,473,o),
(665,485,o),
(668,497,cs),
(674,525,o),
(654,547,o),
(627,547,cs),
(613,547,o),
(598,541,o),
(585,529,cs),
(76,50,ls),
(65,40,o),
(58,28,o),
(55,16,cs),
(50,-8,o),
(67,-33,o),
(96,-33,cs)
);
},
{
ref = o;
}
);
width = 614;
},
{
anchors = (
{
name = top;
pos = (405,499);
}
);
layerId = "254266E2-2911-423D-9D37-8CC6105656EE";
shapes = (
{
closed = 1;
nodes = (
(49,-25,o),
(54,-22,o),
(59,-17,c),
(617,505,ls),
(622,509,o),
(624,514,o),
(625,519,cs),
(628,530,o),
(620,539,o),
(610,539,cs),
(604,539,o),
(598,536,o),
(593,531,c),
(35,9,ls),
(30,4,o),
(28,0,o),
(27,-5,cs),
(25,-16,o),
(33,-25,o),
(43,-25,cs)
);
},
{
ref = o;
}
);
width = 597;
}
);
note = oslash;
unicode = 248;
},
{
glyphname = p;
kernLeft = p;
kernRight = b;
lastChange = "2024-10-10 15:31:14 +0000";
layers = (
{
anchors = (
{
name = bottom;
pos = (355,0);
},
{
name = top;
pos = (464,515);
}
);
background = {
shapes = (
{
closed = 1;
nodes = (
(203,-200,o),
(228,-174,o),
(228,-139,cs),
(228,59,ls),
(228,64,o),
(231,65,o),
(233,61,cs),
(249,29,o),
(304,-10,o),
(375,-10,cs),
(524,-10,o),
(631,100,o),
(631,258,cs),
(631,415,o),
(524,525,o),
(375,525,cs),
(304,525,o),
(249,485,o),
(233,453,cs),
(231,449,o),
(228,450,o),
(228,454,cs),
(228,489,o),
(203,515,o),
(168,515,cs),
(133,515,o),
(108,489,o),
(108,454,cs),
(108,-139,ls),
(108,-174,o),
(133,-200,o),
(168,-200,cs)
);
},
{
closed = 1;
nodes = (
(455,405,o),
(516,341,o),
(516,258,cs),
(516,174,o),
(455,110,o),
(365,110,cs),
(274,110,o),
(213,174,o),
(213,258,cs),
(213,341,o),
(274,405,o),
(365,405,cs)
);
}
);
};
layerId = "8816CCA3-DDF9-4C51-BD56-64EE3675A105";
shapes = (
{
closed = 1;
nodes = (
(407,545,o),
(310,468,o),
(303,434,c),
(318,425,l),
(329,474,l),
(336,509,o),
(317,535,o),
(282,535,c),
(247,535,o),
(216,509,o),
(209,474,c),
(78,-139,l),
(71,-175,o),
(90,-200,o),
(125,-200,c),
(160,-200,o),
(191,-174,o),
(198,-139,c),
(254,124,l),
(221,111,l),
(213,73,o),
(279,-10,o),
(387,-10,c),
(522,-10,o),
(653,104,o),
(688,268,c),
(723,431,o),
(640,545,o),
(501,545,c)
);
},
{
closed = 1;
nodes = (
(549,435,o),
(593,363,o),
(573,268,c),
(553,173,o),
(478,100,o),
(391,100,c),
(303,100,o),
(260,173,o),
(280,268,c),
(300,363,o),
(374,435,o),
(462,435,c)
);
}
);
width = 667;
},
{
anchors = (
{
name = bottom;
pos = (341,0);
},
{
name = top;
pos = (447,499);
}
);
background = {
shapes = (
{
closed = 1;
nodes = (
(158,-200,o),
(166,-191,o),
(166,-180,cs),
(166,101,ls),
(166,106,o),
(169,107,o),
(172,103,c),
(218,35,o),
(293,-10,o),
(378,-10,cs),
(517,-10,o),
(630,109,o),
(630,257,cs),
(630,405,o),
(517,525,o),
(378,525,cs),
(293,525,o),
(218,480,o),
(172,411,c),
(169,407,o),
(166,408,o),
(166,413,cs),
(166,495,ls),
(166,506,o),
(158,515,o),
(146,515,cs),
(135,515,o),
(126,506,o),
(126,495,cs),
(126,-180,ls),
(126,-191,o),
(134,-200,o),
(146,-200,cs)
);
},
{
closed = 1;
nodes = (
(494,485,o),
(590,383,o),
(590,257,cs),
(590,131,o),
(494,30,o),
(378,30,cs),
(262,30,o),
(166,131,o),
(166,257,cs),
(166,383,o),
(262,485,o),
(378,485,cs)
);
}
);
};
layerId = "254266E2-2911-423D-9D37-8CC6105656EE";
shapes = (
{
closed = 1;
nodes = (
(376,505,o),
(288,463,o),
(230,364,c),
(242,357,l),
(269,485,l),
(271,496,o),
(265,505,o),
(253,505,c),
(241,505,o),
(231,496,o),
(229,485,c),
(88,-180,l),
(85,-191,o),
(92,-200,o),
(103,-200,c),
(115,-200,o),
(125,-191,o),
(128,-180,c),
(197,147,l),
(181,133,l),
(205,45,o),
(268,-6,o),
(357,-6,c),
(489,-6,o),
(612,103,o),
(643,250,c),
(675,398,o),
(598,505,o),
(465,505,c)
);
},
{
closed = 1;
nodes = (
(566,467,o),
(630,376,o),
(603,250,c),
(576,124,o),
(474,32,o),
(363,32,c),
(249,32,o),
(188,123,o),
(215,250,c),
(242,377,o),
(341,467,o),
(455,467,c)
);
}
);
width = 637;
}
);
metricLeft = n;
metricRight = o;
note = p;
unicode = 112;
},
{
glyphname = thorn;
lastChange = "2024-10-10 15:31:14 +0000";
layers = (
{
anchors = (
{
name = bottom;
pos = (325,0);
},
{
name = top;
pos = (431,499);
}
);
background = {
shapes = (
{
closed = 1;
nodes = (
(325,613,o),
(281,600,o),
(244,576,c),
(240,574,o),
(238,576,o),
(238,580,cs),
(238,679,ls),
(238,714,o),
(213,740,o),
(179,740,cs),
(144,740,o),
(118,714,o),
(118,679,cs),
(118,61,ls),
(118,26,o),
(143,0,o),
(177,0,cs),
(212,0,o),
(238,26,o),
(238,61,cs),
(238,161,ls),
(238,165,o),
(241,166,o),
(244,164,cs),
(281,141,o),
(325,128,o),
(372,128,cs),
(507,128,o),
(614,236,o),
(614,370,cs),
(614,504,o),
(507,613,o),
(372,613,cs)
);
},
{
closed = 1;
nodes = (
(299,237,o),
(239,295,o),
(239,370,cs),
(239,446,o),
(299,504,o),
(372,504,cs),
(445,504,o),
(505,446,o),
(505,370,cs),
(505,295,o),
(445,237,o),
(372,237,cs)
);
}
);
};
layerId = "8816CCA3-DDF9-4C51-BD56-64EE3675A105";
shapes = (
{
closed = 1;
nodes = (
(407,545,o),
(310,468,o),
(303,434,c),
(318,425,l),
(372,679,l),
(380,714,o),
(360,740,o),
(325,740,c),
(290,740,o),
(260,714,o),
(252,679,c),
(78,-139,l),
(71,-175,o),
(90,-200,o),
(125,-200,c),
(160,-200,o),
(191,-174,o),
(198,-139,c),
(254,124,l),
(221,111,l),
(213,73,o),
(279,-10,o),
(387,-10,c),
(522,-10,o),
(653,104,o),
(688,268,c),
(723,431,o),
(640,545,o),
(501,545,c)
);
},
{
closed = 1;
nodes = (
(549,435,o),
(593,363,o),
(573,268,c),
(553,173,o),
(478,100,o),
(391,100,c),
(303,100,o),
(260,173,o),
(280,268,c),
(300,363,o),
(374,435,o),
(462,435,c)
);
}
);
width = 667;
},
{
anchors = (
{
name = bottom;
pos = (325,0);
},
{
name = top;
pos = (431,499);
}
);
layerId = "254266E2-2911-423D-9D37-8CC6105656EE";
shapes = (
{
closed = 1;
nodes = (
(376,505,o),
(288,463,o),
(230,364,c),
(242,357,l),
(319,720,l),
(321,731,o),
(315,740,o),
(303,740,c),
(291,740,o),
(281,731,o),
(279,720,c),
(88,-180,l),
(85,-191,o),
(92,-200,o),
(103,-200,c),
(115,-200,o),
(125,-191,o),
(128,-180,c),
(197,147,l),
(181,133,l),
(205,45,o),
(268,-6,o),
(357,-6,c),
(489,-6,o),
(612,103,o),
(643,250,c),
(675,398,o),
(598,505,o),
(465,505,c)
);
},
{
closed = 1;
nodes = (
(566,467,o),
(630,376,o),
(603,250,c),
(576,124,o),
(474,32,o),
(363,32,c),
(249,32,o),
(188,123,o),
(215,250,c),
(242,377,o),
(341,467,o),
(455,467,c)
);
}
);
width = 637;
}
);
metricLeft = p;
metricRight = p;
note = thorn;
unicode = 254;
},
{
glyphname = q;
kernLeft = c;
kernRight = q;
lastChange = "2024-10-10 15:31:14 +0000";
layers = (
{
anchors = (
{
name = bottom;
pos = (313,0);
},
{
name = top;
pos = (422,515);
}
);
background = {
shapes = (
{
closed = 1;
nodes = (
(539,-200,o),
(564,-174,o),
(564,-139,cs),
(564,454,ls),
(564,489,o),
(539,515,o),
(504,515,cs),
(469,515,o),
(444,489,o),
(444,454,cs),
(444,450,o),
(441,449,o),
(439,453,cs),
(423,485,o),
(368,525,o),
(297,525,cs),
(148,525,o),
(41,415,o),
(41,258,cs),
(41,100,o),
(148,-10,o),
(297,-10,cs),
(368,-10,o),
(423,29,o),
(439,61,cs),
(441,65,o),
(444,64,o),
(444,59,cs),
(444,-139,ls),
(444,-174,o),
(469,-200,o),
(504,-200,cs)
);
},
{
closed = 1;
nodes = (
(398,405,o),
(459,341,o),
(459,258,cs),
(459,174,o),
(398,110,o),
(307,110,cs),
(217,110,o),
(156,174,o),
(156,258,cs),
(156,341,o),
(217,405,o),
(307,405,cs)
);
}
);
};
layerId = "8816CCA3-DDF9-4C51-BD56-64EE3675A105";
shapes = (
{
closed = 1;
nodes = (
(578,535,o),
(547,509,o),
(540,474,c),
(526,411,l),
(565,424,l),
(573,462,o),
(508,545,o),
(394,545,c),
(259,545,o),
(128,431,o),
(93,267,c),
(58,104,o),
(141,-10,o),
(280,-10,c),
(380,-10,o),
(475,67,o),
(482,101,c),
(462,110,l),
(409,-139,l),
(402,-174,o),
(421,-200,o),
(456,-200,c),
(491,-200,o),
(522,-174,o),
(529,-139,c),
(660,474,l),
(667,510,o),
(648,535,o),
(613,535,c)
);
},
{
closed = 1;
nodes = (
(231,100,o),
(188,172,o),
(208,267,c),
(228,362,o),
(302,435,o),
(389,435,c),
(477,435,o),
(521,362,o),
(501,267,c),
(481,172,o),
(406,100,o),
(318,100,c)
);
}
);
width = 647;
},
{
anchors = (
{
name = bottom;
pos = (298,0);
},
{
name = top;
pos = (404,499);
}
);
background = {
shapes = (
{
closed = 1;
nodes = (
(544,-200,o),
(552,-191,o),
(552,-180,cs),
(552,495,ls),
(552,506,o),
(543,515,o),
(532,515,cs),
(520,515,o),
(512,506,o),
(512,495,cs),
(512,413,ls),
(512,408,o),
(509,407,o),
(506,411,c),
(460,480,o),
(385,525,o),
(300,525,cs),
(161,525,o),
(48,405,o),
(48,257,cs),
(48,109,o),
(161,-10,o),
(300,-10,cs),
(385,-10,o),
(460,35,o),
(506,103,c),
(509,107,o),
(512,106,o),
(512,101,cs),
(512,-180,ls),
(512,-191,o),
(520,-200,o),
(532,-200,cs)
);
},
{
closed = 1;
nodes = (
(416,485,o),
(512,383,o),
(512,257,cs),
(512,131,o),
(416,30,o),
(300,30,cs),
(184,30,o),
(88,131,o),
(88,257,cs),
(88,383,o),
(184,485,o),
(300,485,cs)
);
}
);
};
layerId = "254266E2-2911-423D-9D37-8CC6105656EE";
shapes = (
{
closed = 1;
nodes = (
(587,505,o),
(577,496,o),
(575,485,c),
(543,334,l),
(554,309,l),
(579,427,o),
(499,515,o),
(389,515,c),
(257,515,o),
(134,403,o),
(102,253,c),
(70,103,o),
(146,-10,o),
(278,-10,c),
(396,-10,o),
(508,92,o),
(527,184,c),
(506,162,l),
(434,-180,l),
(431,-191,o),
(437,-200,o),
(449,-200,c),
(460,-200,o),
(471,-191,o),
(474,-180,c),
(615,485,l),
(617,496,o),
(611,505,o),
(599,505,c)
);
},
{
closed = 1;
nodes = (
(177,28,o),
(114,124,o),
(142,253,c),
(169,382,o),
(273,477,o),
(383,477,c),
(495,477,o),
(557,382,o),
(530,253,c),
(502,123,o),
(401,28,o),
(288,28,c)
);
}
);
width = 623;
}
);
metricLeft = o;
metricRight = n;
note = q;
unicode = 113;
},
{
glyphname = r;
kernLeft = m;
kernRight = r;
lastChange = "2024-08-16 15:27:50 +0000";
layers = (
{
anchors = (
{
name = bottom;
pos = (122,0);
},
{
name = top;
pos = (326,515);
}
);
layerId = "8816CCA3-DDF9-4C51-BD56-64EE3675A105";
shapes = (
{
closed = 1;
nodes = (
(160,0,o),
(191,26,o),
(198,61,c),
(248,298,l),
(269,394,o),
(335,440,o),
(384,440,cs),
(411,440,o),
(426,426,o),
(451,426,c),
(478,426,o),
(508,444,o),
(518,488,c),
(524,519,o),
(499,545,o),
(459,545,c),
(391,545,o),
(316,512,o),
(273,447,c),
(266,380,l),
(286,474,l),
(293,509,o),
(274,535,o),
(239,535,c),
(204,535,o),
(173,509,o),
(166,474,c),
(78,61,l),
(71,26,o),
(90,0,o),
(125,0,c)
);
}
);
width = 434;
},
{
anchors = (
{
name = bottom;
pos = (103,0);
},
{
name = top;
pos = (290,499);
}
);
layerId = "254266E2-2911-423D-9D37-8CC6105656EE";
shapes = (
{
closed = 1;
nodes = (
(114,0,o),
(125,9,o),
(127,20,c),
(180,270,l),
(200,364,o),
(315,480,o),
(400,480,c),
(421,480,o),
(429,471,o),
(437,471,c),
(447,471,o),
(457,480,o),
(460,492,c),
(464,512,o),
(436,515,o),
(418,515,c),
(288,514,o),
(188,387,o),
(166,284,c),
(189,310,l),
(225,479,l),
(227,490,o),
(221,499,o),
(209,499,c),
(198,499,o),
(187,490,o),
(185,479,c),
(87,20,l),
(85,9,o),
(91,0,o),
(103,0,c)
);
}
);
width = 368;
}
);
metricLeft = n;
note = r;
unicode = 114;
},
{
glyphname = s;
kernLeft = s;
kernRight = s;
lastChange = "2024-08-16 15:27:50 +0000";
layers = (
{
anchors = (
{
name = bottom;
pos = (241,0);
},
{
name = top;
pos = (350,515);
}
);
layerId = "8816CCA3-DDF9-4C51-BD56-64EE3675A105";
shapes = (
{
closed = 1;
nodes = (
(89,13,o),
(169,-10,o),
(248,-10,c),
(341,-10,o),
(457,47,o),
(479,150,c),
(504,267,o),
(415,295,o),
(338,317,c),
(283,333,o),
(235,346,o),
(244,392,c),
(255,442,o),
(302,447,o),
(332,447,c),
(381,447,o),
(416,428,o),
(433,399,c),
(446,383,o),
(477,380,o),
(500,396,c),
(533,419,o),
(533,450,o),
(522,470,c),
(491,523,o),
(417,545,o),
(356,545,c),
(258,545,o),
(149,486,o),
(128,387,c),
(103,269,o),
(198,242,o),
(277,219,c),
(332,203,o),
(379,188,o),
(370,145,c),
(359,93,o),
(308,87,o),
(279,86,c),
(215,86,o),
(181,108,o),
(151,147,cs),
(133,170,o),
(108,170,o),
(84,157,c),
(46,135,o),
(43,102,o),
(52,83,c)
);
}
);
width = 482;
},
{
anchors = (
{
name = bottom;
pos = (233,0);
},
{
name = top;
pos = (339,499);
}
);
layerId = "254266E2-2911-423D-9D37-8CC6105656EE";
shapes = (
{
closed = 1;
nodes = (
(110,16,o),
(170,-10,o),
(240,-10,c),
(342,-10,o),
(426,41,o),
(444,126,c),
(464,221,o),
(399,249,o),
(317,271,cs),
(239,292,o),
(183,317,o),
(193,379,c),
(206,444,o),
(273,477,o),
(339,477,c),
(391,477,o),
(434,458,o),
(461,420,c),
(466,412,o),
(477,413,o),
(486,418,c),
(497,427,o),
(501,440,o),
(492,448,c),
(456,499,o),
(399,515,o),
(351,515,c),
(251,515,o),
(171,457,o),
(155,379,c),
(136,291,o),
(208,254,o),
(297,231,cs),
(359,215,o),
(420,192,o),
(405,124,c),
(392,60,o),
(318,26,o),
(252,26,c),
(178,26,o),
(132,59,o),
(107,109,c),
(101,118,o),
(88,119,o),
(80,112,c),
(68,105,o),
(65,96,o),
(72,80,c)
);
}
);
width = 465;
}
);
note = s;
unicode = 115;
},
{
glyphname = germandbls;
lastChange = "2024-10-10 15:31:14 +0000";
layers = (
{
layerId = "8816CCA3-DDF9-4C51-BD56-64EE3675A105";
shapes = (
{
closed = 1;
nodes = (
(219,0,o),
(250,26,o),
(257,61,c),
(352,506,l),
(368,584,o),
(423,627,o),
(489,627,c),
(550,627,o),
(586,604,o),
(576,556,c),
(566,508,o),
(523,477,o),
(468,452,c),
(449,442,o),
(434,425,o),
(429,398,c),
(423,372,o),
(433,356,o),
(465,346,c),
(535,328,o),
(580,287,o),
(560,195,c),
(548,137,o),
(515,86,o),
(453,86,c),
(430,86,o),
(409,96,o),
(399,109,c),
(381,132,o),
(356,132,o),
(332,119,c),
(294,97,o),
(291,64,o),
(300,45,c),
(314,16,o),
(353,-10,o),
(428,-10,c),
(549,-10,o),
(656,81,o),
(684,211,c),
(710,335,o),
(632,402,o),
(553,430,c),
(556,426,l),
(616,452,o),
(682,496,o),
(698,567,c),
(718,663,o),
(655,737,o),
(519,737,c),
(373,737,o),
(262,647,o),
(231,502,c),
(137,61,l),
(130,26,o),
(149,0,o),
(184,0,c)
);
},
{
closed = 1;
nodes = (
(273,380,l),
(308,380,o),
(319,404,o),
(326,438,c),
(333,471,o),
(332,495,o),
(297,495,c),
(203,495,l),
(168,495,o),
(137,471,o),
(130,438,c),
(123,404,o),
(144,380,o),
(179,380,c)
);
}
);
width = 655;
},
{
layerId = "254266E2-2911-423D-9D37-8CC6105656EE";
shapes = (
{
closed = 1;
nodes = (
(159,0,o),
(167,7,o),
(170,20,c),
(273,493,l),
(291,577,o),
(350,686,o),
(468,686,c),
(544,686,o),
(577,639,o),
(566,589,c),
(560,559,o),
(523,504,o),
(451,491,c),
(440,488,o),
(432,479,o),
(430,471,cs),
(428,461,o),
(433,450,o),
(446,447,c),
(522,429,o),
(605,372,o),
(575,232,c),
(549,107,o),
(440,25,o),
(352,25,c),
(327,25,o),
(306,30,o),
(292,40,c),
(281,48,o),
(269,46,o),
(260,34,c),
(251,23,o),
(254,12,o),
(264,6,c),
(283,-7,o),
(315,-10,o),
(345,-10,c),
(463,-10,o),
(586,93,o),
(616,237,c),
(643,360,o),
(588,446,o),
(496,475,c),
(495,471,l),
(564,492,o),
(600,560,o),
(607,591,c),
(621,660,o),
(585,726,o),
(476,726,c),
(328,726,o),
(253,587,o),
(233,493,c),
(130,20,l),
(127,7,o),
(133,0,o),
(146,0,c)
);
},
{
closed = 1;
nodes = (
(235,465,l),
(245,465,o),
(256,473,o),
(258,484,c),
(260,493,o),
(253,503,o),
(243,503,c),
(182,503,l),
(172,503,o),
(161,495,o),
(159,484,c),
(157,474,o),
(164,465,o),
(174,465,c)
);
}
);
width = 591;
}
);
metricLeft = f;
metricRight = s;
note = germandbls;
unicode = 223;
},
{
glyphname = t;
kernLeft = t;
kernRight = t;
lastChange = "2024-08-16 15:27:50 +0000";
layers = (
{
anchors = (
{
name = bottom;
pos = (197,0);
},
{
name = center;
pos = (252,258);
},
{
name = top;
pos = (314,645);
},
{
name = topright;
pos = (486,525);
}
);
layerId = "8816CCA3-DDF9-4C51-BD56-64EE3675A105";
shapes = (
{
closed = 1;
nodes = (
(151,525,o),
(122,502,o),
(115,471,cs),
(108,439,o),
(127,415,o),
(159,415,cs),
(396,415,ls),
(428,415,o),
(457,438,o),
(464,469,cs),
(470,501,o),
(452,525,o),
(420,525,cs),
(183,525,ls)
);
},
{
closed = 1;
nodes = (
(281,650,o),
(250,624,o),
(242,589,cs),
(147,139,ls),
(119,8,o),
(208,0,o),
(264,0,cs),
(311,0,o),
(366,27,o),
(374,64,cs),
(380,95,o),
(365,113,o),
(347,113,cs),
(330,113,o),
(316,104,o),
(300,104,cs),
(277,104,o),
(261,115,o),
(268,144,cs),
(362,589,ls),
(370,624,o),
(350,650,o),
(316,650,cs)
);
}
);
width = 409;
},
{
anchors = (
{
name = bottom;
pos = (158,0);
},
{
name = center;
pos = (211,250);
},
{
name = top;
pos = (279,650);
},
{
name = topright;
pos = (402,499);
}
);
layerId = "254266E2-2911-423D-9D37-8CC6105656EE";
shapes = (
{
closed = 1;
nodes = (
(134,503,o),
(123,495,o),
(121,484,c),
(119,474,o),
(126,465,o),
(136,465,c),
(368,465,l),
(378,465,o),
(389,473,o),
(391,484,c),
(393,493,o),
(386,503,o),
(376,503,c),
(144,503,l)
);
},
{
closed = 1;
nodes = (
(266,650,o),
(255,641,o),
(253,630,c),
(142,107,l),
(117,-11,o),
(198,0,o),
(215,0,c),
(237,0,o),
(257,10,o),
(260,22,c),
(262,31,o),
(256,40,o),
(247,40,c),
(237,40,o),
(231,36,o),
(222,36,cs),
(197,36,o),
(168,43,o),
(182,109,c),
(293,630,l),
(295,641,o),
(289,650,o),
(277,650,c)
);
}
);
width = 316;
}
);
note = t;
unicode = 116;
},
{
glyphname = u;
kernLeft = u;
kernRight = u;
lastChange = "2024-10-10 15:31:14 +0000";
layers = (
{
anchors = (
{
name = bottom;
pos = (266,0);
},
{
name = ogonek;
pos = (502,10);
},
{
name = top;
pos = (375,515);
},
{
name = topright;
pos = (464,547);
}
);
layerId = "8816CCA3-DDF9-4C51-BD56-64EE3675A105";
shapes = (
{
closed = 1;
nodes = (
(513,535,o),
(482,509,o),
(475,474,c),
(421,220,l),
(403,138,o),
(359,100,o),
(286,100,c),
(214,100,o),
(186,138,o),
(204,220,c),
(258,474,l),
(265,509,o),
(246,535,o),
(211,535,c),
(176,535,o),
(145,509,o),
(138,474,c),
(84,220,l),
(54,78,o),
(115,-10,o),
(263,-10,c),
(411,-10,o),
(511,78,o),
(541,220,c),
(595,474,l),
(602,509,o),
(583,535,o),
(548,535,c)
);
}
);
width = 582;
},
{
anchors = (
{
name = bottom;
pos = (252,0);
},
{
name = ogonek;
pos = (479,10);
},
{
name = top;
pos = (358,499);
},
{
name = topright;
pos = (459,496);
}
);
layerId = "254266E2-2911-423D-9D37-8CC6105656EE";
shapes = (
{
closed = 1;
nodes = (
(524,499,o),
(514,490,o),
(512,479,cs),
(450,188,ls),
(428,86,o),
(356,32,o),
(258,32,cs),
(161,32,o),
(111,86,o),
(133,188,cs),
(195,479,ls),
(197,490,o),
(191,499,o),
(179,499,cs),
(168,499,o),
(157,490,o),
(155,479,cs),
(93,188,ls),
(66,59,o),
(131,-6,o),
(250,-6,cs),
(370,-6,o),
(463,59,o),
(490,188,cs),
(552,479,ls),
(554,490,o),
(548,499,o),
(536,499,cs)
);
}
);
width = 560;
}
);
metricLeft = n;
metricRight = n;
note = u;
unicode = 117;
},
{
glyphname = uogonek;
kernLeft = u;
kernRight = u;
lastChange = "2024-10-10 15:31:14 +0000";
layers = (
{
layerId = "8816CCA3-DDF9-4C51-BD56-64EE3675A105";
shapes = (
{
closed = 1;
nodes = (
(362,-207,o),
(427,-165,o),
(434,-132,c),
(440,-102,o),
(424,-84,o),
(400,-84,c),
(390,-84,o),
(371,-86,o),
(355,-102,c),
(348,-110,o),
(340,-114,o),
(332,-114,c),
(311,-114,o),
(295,-96,o),
(300,-72,c),
(311,-17,o),
(384,15,o),
(432,44,c),
(502,91,o),
(527,153,o),
(541,220,c),
(595,474,l),
(602,509,o),
(583,535,o),
(548,535,c),
(513,535,o),
(482,509,o),
(475,474,c),
(421,220,l),
(403,138,o),
(359,100,o),
(286,100,c),
(214,100,o),
(186,138,o),
(204,220,c),
(258,474,l),
(265,509,o),
(246,535,o),
(211,535,c),
(176,535,o),
(145,509,o),
(138,474,c),
(84,220,l),
(54,78,o),
(115,-10,o),
(263,-10,c),
(271,-10,o),
(280,-10,o),
(288,-10,c),
(431,103,l),
(343,80,o),
(216,2,o),
(197,-88,c),
(182,-159,o),
(230,-207,o),
(302,-207,c)
);
}
);
width = 582;
},
{
layerId = "254266E2-2911-423D-9D37-8CC6105656EE";
shapes = (
{
closed = 1;
nodes = (
(349,-185,o),
(384,-163,o),
(390,-136,c),
(392,-129,o),
(388,-122,o),
(379,-122,c),
(370,-122,o),
(364,-130,o),
(356,-136,cs),
(349,-142,o),
(339,-148,o),
(321,-148,c),
(288,-148,o),
(261,-123,o),
(270,-80,c),
(283,-21,o),
(324,-2,o),
(370,20,c),
(430,49,o),
(473,107,o),
(490,188,c),
(552,479,l),
(554,490,o),
(548,499,o),
(536,499,c),
(524,499,o),
(514,490,o),
(512,479,c),
(450,188,l),
(428,86,o),
(356,32,o),
(258,32,c),
(161,32,o),
(111,86,o),
(133,188,c),
(195,479,l),
(197,490,o),
(191,499,o),
(179,499,c),
(168,499,o),
(157,490,o),
(155,479,c),
(93,188,l),
(66,59,o),
(131,-6,o),
(250,-6,c),
(273,-6,o),
(295,-4,o),
(316,1,c),
(353,36,l),
(302,20,o),
(247,-11,o),
(230,-88,c),
(218,-147,o),
(259,-185,o),
(308,-185,c)
);
}
);
width = 560;
}
);
metricLeft = u;
metricRight = u;
note = uogonek;
unicode = 371;
},
{
glyphname = v;
kernLeft = v;
kernRight = v;
lastChange = "2024-08-16 15:27:50 +0000";
layers = (
{
anchors = (
{
name = bottom;
pos = (281,0);
},
{
name = top;
pos = (390,515);
}
);
layerId = "8816CCA3-DDF9-4C51-BD56-64EE3675A105";
shapes = (
{
closed = 1;
nodes = (
(167,535,o),
(138,506,o),
(132,482,c),
(129,467,o),
(131,457,o),
(133,450,c),
(231,38,l),
(237,10,o),
(259,-4,o),
(286,0,c),
(308,1,o),
(330,15,o),
(345,38,c),
(620,450,l),
(626,459,o),
(632,471,o),
(634,480,c),
(640,510,o),
(623,534,o),
(590,534,c),
(567,535,o),
(545,521,o),
(528,496,c),
(305,151,l),
(329,161,l),
(254,497,l),
(248,522,o),
(228,535,o),
(203,535,c)
);
}
);
width = 562;
},
{
anchors = (
{
name = bottom;
pos = (259,0);
},
{
name = top;
pos = (365,499);
}
);
layerId = "254266E2-2911-423D-9D37-8CC6105656EE";
shapes = (
{
closed = 1;
nodes = (
(154,517,o),
(146,507,o),
(144,497,cs),
(143,494,o),
(143,491,o),
(144,488,c),
(243,13,l),
(244,5,o),
(251,0,o),
(259,0,cs),
(267,0,o),
(276,5,o),
(281,13,c),
(581,489,ls),
(582,491,o),
(585,494,o),
(586,501,cs),
(589,511,o),
(578,517,o),
(571,517,cs),
(561,517,o),
(552,512,o),
(547,504,c),
(263,54,l),
(275,61,l),
(184,504,l),
(183,512,o),
(176,517,o),
(169,517,c)
);
}
);
width = 518;
}
);
note = v;
unicode = 118;
},
{
glyphname = w;
kernLeft = w;
kernRight = w;
lastChange = "2024-10-10 15:31:04 +0000";
layers = (
{
anchors = (
{
name = bottom;
pos = (385,0);
},
{
name = top;
pos = (494,515);
}
);
background = {
shapes = (
{
closed = 1;
nodes = (
(671,525,o),
(635,513,o),
(624,479,cs),
(535,207,l),
(543,211,l),
(452,388,ls),
(441,406,o),
(424,425,o),
(395,425,cs),
(370,425,o),
(352,412,o),
(338,388,cs),
(247,211,l),
(253,209,l),
(166,479,ls),
(155,513,o),
(119,525,o),
(87,512,cs),
(55,498,o),
(44,464,o),
(55,432,cs),
(188,38,ls),
(197,11,o),
(225,-4,o),
(251,0,c),
(273,1,o),
(291,15,o),
(302,38,cs),
(398,234,l),
(392,235,l),
(488,38,ls),
(499,15,o),
(517,1,o),
(539,0,c),
(565,-4,o),
(593,11,o),
(602,38,cs),
(735,432,ls),
(746,464,o),
(735,498,o),
(703,512,cs)
);
}
);
};
layerId = "8816CCA3-DDF9-4C51-BD56-64EE3675A105";
shapes = (
{
closed = 1;
nodes = (
(767,535,o),
(743,522,o),
(730,497,c),
(536,167,l),
(567,171,l),
(529,418,l),
(524,442,o),
(514,455,o),
(485,455,c),
(460,455,o),
(438,443,o),
(422,418,c),
(278,171,l),
(303,169,l),
(252,497,l),
(249,523,o),
(230,535,o),
(205,535,c),
(168,535,o),
(138,505,o),
(132,473,c),
(130,465,o),
(129,458,o),
(131,450,c),
(196,38,l),
(199,11,o),
(224,-4,o),
(251,0,c),
(273,1,o),
(294,15,o),
(310,38,c),
(463,322,l),
(438,323,l),
(476,38,l),
(482,15,o),
(497,1,o),
(519,0,c),
(544,-4,o),
(575,11,o),
(590,38,c),
(831,450,l),
(834,457,o),
(838,464,o),
(840,473,c),
(847,509,o),
(827,535,o),
(796,535,c)
);
}
);
width = 768;
},
{
anchors = (
{
name = bottom;
pos = (373,0);
},
{
name = top;
pos = (475,479);
}
);
layerId = "254266E2-2911-423D-9D37-8CC6105656EE";
shapes = (
{
closed = 1;
nodes = (
(789,517,o),
(781,512,o),
(776,504,cs),
(531,44,l),
(551,44,l),
(473,397,ls),
(472,405,o),
(465,410,o),
(457,410,cs),
(449,410,o),
(440,405,o),
(435,397,cs),
(219,45,l),
(236,45,l),
(184,504,ls),
(183,512,o),
(177,517,o),
(169,517,cs),
(157,517,o),
(146,510,o),
(144,498,cs),
(143,496,o),
(143,491,o),
(144,488,cs),
(203,13,ls),
(204,5,o),
(211,0,o),
(219,0,cs),
(227,0,o),
(236,5,o),
(241,13,cs),
(449,355,l),
(436,360,l),
(516,13,l),
(518,5,o),
(524,0,o),
(532,0,cs),
(540,0,o),
(548,5,o),
(554,13,c),
(810,488,ls),
(811,491,o),
(813,496,o),
(814,498,cs),
(817,511,o),
(808,517,o),
(797,517,cs)
);
}
);
width = 746;
}
);
metricLeft = v;
metricRight = v;
note = w;
unicode = 119;
},
{
glyphname = x;
kernLeft = x;
kernRight = x;
lastChange = "2024-08-16 15:27:50 +0000";
layers = (
{
anchors = (
{
name = bottom;
pos = (244,0);
},
{
name = top;
pos = (353,515);
}
);
layerId = "8816CCA3-DDF9-4C51-BD56-64EE3675A105";
shapes = (
{
closed = 1;
nodes = (
(158,535,o),
(123,509,o),
(116,475,cs),
(113,463,o),
(115,450,o),
(121,439,cs),
(367,24,ls),
(376,7,o),
(392,-2,o),
(411,-2,cs),
(441,-2,o),
(477,25,o),
(485,59,cs),
(487,71,o),
(486,84,o),
(479,95,cs),
(233,510,ls),
(224,526,o),
(208,535,o),
(190,535,cs)
);
},
{
closed = 1;
nodes = (
(95,-1,o),
(115,8,o),
(130,24,cs),
(284,177,l),
(245,277,l),
(52,90,ls),
(40,78,o),
(32,65,o),
(29,52,cs),
(23,23,o),
(50,-1,o),
(77,-1,cs)
);
},
{
closed = 1;
nodes = (
(505,535,o),
(487,526,o),
(470,508,cs),
(312,345,l),
(357,258,l),
(547,442,ls),
(560,454,o),
(566,468,o),
(569,481,cs),
(575,509,o),
(556,535,o),
(524,535,cs)
);
}
);
width = 487;
},
{
anchors = (
{
name = bottom;
pos = (242,0);
},
{
name = top;
pos = (348,499);
}
);
layerId = "254266E2-2911-423D-9D37-8CC6105656EE";
shapes = (
{
closed = 1;
nodes = (
(158,510,o),
(146,501,o),
(144,489,cs),
(143,485,o),
(143,481,o),
(145,477,cs),
(407,5,ls),
(411,-1,o),
(416,-4,o),
(422,-4,cs),
(432,-4,o),
(443,5,o),
(445,16,cs),
(446,20,o),
(446,24,o),
(444,28,c),
(183,501,ls),
(181,507,o),
(175,510,o),
(169,510,cs)
);
},
{
closed = 1;
nodes = (
(66,-4,o),
(73,-1,o),
(78,4,c),
(292,223,l),
(275,254,l),
(52,27,ls),
(48,23,o),
(46,19,o),
(45,15,cs),
(42,2,o),
(50,-4,o),
(60,-4,cs)
);
},
{
closed = 1;
nodes = (
(525,510,o),
(519,507,o),
(512,501,cs),
(301,281,l),
(314,246,l),
(539,480,ls),
(543,484,o),
(546,489,o),
(547,493,cs),
(549,502,o),
(544,510,o),
(531,510,cs)
);
}
);
width = 483;
}
);
note = x;
unicode = 120;
},
{
glyphname = y;
kernLeft = y;
kernRight = y;
lastChange = "2024-10-10 15:31:14 +0000";
layers = (
{
anchors = (
{
name = bottom;
pos = (597,0);
},
{
name = top;
pos = (418,515);
}
);
layerId = "8816CCA3-DDF9-4C51-BD56-64EE3675A105";
shapes = (
{
closed = 1;
nodes = (
(556,535,o),
(525,509,o),
(518,474,cs),
(463,218,ls),
(447,141,o),
(398,100,o),
(329,100,cs),
(261,100,o),
(228,131,o),
(246,218,cs),
(301,474,ls),
(308,509,o),
(289,535,o),
(254,535,cs),
(219,535,o),
(188,509,o),
(181,474,cs),
(119,182,ls),
(95,70,o),
(148,-10,o),
(254,-10,cs),
(344,-10,o),
(410,22,o),
(458,88,c),
(442,112,l),
(428,45,l),
(406,-57,o),
(352,-90,o),
(261,-90,cs),
(215,-90,o),
(184,-71,o),
(164,-64,cs),
(138,-54,o),
(105,-67,o),
(84,-106,cs),
(69,-136,o),
(78,-163,o),
(115,-180,cs),
(143,-193,o),
(194,-200,o),
(237,-200,cs),
(380,-200,o),
(508,-135,o),
(547,49,cs),
(638,474,ls),
(645,509,o),
(626,535,o),
(591,535,cs)
);
}
);
width = 625;
},
{
anchors = (
{
name = bottom;
pos = (311,0);
},
{
name = top;
pos = (417,499);
}
);
layerId = "254266E2-2911-423D-9D37-8CC6105656EE";
shapes = (
{
closed = 1;
nodes = (
(586,515,o),
(577,506,o),
(574,495,c),
(508,183,l),
(492,106,o),
(386,28,o),
(297,28,c),
(197,28,o),
(172,88,o),
(192,183,c),
(258,495,l),
(261,506,o),
(254,515,o),
(242,515,c),
(230,515,o),
(221,506,o),
(218,495,c),
(152,183,l),
(127,68,o),
(164,-10,o),
(289,-10,c),
(364,-10,o),
(450,37,o),
(492,98,c),
(495,123,l),
(479,49,l),
(453,-77,o),
(356,-164,o),
(240,-164,c),
(183,-164,o),
(139,-140,o),
(119,-126,c),
(110,-120,o),
(98,-125,o),
(91,-135,c),
(84,-146,o),
(88,-155,o),
(97,-162,c),
(123,-183,o),
(168,-200,o),
(230,-200,c),
(365,-200,o),
(487,-105,o),
(519,49,c),
(614,495,l),
(617,506,o),
(610,515,o),
(598,515,c)
);
}
);
width = 623;
}
);
metricLeft = n;
metricRight = n;
note = y;
unicode = 121;
},
{
glyphname = z;
kernLeft = z;
kernRight = z;
lastChange = "2024-08-16 15:27:50 +0000";
layers = (
{
anchors = (
{
name = bottom;
pos = (242,0);
},
{
name = top;
pos = (351,515);
}
);
layerId = "8816CCA3-DDF9-4C51-BD56-64EE3675A105";
shapes = (
{
closed = 1;
nodes = (
(215,110,l),
(214,104,l),
(526,421,l),
(545,439,o),
(549,452,o),
(553,465,c),
(563,499,o),
(544,525,o),
(513,525,c),
(205,525,l),
(173,525,o),
(144,502,o),
(137,471,c),
(130,439,o),
(149,415,o),
(181,415,c),
(384,415,l),
(389,429,l),
(72,107,l),
(51,87,o),
(47,74,o),
(41,54,c),
(35,30,o),
(50,0,o),
(84,0,c),
(406,0,l),
(438,0,o),
(467,24,o),
(474,55,c),
(480,87,o),
(461,110,o),
(429,110,c)
);
}
);
width = 484;
},
{
anchors = (
{
name = bottom;
pos = (234,0);
},
{
name = top;
pos = (368,499);
}
);
layerId = "254266E2-2911-423D-9D37-8CC6105656EE";
shapes = (
{
closed = 1;
nodes = (
(95,38,l),
(109,33,l),
(524,481,l),
(528,485,o),
(531,490,o),
(532,495,c),
(534,506,o),
(527,515,o),
(516,515,c),
(210,515,l),
(199,515,o),
(189,507,o),
(186,496,c),
(184,486,o),
(191,477,o),
(202,477,c),
(483,477,l),
(480,485,l),
(62,33,l),
(58,29,o),
(55,25,o),
(54,20,cs),
(53,13,o),
(58,0,o),
(71,0,c),
(397,0,l),
(408,0,o),
(419,8,o),
(421,19,c),
(423,28,o),
(416,38,o),
(405,38,c)
);
}
);
width = 477;
}
);
note = z;
unicode = 122;
},
{
glyphname = a.ss01;
kernLeft = a;
lastChange = "2024-08-16 15:27:50 +0000";
layers = (
{
anchors = (
{
name = bottom;
pos = (302,0);
},
{
name = ogonek;
pos = (547,0);
},
{
name = top;
pos = (381,515);
}
);
layerId = "8816CCA3-DDF9-4C51-BD56-64EE3675A105";
shapes = (
{
closed = 1;
nodes = (
(221,90,o),
(186,118,o),
(197,168,c),
(207,218,o),
(255,247,o),
(319,247,c),
(383,247,o),
(416,218,o),
(406,168,c),
(395,118,o),
(349,90,o),
(285,90,c)
);
},
{
closed = 1;
nodes = (
(292,-10,o),
(374,40,o),
(409,93,c),
(375,83,l),
(374,40,o),
(395,0,o),
(444,0,c),
(503,0,o),
(557,33,o),
(567,80,c),
(573,108,o),
(560,118,o),
(547,118,c),
(530,118,o),
(519,109,o),
(511,109,c),
(505,109,o),
(502,117,o),
(504,129,c),
(550,346,l),
(579,487,o),
(499,545,o),
(380,545,c),
(269,545,o),
(193,500,o),
(159,470,c),
(138,452,o),
(133,437,o),
(130,424,c),
(124,395,o),
(148,367,o),
(174,367,c),
(191,367,o),
(209,375,o),
(223,388,c),
(264,426,o),
(315,435,o),
(353,435,c),
(404,435,o),
(443,404,o),
(429,339,c),
(409,246,l),
(479,161,l),
(499,252,o),
(449,344,o),
(324,344,c),
(222,344,o),
(101,283,o),
(75,161,c),
(55,68,o),
(103,-10,o),
(218,-10,c)
);
}
);
width = 565;
},
{
anchors = (
{
name = bottom;
pos = (258,0);
},
{
name = ogonek;
pos = (503,0);
},
{
name = top;
pos = (374,515);
}
);
layerId = "254266E2-2911-423D-9D37-8CC6105656EE";
shapes = (
{
closed = 1;
nodes = (
(162,28,o),
(108,73,o),
(123,148,c),
(139,222,o),
(214,266,o),
(298,266,c),
(386,266,o),
(438,222,o),
(422,148,c),
(407,74,o),
(336,28,o),
(248,28,c)
);
},
{
closed = 1;
nodes = (
(307,-10,o),
(376,20,o),
(424,85,c),
(401,60,l),
(405,28,o),
(421,0,o),
(454,0,c),
(484,0,o),
(527,15,o),
(531,32,c),
(533,41,o),
(528,50,o),
(518,50,c),
(500,50,o),
(488,36,o),
(471,36,c),
(455,36,o),
(439,51,o),
(446,85,c),
(506,365,l),
(530,478,o),
(459,515,o),
(358,515,c),
(281,515,o),
(199,479,o),
(147,419,c),
(143,415,o),
(141,411,o),
(141,407,c),
(139,398,o),
(144,389,o),
(154,389,c),
(161,389,o),
(166,392,o),
(173,398,c),
(212,443,o),
(285,477,o),
(347,477,c),
(425,477,o),
(482,441,o),
(465,362,c),
(434,215,l),
(445,228,l),
(428,273,o),
(368,304,o),
(304,304,c),
(213,304,o),
(104,245,o),
(83,146,c),
(65,63,o),
(114,-10,o),
(219,-10,c)
);
}
);
width = 529;
}
);
},
{
glyphname = aogonek.ss01;
lastChange = "2024-08-16 15:27:50 +0000";
layers = (
{
anchors = (
{
name = _ogonek;
pos = (547,0);
},
{
name = bottom;
pos = (302,0);
},
{
name = ogonek;
pos = (547,0);
},
{
name = top;
pos = (381,515);
}
);
layerId = "8816CCA3-DDF9-4C51-BD56-64EE3675A105";
shapes = (
{
closed = 1;
nodes = (
(221,90,o),
(186,118,o),
(197,168,c),
(207,218,o),
(255,247,o),
(319,247,c),
(383,247,o),
(416,218,o),
(406,168,c),
(395,118,o),
(349,90,o),
(285,90,c)
);
},
{
closed = 1;
nodes = (
(450,-217,o),
(515,-175,o),
(522,-142,cs),
(528,-112,o),
(512,-94,o),
(488,-94,cs),
(478,-94,o),
(459,-96,o),
(443,-112,cs),
(435,-120,o),
(428,-124,o),
(420,-124,cs),
(404,-124,o),
(391,-112,o),
(396,-88,cs),
(402,-62,o),
(431,-13,o),
(487,3,cs),
(536,17,o),
(564,40,o),
(571,75,c),
(577,103,o),
(564,113,o),
(551,113,c),
(534,113,o),
(523,104,o),
(515,104,c),
(505,104,o),
(501,112,o),
(505,131,c),
(550,346,l),
(579,487,o),
(499,545,o),
(380,545,c),
(269,545,o),
(193,500,o),
(159,470,c),
(138,452,o),
(133,437,o),
(130,424,c),
(124,395,o),
(148,367,o),
(174,367,c),
(191,367,o),
(209,375,o),
(223,388,c),
(264,426,o),
(315,435,o),
(353,435,c),
(404,435,o),
(443,404,o),
(429,339,c),
(409,246,l),
(479,161,l),
(499,252,o),
(449,344,o),
(324,344,c),
(222,344,o),
(101,283,o),
(77,170,c),
(55,68,o),
(111,-10,o),
(222,-10,c),
(282,-10,o),
(363,22,o),
(406,79,c),
(378,100,l),
(365,39,o),
(387,0,o),
(453,0,c),
(510,53,l),
(427,32,o),
(316,-2,o),
(293,-110,cs),
(277,-184,o),
(324,-217,o),
(390,-217,cs)
);
}
);
width = 570;
},
{
anchors = (
{
name = _ogonek;
pos = (501,0);
},
{
name = bottom;
pos = (256,0);
},
{
name = ogonek;
pos = (501,0);
},
{
name = top;
pos = (335,515);
}
);
layerId = "254266E2-2911-423D-9D37-8CC6105656EE";
shapes = (
{
closed = 1;
nodes = (
(168,28,o),
(126,74,o),
(141,148,c),
(157,222,o),
(224,266,o),
(312,266,c),
(394,266,o),
(436,222,o),
(420,148,c),
(405,74,o),
(338,28,o),
(256,28,c)
);
},
{
closed = 1;
nodes = (
(433,-195,o),
(468,-173,o),
(474,-146,c),
(475,-139,o),
(472,-132,o),
(463,-132,c),
(454,-132,o),
(447,-138,o),
(439,-147,cs),
(432,-154,o),
(421,-158,o),
(404,-158,c),
(376,-158,o),
(354,-135,o),
(363,-95,c),
(373,-49,o),
(430,-19,o),
(470,-1,cs),
(485,6,o),
(504,9,o),
(507,22,c),
(509,31,o),
(504,40,o),
(494,40,c),
(484,40,o),
(478,36,o),
(469,36,c),
(453,36,o),
(434,39,o),
(441,69,c),
(504,365,l),
(530,488,o),
(454,515,o),
(358,515,c),
(281,515,o),
(207,479,o),
(155,419,c),
(151,415,o),
(149,411,o),
(149,407,c),
(147,398,o),
(152,389,o),
(162,389,c),
(169,389,o),
(174,392,o),
(181,398,c),
(220,443,o),
(285,477,o),
(347,477,c),
(420,477,o),
(484,461,o),
(463,362,c),
(432,215,l),
(447,232,l),
(432,277,o),
(378,304,o),
(318,304,c),
(222,304,o),
(115,244,o),
(94,145,c),
(75,55,o),
(126,-10,o),
(237,-10,c),
(315,-10,o),
(390,23,o),
(423,91,c),
(400,66,l),
(391,24,o),
(405,0,o),
(452,0,c),
(432,7,l),
(388,-7,o),
(336,-41,o),
(323,-103,c),
(311,-159,o),
(348,-195,o),
(392,-195,c)
);
}
);
width = 507;
}
);
},
{
glyphname = g.ss01;
lastChange = "2024-08-16 15:27:50 +0000";
layers = (
{
anchors = (
{
name = bottom;
pos = (266,0);
},
{
name = top;
pos = (366,499);
}
);
layerId = "8816CCA3-DDF9-4C51-BD56-64EE3675A105";
shapes = (
{
closed = 1;
nodes = (
(592,459,o),
(509,545,o),
(378,545,c),
(246,545,o),
(128,459,o),
(102,337,c),
(76,215,o),
(158,130,o),
(290,130,c),
(421,130,o),
(540,215,o),
(566,337,c)
);
},
{
closed = 1;
nodes = (
(431,268,o),
(375,225,o),
(310,225,c),
(245,225,o),
(207,268,o),
(221,332,c),
(234,397,o),
(291,440,o),
(356,440,c),
(421,440,o),
(458,397,o),
(445,332,c)
);
},
{
closed = 1;
nodes = (
(410,82,o),
(456,43,o),
(447,0,c),
(434,-60,o),
(349,-96,o),
(243,-96,c),
(196,-96,o),
(160,-81,o),
(142,-72,c),
(123,-58,o),
(108,-34,o),
(75,-34,c),
(45,-34,o),
(22,-62,o),
(16,-89,c),
(4,-148,o),
(79,-206,o),
(216,-206,c),
(397,-206,o),
(544,-108,o),
(569,8,c),
(592,118,o),
(499,189,o),
(311,189,c),
(229,184,l),
(231,110,l),
(232,87,o),
(249,82,o),
(268,82,c)
);
},
{
closed = 1;
nodes = (
(644,439,l),
(657,448,o),
(665,463,o),
(669,476,c),
(679,511,o),
(656,534,o),
(627,534,c),
(613,534,o),
(596,530,o),
(583,517,c),
(468,406,l),
(514,348,l)
);
}
);
width = 583;
},
{
anchors = (
{
name = bottom;
pos = (216,0);
},
{
name = top;
pos = (336,499);
}
);
layerId = "254266E2-2911-423D-9D37-8CC6105656EE";
shapes = (
{
closed = 1;
nodes = (
(527,437,o),
(454,515,o),
(341,515,c),
(227,515,o),
(123,437,o),
(100,327,c),
(76,217,o),
(148,140,o),
(262,140,c),
(375,140,o),
(480,217,o),
(504,327,c)
);
},
{
closed = 1;
nodes = (
(446,233,o),
(364,174,o),
(269,174,c),
(174,174,o),
(120,233,o),
(139,325,c),
(159,418,o),
(238,477,o),
(333,477,c),
(428,477,o),
(485,418,o),
(465,325,c)
);
},
{
closed = 1;
nodes = (
(408,126,o),
(459,56,o),
(444,-15,c),
(423,-112,o),
(319,-162,o),
(189,-162,c),
(130,-162,o),
(74,-142,o),
(61,-123,c),
(53,-111,o),
(45,-98,o),
(34,-98,c),
(22,-98,o),
(11,-107,o),
(8,-121,c),
(4,-140,o),
(49,-200,o),
(177,-200,c),
(324,-200,o),
(459,-132,o),
(484,-15,c),
(505,86,o),
(429,159,o),
(265,159,c),
(195,168,l),
(199,145,l),
(201,130,o),
(218,126,o),
(238,126,c)
);
},
{
closed = 1;
nodes = (
(582,466,l),
(595,476,o),
(601,482,o),
(604,492,c),
(606,505,o),
(596,515,o),
(585,515,c),
(571,515,o),
(564,510,o),
(552,497,c),
(481,429,l),
(481,395,l)
);
}
);
width = 520;
}
);
},
{
glyphname = ordfeminine;
lastChange = "2024-08-16 15:27:50 +0000";
layers = (
{
layerId = "8816CCA3-DDF9-4C51-BD56-64EE3675A105";
shapes = (
{
closed = 1;
nodes = (
(292,391,o),
(347,466,o),
(358,516,c),
(335,474,l),
(328,441,l),
(323,418,o),
(339,401,o),
(369,401,c),
(395,401,o),
(423,417,o),
(428,441,c),
(479,684,l),
(484,705,o),
(468,724,o),
(438,724,c),
(408,724,o),
(384,704,o),
(379,684,c),
(374,657,l),
(375,596,l),
(393,684,o),
(368,725,o),
(307,725,c),
(216,725,o),
(149,653,o),
(130,565,c),
(110,470,o),
(135,391,o),
(222,391,c)
);
},
{
closed = 1;
nodes = (
(230,469,o),
(219,513,o),
(230,565,c),
(239,609,o),
(276,647,o),
(311,647,c),
(353,647,o),
(368,611,o),
(356,555,c),
(344,500,o),
(309,469,o),
(277,469,c)
);
}
);
width = 354;
},
{
layerId = "254266E2-2911-423D-9D37-8CC6105656EE";
shapes = (
{
closed = 1;
nodes = (
(301,391,o),
(371,453,o),
(382,503,c),
(360,474,l),
(348,421,l),
(346,410,o),
(352,401,o),
(364,401,c),
(375,401,o),
(386,409,o),
(388,421,c),
(442,674,l),
(445,685,o),
(439,694,o),
(427,694,c),
(415,694,o),
(404,684,o),
(402,674,c),
(392,624,l),
(399,583,l),
(416,665,o),
(373,710,o),
(308,710,c),
(233,710,o),
(162,643,o),
(143,555,c),
(124,465,o),
(150,391,o),
(232,391,c)
);
},
{
closed = 1;
nodes = (
(186,429,o),
(168,486,o),
(183,555,c),
(197,622,o),
(254,672,o),
(307,672,c),
(365,672,o),
(397,629,o),
(381,555,c),
(364,476,o),
(310,429,o),
(247,429,c)
);
}
);
width = 349;
}
);
note = ordfeminine;
unicode = 170;
},
{
glyphname = ordmasculine;
lastChange = "2024-08-16 15:27:50 +0000";
layers = (
{
layerId = "8816CCA3-DDF9-4C51-BD56-64EE3675A105";
shapes = (
{
closed = 1;
nodes = (
(471,640,o),
(417,710,o),
(325,710,c),
(234,710,o),
(151,640,o),
(132,549,c),
(113,459,o),
(166,392,o),
(257,392,c),
(349,392,o),
(433,459,o),
(452,549,c)
);
},
{
closed = 1;
nodes = (
(348,507,o),
(316,477,o),
(275,477,c),
(235,477,o),
(218,507,o),
(227,549,c),
(236,593,o),
(267,625,o),
(307,625,c),
(348,625,o),
(366,593,o),
(357,549,c)
);
}
);
width = 350;
},
{
layerId = "254266E2-2911-423D-9D37-8CC6105656EE";
shapes = (
{
closed = 1;
nodes = (
(459,640,o),
(410,710,o),
(324,710,c),
(239,710,o),
(161,640,o),
(142,549,c),
(123,459,o),
(171,392,o),
(256,392,c),
(342,392,o),
(421,459,o),
(440,549,c)
);
},
{
closed = 1;
nodes = (
(387,482,o),
(332,429,o),
(264,429,c),
(197,429,o),
(165,482,o),
(180,549,c),
(195,620,o),
(249,672,o),
(316,672,c),
(384,672,o),
(417,620,o),
(402,549,c)
);
}
);
width = 348;
}
);
note = ordmasculine;
unicode = 186;
},
{
glyphname = pi;
lastChange = "2024-08-16 15:27:50 +0000";
layers = (
{
layerId = "8816CCA3-DDF9-4C51-BD56-64EE3675A105";
shapes = (
{
closed = 1;
nodes = (
(166,0,o),
(191,21,o),
(197,49,cs),
(275,413,ls),
(275,416,o),
(278,418,o),
(281,418,cs),
(473,418,ls),
(476,418,o),
(477,416,o),
(477,413,cs),
(399,49,ls),
(393,21,o),
(409,0,o),
(437,0,cs),
(465,0,o),
(490,21,o),
(496,49,cs),
(574,413,ls),
(574,416,o),
(577,418,o),
(580,418,cs),
(596,418,ls),
(624,418,o),
(649,438,o),
(655,466,cs),
(661,494,o),
(644,515,o),
(616,515,cs),
(178,515,ls),
(150,515,o),
(125,495,o),
(119,467,cs),
(113,439,o),
(130,418,o),
(158,418,cs),
(174,418,ls),
(177,418,o),
(178,416,o),
(178,413,cs),
(100,49,ls),
(94,21,o),
(110,0,o),
(138,0,cs)
);
}
);
width = 590;
},
{
layerId = "254266E2-2911-423D-9D37-8CC6105656EE";
shapes = (
{
closed = 1;
nodes = (
(161,0,o),
(171,9,o),
(173,20,cs),
(269,470,ls),
(270,473,o),
(272,475,o),
(275,475,cs),
(545,475,ls),
(548,475,o),
(550,473,o),
(549,470,cs),
(453,20,ls),
(451,9,o),
(457,0,o),
(469,0,cs),
(481,0,o),
(491,9,o),
(493,20,cs),
(589,470,ls),
(590,473,o),
(592,475,o),
(595,475,cs),
(655,475,ls),
(666,475,o),
(677,483,o),
(679,495,cs),
(682,507,o),
(674,515,o),
(663,515,cs),
(174,515,ls),
(163,515,o),
(153,507,o),
(150,495,cs),
(148,483,o),
(155,475,o),
(166,475,cs),
(225,475,ls),
(228,475,o),
(230,473,o),
(229,470,cs),
(133,20,ls),
(131,9,o),
(137,0,o),
(149,0,cs)
);
}
);
width = 619;
}
);
note = pi;
unicode = 960;
},
{
glyphname = zero;
lastChange = "2024-08-16 15:27:50 +0000";
layers = (
{
anchors = (
{
name = center;
pos = (385,351);
}
);
layerId = "8816CCA3-DDF9-4C51-BD56-64EE3675A105";
shapes = (
{
closed = 1;
nodes = (
(477,-10,o),
(603,137,o),
(648,350,c),
(694,563,o),
(630,710,o),
(458,710,c),
(286,710,o),
(160,563,o),
(114,350,c),
(69,137,o),
(133,-10,o),
(305,-10,c)
);
},
{
closed = 1;
nodes = (
(247,110,o),
(210,189,o),
(244,350,c),
(279,511,o),
(349,590,o),
(432,590,c),
(515,590,o),
(553,511,o),
(518,350,c),
(484,189,o),
(413,110,o),
(330,110,c)
);
}
);
width = 614;
},
{
anchors = (
{
name = center;
pos = (358,351);
}
);
layerId = "254266E2-2911-423D-9D37-8CC6105656EE";
shapes = (
{
closed = 1;
nodes = (
(451,-10,o),
(560,151,o),
(602,350,c),
(645,549,o),
(604,710,o),
(445,710,c),
(286,710,o),
(177,549,o),
(134,350,c),
(92,151,o),
(133,-10,o),
(292,-10,c)
);
},
{
closed = 1;
nodes = (
(173,32,o),
(137,165,o),
(176,350,c),
(216,536,o),
(308,668,o),
(436,668,c),
(564,668,o),
(600,536,o),
(560,350,c),
(521,165,o),
(429,32,o),
(301,32,c)
);
}
);
width = 588;
}
);
note = zero;
unicode = 48;
},
{
glyphname = one;
lastChange = "2024-08-16 15:27:50 +0000";
layers = (
{
layerId = "8816CCA3-DDF9-4C51-BD56-64EE3675A105";
shapes = (
{
closed = 1;
nodes = (
(261,0,o),
(295,26,o),
(302,61,c),
(425,639,l),
(432,674,o),
(413,700,o),
(379,700,c),
(362,700,o),
(346,697,o),
(334,691,c),
(164,601,l),
(142,590,o),
(126,570,o),
(122,549,cs),
(115,519,o),
(134,488,o),
(169,488,cs),
(180,488,o),
(191,491,o),
(203,497,c),
(288,543,l),
(279,565,l),
(172,61,l),
(165,26,o),
(186,0,o),
(223,0,c)
);
}
);
width = 364;
},
{
layerId = "254266E2-2911-423D-9D37-8CC6105656EE";
shapes = (
{
closed = 1;
nodes = (
(214,0,o),
(225,9,o),
(227,20,c),
(368,680,l),
(370,690,o),
(365,698,o),
(357,700,c),
(352,701,o),
(346,701,o),
(339,697,c),
(142,592,l),
(134,587,o),
(128,581,o),
(127,575,cs),
(125,566,o),
(133,553,o),
(145,553,cs),
(147,553,o),
(150,553,o),
(153,555,c),
(329,648,l),
(320,654,l),
(185,20,l),
(183,9,o),
(190,0,o),
(202,0,c)
);
}
);
width = 323;
}
);
note = one;
unicode = 49;
},
{
glyphname = two;
lastChange = "2024-08-16 15:27:50 +0000";
layers = (
{
layerId = "8816CCA3-DDF9-4C51-BD56-64EE3675A105";
shapes = (
{
closed = 1;
nodes = (
(248,110,l),
(257,101,l),
(423,245,l),
(509,320,o),
(578,409,o),
(596,494,c),
(622,618,o),
(557,710,o),
(422,710,c),
(360,710,o),
(281,676,o),
(220,626,cs),
(192,603,o),
(171,582,o),
(166,560,c),
(160,531,o),
(184,505,o),
(213,505,c),
(226,505,o),
(244,508,o),
(264,529,cs),
(304,571,o),
(353,600,o),
(392,600,c),
(448,600,o),
(487,550,o),
(474,489,c),
(464,442,o),
(420,386,o),
(361,334,c),
(93,101,l),
(79,88,o),
(69,72,o),
(66,57,c),
(59,24,o),
(75,0,o),
(110,0,c),
(450,0,l),
(482,0,o),
(511,23,o),
(517,54,c),
(524,86,o),
(505,110,o),
(473,110,c)
);
}
);
width = 536;
},
{
layerId = "254266E2-2911-423D-9D37-8CC6105656EE";
shapes = (
{
closed = 1;
nodes = (
(154,40,l),
(160,28,l),
(427,272,l),
(551,382,o),
(596,448,o),
(611,517,c),
(635,630,o),
(577,710,o),
(439,710,c),
(353,710,o),
(267,668,o),
(218,586,c),
(213,578,o),
(210,573,o),
(209,568,c),
(207,560,o),
(218,552,o),
(227,552,c),
(238,552,o),
(246,561,o),
(250,568,c),
(291,643,o),
(359,670,o),
(427,670,c),
(539,670,o),
(587,612,o),
(566,513,c),
(552,445,o),
(498,382,o),
(399,296,c),
(108,34,l),
(104,30,o),
(102,26,o),
(100,21,c),
(97,5,o),
(109,0,o),
(121,0,cs),
(507,0,l),
(518,0,o),
(529,8,o),
(531,20,c),
(534,31,o),
(527,40,o),
(516,40,c)
);
}
);
width = 577;
}
);
note = two;
unicode = 50;
},
{
glyphname = three;
lastChange = "2024-08-16 15:27:50 +0000";
layers = (
{
layerId = "8816CCA3-DDF9-4C51-BD56-64EE3675A105";
shapes = (
{
closed = 1;
nodes = (
(98,141,o),
(67,107,o),
(60,77,c),
(57,59,o),
(60,39,o),
(86,23,c),
(117,3,o),
(165,-10,o),
(214,-10,c),
(374,-10,o),
(499,82,o),
(531,230,c),
(554,341,o),
(501,444,o),
(383,444,c),
(365,444,o),
(333,437,o),
(318,431,c),
(337,397,l),
(556,592,l),
(573,606,o),
(586,623,o),
(590,640,c),
(597,674,o),
(582,700,o),
(541,700,c),
(235,700,l),
(203,700,o),
(174,677,o),
(167,646,c),
(161,614,o),
(179,590,o),
(211,590,c),
(457,590,l),
(435,613,l),
(218,421,l),
(200,404,o),
(190,391,o),
(186,372,c),
(180,343,o),
(192,318,o),
(223,318,c),
(259,318,o),
(278,335,o),
(322,335,c),
(380,335,o),
(425,296,o),
(409,221,c),
(392,141,o),
(321,93,o),
(260,93,c),
(219,93,o),
(190,109,o),
(172,126,c),
(156,138,o),
(144,141,o),
(132,141,c)
);
}
);
width = 522;
},
{
layerId = "254266E2-2911-423D-9D37-8CC6105656EE";
shapes = (
{
closed = 1;
nodes = (
(88,90,o),
(77,78,o),
(74,68,c),
(73,63,o),
(74,58,o),
(77,54,c),
(109,10,o),
(163,-10,o),
(220,-10,c),
(348,-10,o),
(479,83,o),
(508,221,c),
(540,371,o),
(442,442,o),
(336,442,c),
(322,442,o),
(292,437,o),
(291,433,c),
(310,427,l),
(572,665,l),
(577,669,o),
(580,674,o),
(581,679,cs),
(582,684,o),
(582,700,o),
(565,700,c),
(219,700,l),
(208,700,o),
(197,692,o),
(195,680,c),
(192,669,o),
(199,660,o),
(210,660,c),
(532,660,l),
(529,674,l),
(263,434,l),
(258,430,o),
(256,425,o),
(255,420,cs),
(253,407,o),
(259,398,o),
(271,398,cs),
(273,398,o),
(298,401,o),
(312,401,cs),
(404,401,o),
(493,349,o),
(466,221,c),
(442,110,o),
(339,32,o),
(229,32,c),
(177,32,o),
(138,48,o),
(116,80,c),
(110,89,o),
(105,90,o),
(100,90,c)
);
}
);
width = 519;
}
);
note = three;
unicode = 51;
},
{
glyphname = four;
lastChange = "2024-08-16 15:27:50 +0000";
layers = (
{
layerId = "8816CCA3-DDF9-4C51-BD56-64EE3675A105";
shapes = (
{
closed = 1;
nodes = (
(504,0,o),
(536,26,o),
(543,61,c),
(666,639,l),
(673,674,o),
(654,700,o),
(620,700,c),
(598,700,o),
(579,690,o),
(565,676,c),
(166,289,l),
(154,277,o),
(146,263,o),
(143,249,c),
(136,216,o),
(162,190,o),
(190,190,c),
(612,190,l),
(644,190,o),
(673,213,o),
(680,244,c),
(687,276,o),
(668,300,o),
(636,300,c),
(297,300,l),
(299,287,l),
(543,526,l),
(523,531,l),
(423,61,l),
(416,26,o),
(435,0,o),
(469,0,c)
);
}
);
width = 708;
},
{
layerId = "254266E2-2911-423D-9D37-8CC6105656EE";
shapes = (
{
closed = 1;
nodes = (
(371,0,o),
(382,9,o),
(384,20,c),
(525,680,l),
(527,691,o),
(521,700,o),
(509,700,c),
(508,700,o),
(498,700,o),
(490,692,c),
(75,259,l),
(70,255,o),
(68,250,o),
(67,246,cs),
(65,236,o),
(71,225,o),
(83,225,c),
(504,225,l),
(515,225,o),
(526,233,o),
(528,244,c),
(530,255,o),
(523,263,o),
(512,263,c),
(118,263,l),
(119,252,l),
(486,637,l),
(477,645,l),
(344,20,l),
(342,9,o),
(348,0,o),
(360,0,c)
);
}
);
width = 505;
}
);
note = four;
unicode = 52;
},
{
glyphname = five;
lastChange = "2024-08-16 15:27:50 +0000";
layers = (
{
layerId = "8816CCA3-DDF9-4C51-BD56-64EE3675A105";
shapes = (
{
closed = 1;
nodes = (
(379,-10,o),
(530,100,o),
(560,238,c),
(588,370,o),
(509,470,o),
(375,470,c),
(325,470,o),
(259,448,o),
(243,429,c),
(248,391,l),
(319,599,l),
(306,590,l),
(564,590,l),
(596,590,o),
(625,613,o),
(632,644,c),
(639,676,o),
(620,700,o),
(588,700,c),
(299,700,l),
(268,700,o),
(240,680,o),
(229,652,c),
(145,404,l),
(133,372,o),
(132,319,o),
(198,319,c),
(236,319,o),
(278,360,o),
(341,360,c),
(407,360,o),
(456,313,o),
(440,238,c),
(424,163,o),
(337,99,o),
(254,99,c),
(227,99,o),
(204,112,o),
(186,125,c),
(171,137,o),
(157,144,o),
(145,144,c),
(109,144,o),
(83,119,o),
(79,97,c),
(74,76,o),
(79,49,o),
(93,35,cs),
(123,6,o),
(182,-10,o),
(232,-10,c)
);
}
);
width = 579;
},
{
layerId = "254266E2-2911-423D-9D37-8CC6105656EE";
shapes = (
{
closed = 1;
nodes = (
(372,1,o),
(490,98,o),
(520,242,c),
(548,373,o),
(471,463,o),
(344,463,c),
(270,463,o),
(201,437,o),
(166,417,c),
(185,412,l),
(285,667,l),
(274,658,l),
(571,658,l),
(582,658,o),
(593,667,o),
(595,679,c),
(598,691,o),
(591,700,o),
(580,700,c),
(275,700,ls),
(262,700,o),
(251,689,o),
(249,683,cs),
(142,402,l),
(135,387,o),
(147,378,o),
(158,378,c),
(170,378,o),
(244,424,o),
(321,424,c),
(445,424,o),
(503,348,o),
(480,239,c),
(455,120,o),
(356,41,o),
(230,41,c),
(183,41,o),
(139,57,o),
(107,89,c),
(104,93,o),
(99,95,o),
(94,95,c),
(83,95,o),
(71,81,o),
(69,72,c),
(68,67,o),
(70,61,o),
(74,57,c),
(111,19,o),
(164,1,o),
(221,1,c)
);
}
);
width = 539;
}
);
note = five;
unicode = 53;
},
{
glyphname = six;
lastChange = "2024-08-16 15:27:50 +0000";
layers = (
{
layerId = "8816CCA3-DDF9-4C51-BD56-64EE3675A105";
shapes = (
{
closed = 1;
nodes = (
(402,-10,o),
(528,93,o),
(555,222,c),
(583,351,o),
(493,454,o),
(388,454,c),
(307,454,o),
(249,402,o),
(215,369,c),
(242,368,l),
(289,478,o),
(399,558,o),
(496,585,c),
(530,594,o),
(556,617,o),
(563,647,c),
(571,689,o),
(545,703,o),
(514,703,c),
(507,703,o),
(499,702,o),
(491,700,c),
(224,629,o),
(120,378,o),
(96,263,c),
(66,123,o),
(129,-10,o),
(273,-10,c)
);
},
{
closed = 1;
nodes = (
(232,100,o),
(195,153,o),
(209,222,c),
(224,291,o),
(284,344,o),
(348,344,c),
(411,344,o),
(450,291,o),
(435,222,c),
(421,153,o),
(359,100,o),
(296,100,c)
);
}
);
width = 548;
},
{
layerId = "254266E2-2911-423D-9D37-8CC6105656EE";
shapes = (
{
closed = 1;
nodes = (
(412,-10,o),
(523,96,o),
(548,211,c),
(572,325,o),
(519,439,o),
(392,439,c),
(305,439,o),
(216,390,o),
(162,314,c),
(186,332,l),
(243,475,o),
(396,632,o),
(529,686,c),
(539,690,o),
(545,696,o),
(547,704,c),
(550,720,o),
(542,727,o),
(530,727,c),
(527,727,o),
(523,726,o),
(520,725,c),
(320,647,o),
(147,408,o),
(109,232,c),
(84,111,o),
(125,-10,o),
(286,-10,c)
);
},
{
closed = 1;
nodes = (
(173,30,o),
(126,116,o),
(145,207,c),
(167,309,o),
(255,398,o),
(377,398,c),
(490,398,o),
(526,306,o),
(506,211,c),
(483,103,o),
(394,30,o),
(292,30,c)
);
}
);
width = 533;
}
);
note = six;
unicode = 54;
},
{
glyphname = seven;
lastChange = "2024-08-16 15:27:50 +0000";
layers = (
{
layerId = "8816CCA3-DDF9-4C51-BD56-64EE3675A105";
shapes = (
{
closed = 1;
nodes = (
(227,-5,o),
(252,9,o),
(267,33,c),
(654,614,l),
(659,623,o),
(663,632,o),
(665,641,c),
(673,676,o),
(647,700,o),
(613,700,c),
(265,700,l),
(233,700,o),
(204,677,o),
(197,646,c),
(191,614,o),
(209,590,o),
(241,590,c),
(530,590,l),
(525,617,l),
(166,80,l),
(160,71,o),
(156,62,o),
(154,53,c),
(147,20,o),
(171,-5,o),
(204,-5,c)
);
}
);
width = 569;
},
{
layerId = "254266E2-2911-423D-9D37-8CC6105656EE";
shapes = (
{
closed = 1;
nodes = (
(179,-2,o),
(188,3,o),
(192,11,c),
(612,672,l),
(613,674,o),
(616,680,o),
(616,682,cs),
(618,692,o),
(617,700,o),
(603,700,cs),
(229,700,l),
(218,700,o),
(207,692,o),
(205,680,c),
(202,668,o),
(209,660,o),
(220,660,c),
(575,660,l),
(565,669,l),
(157,26,l),
(155,23,o),
(153,19,o),
(152,16,c),
(150,5,o),
(161,-2,o),
(170,-2,c)
);
}
);
width = 501;
}
);
note = seven;
unicode = 55;
},
{
glyphname = eight;
lastChange = "2024-08-16 15:27:50 +0000";
layers = (
{
layerId = "8816CCA3-DDF9-4C51-BD56-64EE3675A105";
shapes = (
{
closed = 1;
nodes = (
(528,372,o),
(598,412,o),
(616,499,c),
(640,611,o),
(564,700,o),
(443,700,c),
(322,700,o),
(207,611,o),
(183,499,c),
(166,421,o),
(208,374,o),
(254,355,c),
(268,383,l),
(204,353,o),
(124,301,o),
(104,209,c),
(80,94,o),
(164,0,o),
(294,0,c),
(424,0,o),
(548,94,o),
(572,209,c),
(587,277,o),
(553,343,o),
(484,378,c),
(481,355,l)
);
},
{
closed = 1;
nodes = (
(314,550,o),
(363,590,o),
(419,590,c),
(474,590,o),
(507,550,o),
(496,497,c),
(484,443,o),
(435,403,o),
(380,403,c),
(324,403,o),
(291,443,o),
(303,497,c)
);
},
{
closed = 1;
nodes = (
(253,110,o),
(213,155,o),
(225,211,c),
(237,268,o),
(297,313,o),
(361,313,c),
(425,313,o),
(465,268,o),
(453,211,c),
(441,155,o),
(381,110,o),
(317,110,c)
);
}
);
width = 588;
},
{
layerId = "254266E2-2911-423D-9D37-8CC6105656EE";
shapes = (
{
closed = 1;
nodes = (
(500,377,o),
(562,438,o),
(578,514,c),
(601,619,o),
(533,700,o),
(427,700,c),
(320,700,o),
(218,619,o),
(195,514,c),
(179,438,o),
(216,375,o),
(264,350,c),
(267,354,l),
(197,327,o),
(127,266,o),
(108,179,c),
(86,74,o),
(158,-10,o),
(276,-10,c),
(394,-10,o),
(503,74,o),
(525,179,c),
(544,266,o),
(498,330,o),
(438,355,c),
(441,351,l)
);
},
{
closed = 1;
nodes = (
(256,601,o),
(329,660,o),
(418,660,c),
(506,660,o),
(555,601,o),
(536,514,c),
(518,426,o),
(433,367,o),
(356,367,c),
(278,367,o),
(219,426,o),
(237,514,c)
);
},
{
closed = 1;
nodes = (
(184,30,o),
(132,92,o),
(150,179,c),
(169,267,o),
(259,331,o),
(348,331,c),
(437,331,o),
(502,267,o),
(483,179,c),
(465,92,o),
(384,30,o),
(284,30,c)
);
}
);
width = 557;
}
);
note = eight;
unicode = 56;
},
{
glyphname = nine;
lastChange = "2024-08-16 15:27:50 +0000";
layers = (
{
layerId = "8816CCA3-DDF9-4C51-BD56-64EE3675A105";
shapes = (
{
closed = 1;
nodes = (
(296,713,o),
(170,610,o),
(142,481,c),
(115,352,o),
(205,249,o),
(310,249,c),
(391,249,o),
(448,301,o),
(482,334,c),
(455,335,l),
(409,225,o),
(299,145,o),
(201,118,c),
(167,109,o),
(141,86,o),
(135,56,c),
(126,14,o),
(152,0,o),
(183,0,c),
(190,0,o),
(198,1,o),
(207,3,c),
(474,74,o),
(577,325,o),
(602,440,c),
(631,580,o),
(569,713,o),
(425,713,c)
);
},
{
closed = 1;
nodes = (
(465,603,o),
(503,550,o),
(488,481,c),
(474,412,o),
(413,359,o),
(349,359,c),
(286,359,o),
(248,412,o),
(262,481,c),
(277,550,o),
(338,603,o),
(401,603,c)
);
}
);
width = 548;
},
{
layerId = "254266E2-2911-423D-9D37-8CC6105656EE";
shapes = (
{
closed = 1;
nodes = (
(300,710,o),
(188,604,o),
(164,489,c),
(140,375,o),
(193,263,o),
(320,263,c),
(407,263,o),
(496,310,o),
(550,386,c),
(526,368,l),
(469,225,o),
(319,83,o),
(186,29,c),
(176,25,o),
(170,19,o),
(168,11,c),
(166,0,o),
(173,-12,o),
(185,-12,c),
(188,-12,o),
(192,-11,o),
(195,-10,c),
(395,68,o),
(565,292,o),
(602,468,c),
(628,589,o),
(587,710,o),
(426,710,c)
);
},
{
closed = 1;
nodes = (
(538,670,o),
(586,584,o),
(567,493,c),
(545,391,o),
(458,304,o),
(336,304,c),
(223,304,o),
(186,394,o),
(206,489,c),
(229,597,o),
(317,670,o),
(419,670,c)
);
}
);
width = 555;
}
);
note = nine;
unicode = 57;
},
{
glyphname = zero.dnom;
lastChange = "2024-08-16 15:27:50 +0000";
layers = (
{
layerId = "8816CCA3-DDF9-4C51-BD56-64EE3675A105";
shapes = (
{
closed = 1;
nodes = (
(283,-10,o),
(373,75,o),
(396,184,c),
(419,294,o),
(372,379,o),
(275,379,c),
(178,379,o),
(92,294,o),
(69,184,c),
(46,75,o),
(100,-10,o),
(192,-10,c)
);
},
{
closed = 1;
nodes = (
(170,79,o),
(156,124,o),
(169,184,c),
(182,244,o),
(215,289,o),
(255,289,c),
(296,289,o),
(309,244,o),
(296,184,c),
(283,124,o),
(251,79,o),
(211,79,c)
);
}
);
width = 387;
},
{
layerId = "254266E2-2911-423D-9D37-8CC6105656EE";
shapes = (
{
closed = 1;
nodes = (
(236,-10,o),
(291,62,o),
(310,150,c),
(329,239,o),
(304,310,o),
(220,310,c),
(136,310,o),
(81,239,o),
(62,150,c),
(43,62,o),
(68,-10,o),
(152,-10,c)
);
},
{
closed = 1;
nodes = (
(104,26,o),
(84,77,o),
(100,150,c),
(115,221,o),
(156,274,o),
(212,274,c),
(268,274,o),
(287,221,o),
(272,150,c),
(256,77,o),
(216,26,o),
(160,26,c)
);
}
);
width = 308;
}
);
},
{
glyphname = one.dnom;
lastChange = "2024-08-16 15:27:50 +0000";
layers = (
{
layerId = "8816CCA3-DDF9-4C51-BD56-64EE3675A105";
shapes = (
{
closed = 1;
nodes = (
(221,0,o),
(244,19,o),
(250,46,c),
(307,317,l),
(314,347,o),
(297,368,o),
(268,368,c),
(259,368,o),
(253,366,o),
(238,360,c),
(130,305,l),
(112,296,o),
(100,281,o),
(97,266,cs),
(92,246,o),
(101,218,o),
(130,218,cs),
(140,218,o),
(153,222,o),
(165,229,c),
(212,257,l),
(210,281,l),
(160,46,l),
(154,19,o),
(169,0,o),
(195,0,c)
);
}
);
width = 320;
},
{
layerId = "254266E2-2911-423D-9D37-8CC6105656EE";
shapes = (
{
closed = 1;
nodes = (
(129,-6,o),
(140,3,o),
(142,14,c),
(196,273,l),
(198,283,o),
(194,291,o),
(185,293,c),
(180,294,o),
(174,294,o),
(168,290,c),
(89,247,l),
(80,242,o),
(76,236,o),
(75,230,c),
(73,220,o),
(79,212,o),
(88,212,c),
(92,212,o),
(96,214,o),
(101,216,c),
(159,247,l),
(153,249,l),
(104,14,l),
(102,3,o),
(107,-6,o),
(119,-6,c)
);
}
);
width = 189;
}
);
},
{
glyphname = two.dnom;
lastChange = "2024-08-16 15:27:50 +0000";
layers = (
{
background = {
shapes = (
{
closed = 1;
nodes = (
(345,294,o),
(279,379,o),
(182,379,c),
(85,379,o),
(18,294,o),
(18,184,c),
(18,75,o),
(90,-10,o),
(182,-10,c),
(273,-10,o),
(345,75,o),
(345,184,c)
);
},
{
closed = 1;
nodes = (
(118,244,o),
(142,289,o),
(182,289,c),
(223,289,o),
(245,244,o),
(245,184,c),
(245,124,o),
(222,79,o),
(182,79,c),
(141,79,o),
(118,124,o),
(118,184,c)
);
}
);
};
layerId = "8816CCA3-DDF9-4C51-BD56-64EE3675A105";
shapes = (
{
closed = 1;
nodes = (
(273,0,l),
(297,0,o),
(318,17,o),
(323,40,c),
(327,63,o),
(314,80,o),
(290,80,c),
(177,80,l),
(181,70,l),
(260,128,l),
(310,167,o),
(357,212,o),
(367,258,c),
(379,317,o),
(356,381,o),
(264,381,c),
(209,381,o),
(127,344,o),
(117,298,c),
(113,277,o),
(124,257,o),
(154,257,c),
(165,257,o),
(176,259,o),
(187,270,c),
(201,284,o),
(220,295,o),
(236,295,c),
(258,295,o),
(270,282,o),
(264,256,c),
(257,223,o),
(220,187,o),
(177,153,c),
(87,84,l),
(72,72,o),
(63,62,o),
(60,45,c),
(54,19,o),
(69,0,o),
(96,0,c)
);
}
);
width = 364;
},
{
layerId = "254266E2-2911-423D-9D37-8CC6105656EE";
shapes = (
{
closed = 1;
nodes = (
(231,0,l),
(242,0,o),
(253,8,o),
(255,18,c),
(257,29,o),
(249,36,o),
(239,36,c),
(107,36,l),
(110,28,l),
(196,110,l),
(231,148,o),
(282,176,o),
(295,235,c),
(303,272,o),
(282,310,o),
(224,310,c),
(146,310,o),
(105,247,o),
(100,225,c),
(98,217,o),
(105,211,o),
(115,211,c),
(126,211,o),
(134,219,o),
(137,227,c),
(153,258,o),
(183,274,o),
(210,274,c),
(246,274,o),
(259,254,o),
(255,233,c),
(247,198,o),
(205,169,o),
(172,134,c),
(68,39,ls),
(60,31,o),
(55,25,o),
(54,20,c),
(51,5,o),
(58,0,o),
(70,0,c)
);
}
);
width = 301;
}
);
},
{
glyphname = three.dnom;
lastChange = "2024-08-16 15:27:50 +0000";
layers = (
{
layerId = "8816CCA3-DDF9-4C51-BD56-64EE3675A105";
shapes = (
{
closed = 1;
nodes = (
(241,-10,o),
(322,34,o),
(340,119,c),
(352,176,o),
(330,231,o),
(245,231,c),
(239,231,o),
(231,228,o),
(225,226,c),
(231,214,l),
(348,292,l),
(359,299,o),
(365,311,o),
(368,324,c),
(374,351,o),
(359,370,o),
(332,370,c),
(180,370,l),
(156,370,o),
(135,354,o),
(130,331,c),
(125,307,o),
(139,290,o),
(163,290,c),
(274,290,l),
(249,294,l),
(132,214,ls),
(122,207,o),
(116,193,o),
(114,182,c),
(109,162,o),
(124,146,o),
(141,146,c),
(166,146,o),
(181,159,o),
(204,159,c),
(236,159,o),
(255,143,o),
(250,117,c),
(242,80,o),
(209,66,o),
(180,66,c),
(157,66,o),
(146,76,o),
(139,82,c),
(132,88,o),
(126,88,o),
(120,88,c),
(96,88,o),
(74,68,o),
(70,46,c),
(67,31,o),
(71,18,o),
(84,9,cs),
(100,-3,o),
(131,-10,o),
(173,-10,c)
);
}
);
width = 355;
},
{
layerId = "254266E2-2911-423D-9D37-8CC6105656EE";
shapes = (
{
closed = 1;
nodes = (
(199,-10,o),
(261,31,o),
(274,92,c),
(288,160,o),
(244,179,o),
(198,179,c),
(184,179,o),
(153,170,o),
(152,166,c),
(177,171,l),
(293,265,l),
(300,271,o),
(303,278,o),
(302,284,c),
(302,293,o),
(296,300,o),
(286,300,c),
(142,300,l),
(131,300,o),
(120,292,o),
(118,281,c),
(116,271,o),
(123,262,o),
(134,262,c),
(256,262,l),
(255,274,l),
(124,167,ls),
(120,163,o),
(118,159,o),
(117,154,cs),
(115,144,o),
(121,133,o),
(136,136,c),
(152,141,o),
(172,144,o),
(184,144,c),
(218,144,o),
(241,127,o),
(234,92,c),
(226,57,o),
(186,30,o),
(146,30,c),
(123,30,o),
(102,40,o),
(95,45,c),
(85,52,o),
(83,57,o),
(75,57,c),
(64,57,o),
(55,48,o),
(53,37,c),
(51,29,o),
(54,23,o),
(58,19,c),
(76,1,o),
(108,-10,o),
(138,-10,c)
);
}
);
width = 299;
}
);
},
{
glyphname = four.dnom;
lastChange = "2024-08-16 15:27:50 +0000";
layers = (
{
background = {
shapes = (
{
closed = 1;
nodes = (
(396,294,o),
(330,379,o),
(233,379,c),
(136,379,o),
(69,294,o),
(69,184,c),
(69,75,o),
(141,-10,o),
(233,-10,c),
(324,-10,o),
(396,75,o),
(396,184,c)
);
},
{
closed = 1;
nodes = (
(169,244,o),
(193,289,o),
(233,289,c),
(274,289,o),
(296,244,o),
(296,184,c),
(296,124,o),
(273,79,o),
(233,79,c),
(192,79,o),
(169,124,o),
(169,184,c)
);
}
);
};
layerId = "8816CCA3-DDF9-4C51-BD56-64EE3675A105";
shapes = (
{
closed = 1;
nodes = (
(292,0,o),
(315,19,o),
(321,46,c),
(381,330,l),
(388,360,o),
(371,381,o),
(342,381,c),
(331,381,o),
(312,379,o),
(293,360,c),
(87,168,l),
(77,158,o),
(71,146,o),
(69,135,c),
(63,106,o),
(82,85,o),
(111,85,c),
(350,85,l),
(377,85,o),
(394,99,o),
(400,125,c),
(405,151,o),
(394,165,o),
(367,165,c),
(167,165,l),
(158,142,l),
(325,293,l),
(287,310,l),
(231,46,l),
(225,19,o),
(240,0,o),
(266,0,c)
);
}
);
width = 438;
},
{
layerId = "254266E2-2911-423D-9D37-8CC6105656EE";
shapes = (
{
closed = 1;
nodes = (
(192,-7,o),
(201,1,o),
(204,12,c),
(259,273,l),
(261,284,o),
(255,293,o),
(243,293,c),
(236,293,o),
(228,289,o),
(225,285,c),
(52,106,l),
(46,101,o),
(45,97,o),
(44,92,c),
(41,81,o),
(49,72,o),
(59,72,c),
(253,72,l),
(264,72,o),
(274,79,o),
(276,90,c),
(278,99,o),
(272,107,o),
(261,108,c),
(90,108,l),
(87,99,l),
(218,234,l),
(214,242,l),
(166,12,l),
(163,1,o),
(171,-7,o),
(181,-7,c)
);
}
);
width = 272;
}
);
},
{
glyphname = five.dnom;
lastChange = "2024-08-16 15:27:50 +0000";
layers = (
{
background = {
shapes = (
{
closed = 1;
nodes = (
(343,294,o),
(277,379,o),
(180,379,c),
(83,379,o),
(16,294,o),
(16,184,c),
(16,75,o),
(88,-10,o),
(180,-10,c),
(271,-10,o),
(343,75,o),
(343,184,c)
);
},
{
closed = 1;
nodes = (
(116,244,o),
(140,289,o),
(180,289,c),
(221,289,o),
(243,244,o),
(243,184,c),
(243,124,o),
(220,79,o),
(180,79,c),
(139,79,o),
(116,124,o),
(116,184,c)
);
}
);
};
layerId = "8816CCA3-DDF9-4C51-BD56-64EE3675A105";
shapes = (
{
closed = 1;
nodes = (
(248,-9,o),
(333,27,o),
(355,131,c),
(373,216,o),
(325,252,o),
(268,252,c),
(224,252,o),
(186,235,o),
(158,200,c),
(189,179,l),
(231,314,l),
(190,287,l),
(339,287,l),
(364,287,o),
(385,305,o),
(390,329,c),
(394,350,o),
(381,367,o),
(356,367,c),
(192,367,l),
(175,367,o),
(160,356,o),
(153,343,c),
(105,197,l),
(98,180,o),
(98,151,o),
(135,151,c),
(154,151,o),
(174,170,o),
(209,170,c),
(246,170,o),
(261,146,o),
(256,122,c),
(249,90,o),
(218,71,o),
(186,71,c),
(157,71,o),
(139,79,o),
(131,85,c),
(123,93,o),
(115,95,o),
(106,95,c),
(79,95,o),
(66,83,o),
(61,61,c),
(57,42,o),
(63,27,o),
(74,16,c),
(94,-2,o),
(128,-9,o),
(156,-9,c)
);
}
);
width = 379;
},
{
layerId = "254266E2-2911-423D-9D37-8CC6105656EE";
shapes = (
{
closed = 1;
nodes = (
(212,-10,o),
(262,33,o),
(275,96,c),
(287,151,o),
(261,192,o),
(203,192,c),
(160,192,o),
(139,180,o),
(118,160,c),
(135,155,l),
(175,256,l),
(167,249,l),
(282,249,l),
(293,249,o),
(304,257,o),
(306,269,c),
(309,280,o),
(300,289,o),
(290,289,c),
(173,289,l),
(158,289,o),
(152,280,o),
(148,272,c),
(95,145,l),
(89,131,o),
(98,121,o),
(111,121,c),
(129,121,o),
(149,156,o),
(188,156,c),
(226,156,o),
(244,129,o),
(237,93,c),
(229,55,o),
(195,28,o),
(153,28,c),
(131,28,o),
(112,41,o),
(96,62,c),
(93,66,o),
(88,68,o),
(83,68,c),
(70,68,o),
(62,56,o),
(60,47,c),
(59,41,o),
(61,35,o),
(65,31,c),
(83,7,o),
(114,-10,o),
(145,-10,c)
);
}
);
width = 305;
}
);
},
{
glyphname = six.dnom;
lastChange = "2024-08-16 15:27:50 +0000";
layers = (
{
layerId = "8816CCA3-DDF9-4C51-BD56-64EE3675A105";
shapes = (
{
closed = 1;
nodes = (
(251,-12,o),
(331,47,o),
(349,133,c),
(362,193,o),
(323,241,o),
(252,241,c),
(195,241,o),
(138,198,o),
(98,122,c),
(169,193,l),
(186,272,o),
(240,301,o),
(292,292,c),
(350,281,o),
(365,304,o),
(370,331,c),
(377,361,o),
(356,379,o),
(295,379,c),
(178,379,o),
(93,295,o),
(64,158,c),
(45,71,o),
(84,-12,o),
(173,-12,c)
);
},
{
closed = 1;
nodes = (
(160,62,o),
(143,86,o),
(150,118,c),
(156,146,o),
(183,170,o),
(212,170,c),
(239,170,o),
(257,146,o),
(251,118,c),
(244,86,o),
(216,62,o),
(189,62,c)
);
}
);
width = 351;
},
{
layerId = "254266E2-2911-423D-9D37-8CC6105656EE";
shapes = (
{
closed = 1;
nodes = (
(180,-10,o),
(230,31,o),
(240,81,c),
(251,130,o),
(233,179,o),
(171,179,c),
(135,179,o),
(93,150,o),
(67,104,c),
(115,141,l),
(142,194,o),
(203,247,o),
(260,266,c),
(269,270,o),
(276,276,o),
(278,286,c),
(281,301,o),
(270,306,o),
(258,306,c),
(205,306,o),
(69,183,o),
(50,92,c),
(39,41,o),
(56,-10,o),
(126,-10,c)
);
},
{
closed = 1;
nodes = (
(95,28,o),
(80,53,o),
(87,83,c),
(93,112,o),
(121,140,o),
(162,140,c),
(196,140,o),
(207,111,o),
(200,81,c),
(194,50,o),
(162,28,o),
(132,28,c)
);
}
);
width = 253;
}
);
},
{
glyphname = seven.dnom;
lastChange = "2024-08-16 15:27:50 +0000";
layers = (
{
layerId = "8816CCA3-DDF9-4C51-BD56-64EE3675A105";
shapes = (
{
closed = 1;
nodes = (
(169,-1,o),
(189,20,o),
(201,37,c),
(362,279,l),
(368,288,o),
(372,297,o),
(374,306,c),
(381,341,o),
(356,365,o),
(322,365,c),
(164,365,l),
(138,365,o),
(120,351,o),
(114,326,c),
(109,300,o),
(121,285,o),
(147,285,c),
(303,285,l),
(299,325,l),
(124,64,l),
(118,55,o),
(113,47,o),
(111,38,c),
(106,14,o),
(125,-1,o),
(146,-1,c)
);
}
);
width = 349;
},
{
layerId = "254266E2-2911-423D-9D37-8CC6105656EE";
shapes = (
{
closed = 1;
nodes = (
(108,-10,o),
(117,-5,o),
(122,3,c),
(296,264,l),
(298,267,o),
(299,269,o),
(300,273,c),
(301,279,o),
(300,292,o),
(287,292,c),
(122,292,l),
(111,292,o),
(100,284,o),
(98,273,c),
(95,261,o),
(103,254,o),
(114,254,c),
(260,254,l),
(251,261,l),
(88,18,l),
(86,15,o),
(83,11,o),
(83,8,c),
(80,-3,o),
(90,-10,o),
(99,-10,c)
);
}
);
width = 272;
}
);
},
{
glyphname = eight.dnom;
lastChange = "2024-08-16 15:27:50 +0000";
layers = (
{
layerId = "8816CCA3-DDF9-4C51-BD56-64EE3675A105";
shapes = (
{
closed = 1;
nodes = (
(267,-12,o),
(345,41,o),
(358,105,c),
(366,143,o),
(344,180,o),
(301,200,c),
(299,186,l),
(329,196,o),
(374,219,o),
(384,266,c),
(397,329,o),
(347,378,o),
(274,378,c),
(199,378,o),
(130,329,o),
(117,266,c),
(107,223,o),
(136,197,o),
(167,186,c),
(174,201,l),
(135,185,o),
(83,157,o),
(72,105,c),
(59,41,o),
(112,-12,o),
(191,-12,c)
);
},
{
closed = 1;
nodes = (
(216,231,o),
(203,247,o),
(207,266,c),
(211,288,o),
(231,303,o),
(258,303,c),
(281,303,o),
(298,288,o),
(294,266,c),
(290,247,o),
(266,231,o),
(243,231,c)
);
},
{
closed = 1;
nodes = (
(178,63,o),
(158,85,o),
(164,113,c),
(170,139,o),
(199,158,o),
(228,158,c),
(256,158,o),
(276,139,o),
(270,113,c),
(264,85,o),
(235,63,o),
(207,63,c)
);
}
);
width = 388;
},
{
layerId = "254266E2-2911-423D-9D37-8CC6105656EE";
shapes = (
{
closed = 1;
nodes = (
(195,-10,o),
(249,29,o),
(259,77,c),
(268,116,o),
(243,145,o),
(213,157,c),
(214,155,l),
(243,167,o),
(275,193,o),
(282,227,c),
(292,272,o),
(256,307,o),
(201,307,c),
(146,307,o),
(96,272,o),
(86,227,c),
(79,193,o),
(99,165,o),
(124,154,c),
(124,156,l),
(91,144,o),
(55,116,o),
(46,77,c),
(36,29,o),
(74,-10,o),
(134,-10,c)
);
},
{
closed = 1;
nodes = (
(143,170,o),
(118,188,o),
(125,220,c),
(131,250,o),
(161,271,o),
(194,271,c),
(227,271,o),
(247,250,o),
(241,220,c),
(234,188,o),
(201,170,o),
(172,170,c)
);
},
{
closed = 1;
nodes = (
(105,26,o),
(84,50,o),
(91,83,c),
(97,115,o),
(132,134,o),
(164,134,c),
(196,134,o),
(224,115,o),
(218,83,c),
(211,50,o),
(179,26,o),
(142,26,c)
);
}
);
width = 273;
}
);
},
{
glyphname = nine.dnom;
lastChange = "2024-08-16 15:27:50 +0000";
layers = (
{
layerId = "8816CCA3-DDF9-4C51-BD56-64EE3675A105";
shapes = (
{
closed = 1;
nodes = (
(251,-12,o),
(336,72,o),
(365,209,c),
(384,296,o),
(345,379,o),
(256,379,c),
(178,379,o),
(98,320,o),
(80,234,c),
(67,174,o),
(106,126,o),
(177,126,c),
(234,126,o),
(291,169,o),
(331,245,c),
(260,174,l),
(243,95,o),
(189,66,o),
(137,75,c),
(79,86,o),
(64,63,o),
(59,36,c),
(52,6,o),
(73,-12,o),
(134,-12,c)
);
},
{
closed = 1;
nodes = (
(190,197,o),
(172,221,o),
(178,249,c),
(185,281,o),
(213,305,o),
(240,305,c),
(269,305,o),
(286,281,o),
(279,249,c),
(273,221,o),
(246,197,o),
(217,197,c)
);
}
);
width = 351;
},
{
layerId = "254266E2-2911-423D-9D37-8CC6105656EE";
shapes = (
{
closed = 1;
nodes = (
(131,-11,o),
(267,112,o),
(286,203,c),
(297,254,o),
(280,305,o),
(210,305,c),
(156,305,o),
(106,264,o),
(95,214,c),
(85,165,o),
(103,116,o),
(165,116,c),
(201,116,o),
(243,145,o),
(269,191,c),
(221,154,l),
(193,101,o),
(133,48,o),
(76,29,c),
(66,25,o),
(60,19,o),
(58,9,c),
(55,-6,o),
(66,-11,o),
(78,-11,c)
);
},
{
closed = 1;
nodes = (
(140,155,o),
(129,184,o),
(135,214,c),
(142,245,o),
(174,267,o),
(204,267,c),
(241,267,o),
(255,242,o),
(249,212,c),
(243,183,o),
(215,155,o),
(174,155,c)
);
}
);
width = 283;
}
);
},
{
glyphname = one.numr;
lastChange = "2024-08-16 15:27:50 +0000";
layers = (
{
background = {
shapes = (
{
closed = 1;
nodes = (
(357,624,o),
(291,709,o),
(194,709,c),
(97,709,o),
(30,624,o),
(30,514,c),
(30,405,o),
(98,320,o),
(194,320,c),
(285,320,o),
(357,405,o),
(357,514,c)
);
},
{
closed = 1;
nodes = (
(130,574,o),
(154,619,o),
(194,619,c),
(235,619,o),
(257,574,o),
(257,514,c),
(257,454,o),
(234,409,o),
(194,409,c),
(153,409,o),
(130,454,o),
(130,514,c)
);
}
);
};
layerId = "8816CCA3-DDF9-4C51-BD56-64EE3675A105";
shapes = (
{
pos = (0,343);
ref = one.dnom;
}
);
width = 320;
},
{
layerId = "254266E2-2911-423D-9D37-8CC6105656EE";
shapes = (
{
pos = (0,405);
ref = one.dnom;
}
);
width = 189;
}
);
},
{
glyphname = three.numr;
lastChange = "2024-08-16 15:27:50 +0000";
layers = (
{
background = {
shapes = (
{
closed = 1;
nodes = (
(357,624,o),
(291,709,o),
(194,709,c),
(97,709,o),
(30,624,o),
(30,514,c),
(30,405,o),
(98,320,o),
(194,320,c),
(285,320,o),
(357,405,o),
(357,514,c)
);
},
{
closed = 1;
nodes = (
(130,574,o),
(154,619,o),
(194,619,c),
(235,619,o),
(257,574,o),
(257,514,c),
(257,454,o),
(234,409,o),
(194,409,c),
(153,409,o),
(130,454,o),
(130,514,c)
);
}
);
};
layerId = "8816CCA3-DDF9-4C51-BD56-64EE3675A105";
shapes = (
{
pos = (0,330);
ref = three.dnom;
}
);
width = 355;
},
{
layerId = "254266E2-2911-423D-9D37-8CC6105656EE";
shapes = (
{
pos = (0,405);
ref = three.dnom;
}
);
width = 299;
}
);
},
{
glyphname = fraction;
lastChange = "2024-08-16 15:27:50 +0000";
layers = (
{
layerId = "8816CCA3-DDF9-4C51-BD56-64EE3675A105";
shapes = (
{
closed = 1;
nodes = (
(87,-2,o),
(103,7,o),
(118,22,cs),
(643,623,ls),
(652,633,o),
(658,643,o),
(660,653,cs),
(666,683,o),
(640,702,o),
(618,702,cs),
(603,702,o),
(586,693,o),
(572,678,cs),
(46,77,ls),
(38,67,o),
(32,57,o),
(30,47,cs),
(24,17,o),
(50,-2,o),
(72,-2,cs)
);
}
);
width = 540;
},
{
layerId = "254266E2-2911-423D-9D37-8CC6105656EE";
shapes = (
{
closed = 1;
nodes = (
(50,-3,o),
(57,0,o),
(62,6,c),
(642,672,l),
(645,676,o),
(647,680,o),
(647,684,cs),
(650,696,o),
(643,703,o),
(631,703,cs),
(625,703,o),
(619,700,o),
(614,694,c),
(34,28,l),
(31,24,o),
(29,20,o),
(28,16,cs),
(26,4,o),
(32,-3,o),
(44,-3,cs)
);
}
);
width = 527;
}
);
note = fraction;
unicode = 8260;
},
{
glyphname = foursuperior;
lastChange = "2024-08-16 15:27:50 +0000";
layers = (
{
layerId = "8816CCA3-DDF9-4C51-BD56-64EE3675A105";
shapes = (
{
pos = (0,51);
ref = four.numr;
}
);
width = 438;
},
{
background = {
shapes = (
{
closed = 1;
nodes = (
(192,804,o),
(184,813,o),
(172,813,c),
(170,813,o),
(168,813,o),
(166,812,c),
(162,811,o),
(158,809,o),
(155,805,c),
(20,626,l),
(14,619,o),
(13,611,o),
(17,604,c),
(20,597,o),
(27,592,o),
(35,592,c),
(228,592,l),
(239,592,o),
(248,600,o),
(248,612,c),
(248,623,o),
(239,632,o),
(228,632,c),
(62,632,l),
(65,619,l),
(163,750,l),
(150,758,l),
(150,533,l),
(150,522,o),
(159,513,o),
(171,513,c),
(183,513,o),
(192,522,o),
(192,533,c),
(192,793,l)
);
}
);
};
layerId = "254266E2-2911-423D-9D37-8CC6105656EE";
shapes = (
{
pos = (0,120);
ref = four.numr;
}
);
width = 272;
}
);
unicode = 8308;
},
{
glyphname = fivesuperior;
lastChange = "2024-08-16 15:27:50 +0000";
layers = (
{
layerId = "8816CCA3-DDF9-4C51-BD56-64EE3675A105";
shapes = (
{
pos = (0,42);
ref = five.numr;
}
);
width = 379;
},
{
background = {
shapes = (
{
closed = 1;
nodes = (
(123,768,l),
(114,759,l),
(229,759,l),
(240,759,o),
(249,768,o),
(249,780,c),
(249,792,o),
(239,801,o),
(229,801,c),
(112,801,l),
(106,802,o),
(101,800,o),
(97,797,c),
(91,789,l),
(90,784,l),
(64,657,l),
(62,649,o),
(64,642,o),
(71,638,c),
(74,635,o),
(81,633,o),
(85,633,c),
(89,633,o),
(94,635,o),
(98,638,c),
(115,658,o),
(128,665,o),
(155,665,c),
(193,665,o),
(215,641,o),
(215,605,c),
(215,567,o),
(189,542,o),
(147,542,c),
(125,542,o),
(104,554,o),
(84,575,c),
(80,579,o),
(75,581,o),
(70,581,c),
(57,581,o),
(50,568,o),
(50,559,c),
(50,553,o),
(54,547,o),
(58,543,c),
(82,519,o),
(116,502,o),
(147,502,c),
(214,502,o),
(255,545,o),
(255,608,c),
(255,663,o),
(220,704,o),
(162,704,c),
(119,704,o),
(101,692,o),
(84,672,c),
(104,667,l)
);
}
);
};
layerId = "254266E2-2911-423D-9D37-8CC6105656EE";
shapes = (
{
pos = (0,120);
ref = five.numr;
}
);
width = 305;
}
);
unicode = 8309;
},
{
glyphname = sixsuperior;
lastChange = "2024-08-16 15:27:50 +0000";
layers = (
{
layerId = "8816CCA3-DDF9-4C51-BD56-64EE3675A105";
shapes = (
{
pos = (0,48);
ref = six.numr;
}
);
width = 351;
},
{
background = {
shapes = (
{
closed = 1;
nodes = (
(212,776,o),
(217,782,o),
(217,790,c),
(217,806,o),
(208,813,o),
(195,813,c),
(195,813,o),
(186,812,o),
(186,811,c),
(92,779,o),
(30,673,o),
(30,598,c),
(30,547,o),
(58,496,o),
(128,496,c),
(182,496,o),
(223,537,o),
(223,587,c),
(223,636,o),
(195,685,o),
(139,685,c),
(97,685,o),
(61,656,o),
(45,610,c),
(85,647,l),
(97,702,o),
(150,753,o),
(203,772,c)
);
},
{
closed = 1;
nodes = (
(181,557,o),
(155,536,o),
(126,536,c),
(90,536,o),
(71,560,o),
(71,589,c),
(71,617,o),
(92,644,o),
(132,644,c),
(165,644,o),
(181,616,o),
(181,587,c)
);
}
);
};
layerId = "254266E2-2911-423D-9D37-8CC6105656EE";
shapes = (
{
pos = (0,120);
ref = six.numr;
}
);
width = 253;
}
);
unicode = 8310;
},
{
glyphname = sevensuperior;
lastChange = "2024-08-16 15:27:50 +0000";
layers = (
{
layerId = "8816CCA3-DDF9-4C51-BD56-64EE3675A105";
shapes = (
{
pos = (0,39);
ref = seven.numr;
}
);
width = 349;
},
{
background = {
shapes = (
{
closed = 1;
nodes = (
(235,800,l),
(70,800,l),
(59,800,o),
(50,792,o),
(50,780,c),
(50,768,o),
(59,760,o),
(70,760,c),
(216,760,l),
(204,769,l),
(92,526,l),
(91,523,o),
(90,519,o),
(90,516,c),
(90,505,o),
(102,498,o),
(111,498,c),
(120,498,o),
(128,503,o),
(131,511,c),
(250,772,l),
(254,782,o),
(250,793,o),
(240,798,c)
);
}
);
};
layerId = "254266E2-2911-423D-9D37-8CC6105656EE";
shapes = (
{
pos = (0,120);
ref = seven.numr;
}
);
width = 272;
}
);
unicode = 8311;
},
{
glyphname = eightsuperior;
lastChange = "2024-08-16 15:27:50 +0000";
layers = (
{
layerId = "8816CCA3-DDF9-4C51-BD56-64EE3675A105";
shapes = (
{
pos = (0,52);
ref = eight.numr;
}
);
width = 388;
},
{
background = {
shapes = (
{
closed = 1;
nodes = (
(208,675,o),
(234,701,o),
(234,735,c),
(234,780,o),
(191,815,o),
(136,815,c),
(81,815,o),
(38,780,o),
(38,735,c),
(38,701,o),
(64,673,o),
(91,662,c),
(91,664,l),
(60,652,o),
(30,624,o),
(30,585,c),
(30,537,o),
(76,498,o),
(136,498,c),
(197,498,o),
(243,537,o),
(243,585,c),
(243,624,o),
(212,653,o),
(180,665,c),
(181,663,l)
);
},
{
closed = 1;
nodes = (
(80,756,o),
(104,777,o),
(136,777,c),
(168,777,o),
(192,756,o),
(192,728,c),
(192,697,o),
(164,679,o),
(136,679,c),
(108,679,o),
(80,697,o),
(80,728,c)
);
},
{
closed = 1;
nodes = (
(100,536,o),
(75,559,o),
(75,591,c),
(75,622,o),
(105,641,o),
(136,641,c),
(167,641,o),
(198,622,o),
(198,591,c),
(198,559,o),
(172,536,o),
(136,536,c)
);
}
);
};
layerId = "254266E2-2911-423D-9D37-8CC6105656EE";
shapes = (
{
pos = (0,120);
ref = eight.numr;
}
);
width = 273;
}
);
unicode = 8312;
},
{
glyphname = ninesuperior;
lastChange = "2024-08-16 15:27:50 +0000";
layers = (
{
layerId = "8816CCA3-DDF9-4C51-BD56-64EE3675A105";
shapes = (
{
pos = (0,52);
ref = nine.numr;
}
);
width = 351;
},
{
background = {
shapes = (
{
closed = 1;
nodes = (
(71,530,o),
(66,524,o),
(66,516,c),
(66,500,o),
(75,493,o),
(88,493,c),
(88,493,o),
(97,494,o),
(97,495,c),
(191,527,o),
(253,633,o),
(253,708,c),
(253,759,o),
(225,810,o),
(155,810,c),
(101,810,o),
(60,769,o),
(60,719,c),
(60,670,o),
(88,621,o),
(144,621,c),
(186,621,o),
(222,650,o),
(238,696,c),
(198,659,l),
(186,604,o),
(133,553,o),
(80,534,c)
);
},
{
closed = 1;
nodes = (
(102,749,o),
(128,770,o),
(157,770,c),
(193,770,o),
(212,746,o),
(212,717,c),
(212,689,o),
(191,662,o),
(151,662,c),
(118,662,o),
(102,690,o),
(102,719,c)
);
}
);
};
layerId = "254266E2-2911-423D-9D37-8CC6105656EE";
shapes = (
{
pos = (0,120);
ref = nine.numr;
}
);
width = 283;
}
);
unicode = 8313;
},
{
glyphname = .notdef;
lastChange = "2024-08-16 15:27:50 +0000";
layers = (
{
layerId = "8816CCA3-DDF9-4C51-BD56-64EE3675A105";
shapes = (
{
closed = 1;
nodes = (
(47,35,ls),
(43,12,o),
(52,0,o),
(75,0,cs),
(509,0,ls),
(532,0,o),
(547,12,o),
(551,35,cs),
(685,665,ls),
(690,688,o),
(681,700,o),
(658,700,cs),
(224,700,ls),
(201,700,o),
(186,688,o),
(181,665,cs)
);
},
{
closed = 1;
nodes = (
(651,670,ls),
(654,670,o),
(656,668,o),
(655,665,cs),
(528,67,ls),
(527,62,o),
(524,61,o),
(522,65,c),
(233,664,ls),
(232,667,o),
(233,670,o),
(237,670,cs)
);
},
{
closed = 1;
nodes = (
(205,633,ls),
(206,638,o),
(209,639,o),
(211,635,c),
(499,36,ls),
(500,33,o),
(498,30,o),
(494,30,cs),
(81,30,ls),
(78,30,o),
(77,32,o),
(77,35,cs)
);
}
);
width = 584;
},
{
layerId = "254266E2-2911-423D-9D37-8CC6105656EE";
shapes = (
{
closed = 1;
nodes = (
(47,35,ls),
(43,12,o),
(52,0,o),
(75,0,cs),
(509,0,ls),
(532,0,o),
(547,12,o),
(551,35,cs),
(685,665,ls),
(690,688,o),
(681,700,o),
(658,700,cs),
(224,700,ls),
(201,700,o),
(186,688,o),
(181,665,cs)
);
},
{
closed = 1;
nodes = (
(651,670,ls),
(654,670,o),
(656,668,o),
(655,665,cs),
(528,67,ls),
(527,62,o),
(524,61,o),
(522,65,c),
(233,664,ls),
(232,667,o),
(233,670,o),
(237,670,cs)
);
},
{
closed = 1;
nodes = (
(205,633,ls),
(206,638,o),
(209,639,o),
(211,635,c),
(499,36,ls),
(500,33,o),
(498,30,o),
(494,30,cs),
(81,30,ls),
(78,30,o),
(77,32,o),
(77,35,cs)
);
}
);
width = 584;
}
);
note = .notdef;
},
{
glyphname = period;
kernLeft = period;
lastChange = "2024-08-16 15:27:50 +0000";
layers = (
{
layerId = "8816CCA3-DDF9-4C51-BD56-64EE3675A105";
shapes = (
{
closed = 1;
nodes = (
(131,1,ls),
(170,1,o),
(196,22,o),
(204,61,cs),
(208,78,ls),
(216,117,o),
(199,138,o),
(160,138,cs),
(147,138,ls),
(108,138,o),
(83,117,o),
(75,78,cs),
(71,61,ls),
(63,22,o),
(79,1,o),
(118,1,cs)
);
}
);
width = 249;
},
{
layerId = "254266E2-2911-423D-9D37-8CC6105656EE";
shapes = (
{
closed = 1;
nodes = (
(81,0,ls),
(99,0,o),
(111,13,o),
(115,31,cs),
(119,54,ls),
(123,72,o),
(117,85,o),
(99,85,cs),
(95,85,ls),
(77,85,o),
(65,72,o),
(61,54,cs),
(57,31,ls),
(53,13,o),
(59,0,o),
(77,0,cs)
);
}
);
width = 158;
}
);
note = period;
unicode = 46;
},
{
glyphname = comma;
kernLeft = comma;
lastChange = "2024-08-16 15:27:50 +0000";
layers = (
{
background = {
shapes = (
{
closed = 1;
nodes = (
(61,-135,o),
(87,-145,o),
(118,-135,cs),
(183,-115,o),
(217,-68,o),
(217,21,cs),
(217,76,ls),
(217,111,o),
(191,137,o),
(156,137,cs),
(145,137,ls),
(110,137,o),
(84,111,o),
(84,76,cs),
(84,61,ls),
(84,26,o),
(105,0,o),
(135,0,c),
(138,-35,o),
(126,-60,o),
(98,-77,cs),
(72,-93,o),
(53,-104,o),
(57,-120,cs)
);
}
);
};
layerId = "8816CCA3-DDF9-4C51-BD56-64EE3675A105";
shapes = (
{
closed = 1;
nodes = (
(233,77,o),
(204,114,o),
(147,114,c),
(106,114,o),
(45,81,o),
(36,38,cs),
(31,15,o),
(40,7,o),
(53,1,c),
(62,6,o),
(75,8,o),
(83,8,cs),
(106,8,o),
(118,-6,o),
(115,-20,cs),
(111,-39,o),
(97,-51,o),
(78,-60,cs),
(64,-66,o),
(38,-67,o),
(31,-97,c),
(25,-126,o),
(44,-137,o),
(71,-137,c),
(133,-137,o),
(209,-36,o),
(219,8,cs)
);
}
);
width = 275;
},
{
background = {
shapes = (
{
closed = 1;
nodes = (
(44,-101,o),
(53,-104,o),
(64,-98,c),
(111,-75,o),
(129,-43,o),
(129,12,cs),
(129,56,ls),
(129,76,o),
(119,86,o),
(99,86,cs),
(93,86,ls),
(74,86,o),
(63,75,o),
(63,56,cs),
(63,31,ls),
(63,14,o),
(70,3,o),
(85,1,c),
(88,1,o),
(90,-1,o),
(90,-4,c),
(92,-33,o),
(80,-53,o),
(51,-71,cs),
(40,-78,o),
(36,-85,o),
(40,-93,cs)
);
}
);
};
layerId = "254266E2-2911-423D-9D37-8CC6105656EE";
shapes = (
{
closed = 1;
nodes = (
(141,30,o),
(125,48,o),
(98,48,c),
(77,48,o),
(53,34,o),
(48,18,c),
(45,10,o),
(46,2,o),
(51,-5,c),
(58,0,o),
(70,4,o),
(79,4,c),
(90,4,o),
(94,-5,o),
(91,-20,cs),
(86,-40,o),
(72,-63,o),
(50,-73,cs),
(29,-83,o),
(14,-78,o),
(10,-97,c),
(8,-108,o),
(16,-113,o),
(25,-113,c),
(61,-113,o),
(122,-63,o),
(135,1,c)
);
}
);
width = 167;
}
);
note = comma;
unicode = 44;
},
{
glyphname = colon;
lastChange = "2024-08-16 15:27:50 +0000";
layers = (
{
layerId = "8816CCA3-DDF9-4C51-BD56-64EE3675A105";
shapes = (
{
closed = 1;
nodes = (
(226,391,ls),
(265,391,o),
(291,412,o),
(299,451,cs),
(302,468,ls),
(311,507,o),
(294,528,o),
(255,528,cs),
(242,528,ls),
(203,528,o),
(178,507,o),
(169,468,cs),
(166,451,ls),
(158,412,o),
(174,391,o),
(213,391,cs)
);
},
{
closed = 1;
nodes = (
(143,0,ls),
(182,0,o),
(207,21,o),
(216,60,cs),
(219,77,ls),
(228,116,o),
(211,137,o),
(172,137,cs),
(159,137,ls),
(120,137,o),
(95,116,o),
(86,77,cs),
(83,60,ls),
(74,21,o),
(91,0,o),
(130,0,cs)
);
}
);
width = 273;
},
{
layerId = "254266E2-2911-423D-9D37-8CC6105656EE";
shapes = (
{
closed = 1;
nodes = (
(171,425,ls),
(189,425,o),
(201,438,o),
(205,456,cs),
(210,479,ls),
(214,497,o),
(207,510,o),
(189,510,cs),
(185,510,ls),
(167,510,o),
(156,497,o),
(152,479,cs),
(147,456,ls),
(143,438,o),
(149,425,o),
(167,425,cs)
);
},
{
closed = 1;
nodes = (
(81,0,ls),
(99,0,o),
(111,13,o),
(115,31,cs),
(119,54,ls),
(123,72,o),
(117,85,o),
(99,85,cs),
(95,85,ls),
(77,85,o),
(65,72,o),
(61,54,cs),
(57,31,ls),
(53,13,o),
(59,0,o),
(77,0,cs)
);
}
);
width = 158;
}
);
note = colon;
unicode = 58;
},
{
glyphname = semicolon;
lastChange = "2024-08-16 15:27:50 +0000";
layers = (
{
background = {
shapes = (
{
closed = 1;
nodes = (
(73,-136,o),
(96,-146,o),
(132,-135,cs),
(196,-114,o),
(229,-67,o),
(229,21,cs),
(229,77,ls),
(229,116,o),
(208,137,o),
(169,137,cs),
(156,137,ls),
(117,137,o),
(96,116,o),
(96,77,cs),
(96,60,ls),
(96,21,o),
(114,0,o),
(147,0,c),
(150,-33,o),
(139,-58,o),
(115,-74,cs),
(83,-95,o),
(64,-103,o),
(69,-120,c)
);
}
);
};
layerId = "8816CCA3-DDF9-4C51-BD56-64EE3675A105";
shapes = (
{
closed = 1;
nodes = (
(252,391,ls),
(291,391,o),
(317,412,o),
(325,451,cs),
(328,468,ls),
(337,507,o),
(320,528,o),
(281,528,cs),
(268,528,ls),
(229,528,o),
(204,507,o),
(195,468,cs),
(192,451,ls),
(184,412,o),
(200,391,o),
(239,391,cs)
);
},
{
pos = (32,0);
ref = comma;
}
);
width = 294;
},
{
layerId = "254266E2-2911-423D-9D37-8CC6105656EE";
shapes = (
{
closed = 1;
nodes = (
(188,425,ls),
(206,425,o),
(222,438,o),
(226,456,cs),
(231,479,ls),
(235,497,o),
(224,510,o),
(206,510,cs),
(202,510,ls),
(184,510,o),
(169,497,o),
(165,479,cs),
(160,456,ls),
(156,438,o),
(166,425,o),
(184,425,cs)
);
},
{
ref = comma;
}
);
width = 167;
}
);
note = semicolon;
unicode = 59;
},
{
glyphname = exclam;
lastChange = "2024-08-16 15:27:50 +0000";
layers = (
{
layerId = "8816CCA3-DDF9-4C51-BD56-64EE3675A105";
shapes = (
{
closed = 1;
nodes = (
(203,221,o),
(218,234,o),
(225,259,cs),
(331,627,ls),
(344,668,o),
(322,700,o),
(282,700,cs),
(242,700,o),
(207,668,o),
(201,627,cs),
(152,259,ls),
(149,234,o),
(159,221,o),
(181,221,cs)
);
},
{
closed = 1;
nodes = (
(140,0,ls),
(179,0,o),
(204,21,o),
(213,60,cs),
(216,77,ls),
(225,116,o),
(208,137,o),
(169,137,cs),
(156,137,ls),
(117,137,o),
(92,116,o),
(83,77,cs),
(80,60,ls),
(71,21,o),
(88,0,o),
(127,0,cs)
);
}
);
width = 267;
},
{
layerId = "254266E2-2911-423D-9D37-8CC6105656EE";
shapes = (
{
closed = 1;
nodes = (
(127,187,o),
(134,191,o),
(137,203,c),
(241,669,ls),
(245,687,o),
(245,700,o),
(228,700,cs),
(211,700,o),
(205,687,o),
(201,669,cs),
(107,203,l),
(106,191,o),
(111,187,o),
(119,187,cs)
);
},
{
closed = 1;
nodes = (
(81,0,ls),
(99,0,o),
(111,13,o),
(115,31,cs),
(119,54,ls),
(123,72,o),
(117,85,o),
(99,85,cs),
(95,85,ls),
(77,85,o),
(65,72,o),
(61,54,cs),
(57,31,ls),
(53,13,o),
(59,0,o),
(77,0,cs)
);
}
);
width = 158;
}
);
note = exclam;
unicode = 33;
},
{
glyphname = exclamdown;
lastChange = "2024-08-16 15:27:50 +0000";
layers = (
{
background = {
shapes = (
{
closed = 1;
nodes = (
(72,468,ls),
(72,429,o),
(93,408,o),
(132,408,cs),
(145,408,ls),
(184,408,o),
(205,429,o),
(205,468,cs),
(205,485,ls),
(205,524,o),
(184,545,o),
(145,545,cs),
(132,545,ls),
(93,545,o),
(72,524,o),
(72,485,cs)
);
},
{
closed = 1;
nodes = (
(73,-82,ls),
(70,-123,o),
(98,-155,o),
(138,-155,cs),
(178,-155,o),
(206,-123,o),
(203,-82,cs),
(175,286,ls),
(173,311,o),
(161,324,o),
(139,324,cs),
(117,324,o),
(104,311,o),
(102,286,cs)
);
}
);
};
layerId = "8816CCA3-DDF9-4C51-BD56-64EE3675A105";
shapes = (
{
angle = 180;
pos = (382,541);
ref = exclam;
}
);
width = 267;
},
{
background = {
shapes = (
{
closed = 1;
nodes = (
(77,500,ls),
(59,500,o),
(46,487,o),
(46,469,cs),
(46,446,ls),
(46,428,o),
(59,415,o),
(77,415,cs),
(81,415,ls),
(99,415,o),
(112,428,o),
(112,446,cs),
(112,469,ls),
(112,487,o),
(99,500,o),
(81,500,cs)
);
},
{
closed = 1;
nodes = (
(96,-200,o),
(108,-187,o),
(108,-169,cs),
(108,-130,l),
(94,297,l),
(93,309,o),
(87,317,o),
(79,317,cs),
(71,317,o),
(65,309,o),
(64,297,c),
(50,-130,l),
(50,-169,ls),
(50,-187,o),
(62,-200,o),
(79,-200,cs)
);
}
);
};
layerId = "254266E2-2911-423D-9D37-8CC6105656EE";
shapes = (
{
angle = 180;
pos = (264,501);
ref = exclam;
}
);
width = 158;
}
);
note = exclamdown;
unicode = 161;
},
